<?xml version="1.0" encoding="UTF-8"?>
<svg width="72px" height="102px" viewBox="0 0 72 102" version="1.1" xmlns="http://www.w3.org/2000/svg" xmlns:xlink="http://www.w3.org/1999/xlink">
    <!-- Generator: Sketch 61.2 (89653) - https://sketch.com -->
    <title>02_E</title>
    <desc>Created with Sketch.</desc>
    <g id="Page-1" stroke="none" stroke-width="1" fill="none" fill-rule="evenodd">
        <g id="03_Espadas" transform="translate(0.000000, 1.000000)">
            <g id="02_E" transform="translate(1.000000, 0.000000)">
                <rect id="Rectangle" stroke="#B0B0B0" fill="#FFFFFF" x="0" y="0.354900355" width="70" height="99.6450996" rx="9"></rect>
                <path d="M24.0161133,6.4974065 L57.6666667,6.4974065 C60.9803752,6.4974065 63.6666667,9.24750017 63.6666667,12.6399126 L63.6666667,87.7149877 C63.6666667,91.1074002 60.9803752,93.8574939 57.6666667,93.8574939 L12.3333333,93.8574939 C9.01962483,93.8574939 6.33333333,91.1074002 6.33333333,87.7149877 L6.33333333,36.277324" id="Rectangle" stroke="#343333"></path>
                <path d="M15.5883333,20.6662681 C15.5883333,20.430313 15.5755968,20.1189834 15.5501237,19.7322793 C15.5246507,19.3455752 15.4928093,18.9392082 15.4545997,18.5131782 C15.4163901,18.0871482 15.3749964,17.6643954 15.3304185,17.2449198 C15.2858406,16.8254441 15.2444469,16.4584029 15.2062373,16.1437962 L15.2062373,16.1437962 L14.5566739,16.1437962 L13.6205386,18.3460434 L10.3345124,18.3460434 L9.16911936,18.4640209 L9.16911936,18.3853692 L10.1625691,17.697167 C10.6465575,17.2645827 11.1878603,16.7828411 11.7864774,16.2519422 C12.3850946,15.7210434 12.9455022,15.1442643 13.4677001,14.5216052 C13.9898981,13.898946 14.4293086,13.2304067 14.7859316,12.5159872 C15.1425546,11.8015677 15.3208661,11.0445452 15.3208661,10.2449198 C15.3208661,9.74679243 15.2412627,9.28143663 15.082056,8.84885236 C14.9228493,8.41626809 14.6744869,8.03611827 14.3369687,7.70840292 C13.9994505,7.38068756 13.5759607,7.12506958 13.0664993,6.94154899 C12.5570378,6.75802839 11.9520524,6.66626809 11.2515429,6.66626809 C10.2580932,6.66626809 9.41429767,6.81046284 8.72015648,7.09885236 C8.02601528,7.38724187 7.45605531,7.72806584 7.01027656,8.12132427 C7.06122271,8.35727932 7.13127365,8.61617445 7.2204294,8.89800966 C7.30958515,9.17984487 7.40510917,9.46495722 7.50700146,9.75334674 C7.60889374,10.0417363 7.70760189,10.3170171 7.80312591,10.5791894 C7.89864993,10.8413617 7.98462154,11.0707625 8.06104076,11.2673917 L8.06104076,11.2673917 L8.71060408,11.2673917 L9.4174818,8.21963887 C9.63400291,8.1540958 9.82823508,8.10821565 10.0001783,8.08199842 C10.1721215,8.05578119 10.3663537,8.04267258 10.5828748,8.04267258 C11.2706477,8.04267258 11.8023981,8.26879618 12.1781259,8.72104337 C12.5538537,9.17329056 12.7417176,9.75990105 12.7417176,10.4808748 C12.7417176,11.0314366 12.6430095,11.595107 12.4455932,12.1718861 C12.2481769,12.7486651 11.9838937,13.3156127 11.6527438,13.8727288 C11.3215939,14.4298449 10.9458661,14.9771295 10.5255604,15.5145827 C10.1052547,16.0520359 9.67858079,16.5599947 9.24553857,17.0384591 C8.81249636,17.5169235 8.38582242,17.9560621 7.96551674,18.3558748 C7.54521106,18.7556876 7.16948326,19.106343 6.83833333,19.4078411 L6.83833333,19.4078411 L6.83833333,20.6662681 L15.5883333,20.6662681 Z" id="2" fill="#343333" fill-rule="nonzero"></path>
                <rect id="Rectangle" fill="#FFFFFF" x="46.3333333" y="3.4024024" width="19" height="17"></rect>
                <g id="Icon_Espadas" transform="translate(48.000000, 4.729730)" fill="#343333">
                    <path d="M8.24364559,13.0423819 C7.43214384,11.3870373 5.6075368,10.0910356 4.89150571,9.87556405 C-3.18384924,7.44548946 0.364914047,0.27027027 4.00274258,0.27027027 C6.65807139,0.27027027 8.10643256,1.4001077 8.34782609,3.65978256 L8.34782609,3.65978256 C8.57835396,1.4001077 9.9615212,0.27027027 12.4973278,0.27027027 C15.9714097,0.27027027 18.792595,7.35275876 11.0807295,9.78283334 C10.3658467,10.008099 9.06169707,11.5070881 8.34782609,13.2702703 Z" id="Combined-Shape" transform="translate(8.000000, 6.770270) scale(1, -1) translate(-8.000000, -6.770270) "></path>
                    <path d="M8.25328175,13.2702703 C6.70030104,15.9369369 5.06754556,17.2702703 3.35501531,17.2702703 C0.786219942,17.2702703 13,17.2702703 13,17.2702703 C11.8884078,17.2702703 10.3061684,15.9369369 8.25328175,13.2702703 Z" id="Path-7"></path>
                </g>
                <path d="M6.33333333,64.4963012 C13.469184,53.6516053 23.3580729,48.2292573 36,48.2292573 C48.6419271,48.2292573 57.8641493,53.6516053 63.6666667,64.4963012 L63.6666667,87.8574939 C63.6666667,91.1712024 60.9803752,93.8574939 57.6666667,93.8574939 L12.3333333,93.8574939 C9.01962483,93.8574939 6.33333333,91.1712024 6.33333333,87.8574939 L6.33333333,64.4963012 L6.33333333,64.4963012 Z" id="Path-114" fill="#343333"></path>
                <path d="M6.33333333,59.7187964 C13.6349826,50.2391019 23.5238715,45.4992546 36,45.4992546 C48.4761285,45.4992546 57.6983507,50.2391019 63.6666667,59.7187964" id="Path-115" stroke="#343333"></path>
                <path d="M21,79.8333247 L28.9766556,88.5124659 L26.976213,89.2536869 L31.4823343,94 L56,94 C60.418278,94 64,90.418278 64,86 L64,79.9782922 L64,79.9782922 L48.8274085,64 L21,79.8333247 Z" id="Path-117" fill="#1D1D1D"></path>
                <g id="Icon" transform="translate(18.000000, 53.000000)" fill="#FFFFFF">
                    <path d="M18.6442564,30.669869 C16.8704484,26.620945 12.6458646,23.4279672 11.0058879,22.9049313 C-7.16366079,17.1101381 0.821056605,1.77635684e-15 9.0061708,1.77635684e-15 C14.9806606,1.77635684e-15 18.2394733,2.69422772 18.7826087,8.08268316 L18.7826087,8.08268316 C19.3012964,2.69422772 22.4134227,1.77635684e-15 28.1189876,1.77635684e-15 C35.9356718,1.77635684e-15 42.2833387,16.889011 24.9316414,22.6838043 C23.3231551,23.2209762 20.3888184,26.7954887 18.7826087,31 Z" id="Combined-Shape" transform="translate(18.000000, 15.500000) scale(1, -1) translate(-18.000000, -15.500000) "></path>
                    <path d="M18.6078762,31 C14.8807225,35.6666667 10.9621093,38 6.85203675,38 C0.686927862,38 30,38 30,38 C27.3321788,38 23.5348042,35.6666667 18.6078762,31 Z" id="Path-7"></path>
                    <path d="M27,13 C31,14.6732891 33,17.2790013 33,20.8171364 C33,26.1243392 29.585567,28 27.3092784,28 C31.4824742,23.2114243 31.3793814,18.2114243 27,13 Z" id="Path-110"></path>
                </g>
            </g>
        </g>
    </g>
</svg>