<?xml version="1.0" encoding="UTF-8"?>
<svg width="72px" height="102px" viewBox="0 0 72 102" version="1.1" xmlns="http://www.w3.org/2000/svg" xmlns:xlink="http://www.w3.org/1999/xlink">
    <!-- Generator: Sketch 61.2 (89653) - https://sketch.com -->
    <title>03_P</title>
    <desc>Created with Sketch.</desc>
    <g id="Page-1" stroke="none" stroke-width="1" fill="none" fill-rule="evenodd">
        <g id="03_Paus" transform="translate(1.000000, -114.000000)">
            <g id="03_P" transform="translate(0.000000, 115.000000)">
                <rect id="Rectangle" stroke="#B0B0B0" fill="#FFFFFF" x="0" y="0.354900355" width="70" height="99.6450996" rx="9"></rect>
                <path d="M24.0161133,6.4974065 L57.6666667,6.4974065 C60.9803752,6.4974065 63.6666667,9.24750017 63.6666667,12.6399126 L63.6666667,87.7149877 C63.6666667,91.1074002 60.9803752,93.8574939 57.6666667,93.8574939 L12.3333333,93.8574939 C9.01962483,93.8574939 6.33333333,91.1074002 6.33333333,87.7149877 L6.33333333,36.277324" id="Rectangle" stroke="#343333"></path>
                <path d="M11.0405914,20.0862681 C11.7054659,20.0862681 12.3389785,19.9912306 12.941129,19.8011557 C13.5432796,19.6110808 14.0701613,19.3325228 14.5217742,18.9654816 C14.9733871,18.5984404 15.3340502,18.1527475 15.6037634,17.6284029 C15.8734767,17.1040583 16.0083333,16.5141707 16.0083333,15.85874 C16.0083333,15.3081782 15.9236559,14.8034966 15.7543011,14.3446951 C15.5849462,13.8858936 15.3403226,13.4828037 15.0204301,13.1354254 C14.7005376,12.7880471 14.3053763,12.5127662 13.8349462,12.3095827 C13.3645161,12.1063992 12.8344982,11.9916988 12.2448925,11.9654816 L12.2448925,11.9654816 L11.6051075,12.103122 L11.6051075,12.0637962 L12.4142473,11.1986276 L15.6696237,7.04975123 L15.6696237,6.08626809 L7.46532258,6.08626809 C7.46532258,6.32222314 7.48100358,6.61716696 7.51236559,6.97109955 C7.5437276,7.32503213 7.58763441,7.69207333 7.64408602,8.07222314 C7.70053763,8.45237296 7.76326165,8.83252277 7.83225806,9.21267258 C7.90125448,9.59282239 7.9671147,9.92053775 8.02983871,10.1958186 L8.02983871,10.1958186 L8.66962366,10.1958186 L9.40349462,8.19020067 L12.2448925,8.19020067 L13.2610215,8.07222314 L13.2610215,8.15087483 L12.6212366,8.83907708 L9.79865591,12.6930097 L9.79865591,13.4795265 L10.8900538,13.4795265 C11.191129,13.4795265 11.4922043,13.5286838 11.7932796,13.6269984 C12.0943548,13.725313 12.3609319,13.8793392 12.5930108,14.0890771 C12.8250896,14.2988149 13.0132616,14.5642643 13.1575269,14.8854254 C13.3017921,15.2065864 13.3739247,15.5900134 13.3739247,16.0357063 C13.3739247,16.4289647 13.3080645,16.7960059 13.1763441,17.1368299 C13.0446237,17.4776539 12.8689964,17.7725977 12.6494624,18.0216613 C12.4299283,18.270725 12.1821685,18.4640771 11.9061828,18.6017175 C11.6301971,18.739358 11.3479391,18.8081782 11.0594086,18.8081782 C10.7959677,18.8081782 10.5858423,18.7885153 10.4290323,18.7491894 C10.2722222,18.7098636 10.1310932,18.6770921 10.0056452,18.6508748 C9.90528674,18.5328973 9.78611111,18.3887025 9.64811828,18.2182906 C9.51012545,18.0478786 9.36899642,17.8774666 9.22473118,17.7070546 C9.08046595,17.5366426 8.94247312,17.3760621 8.81075269,17.225313 C8.67903226,17.074564 8.57553763,16.9533093 8.50026882,16.861549 L8.50026882,16.861549 L7.95456989,16.861549 L7.25833333,18.9064928 C7.44650538,19.0769048 7.67544803,19.2342082 7.94516129,19.3784029 C8.21487455,19.5225977 8.51594982,19.6471295 8.8483871,19.7519984 C9.18082437,19.8568673 9.53521505,19.9387962 9.91155914,19.9977849 C10.2879032,20.0567737 10.6642473,20.0862681 11.0405914,20.0862681 Z" id="3" fill="#343333" fill-rule="nonzero"></path>
                <rect id="Rectangle" fill="#FFFFFF" x="46.3333333" y="3.4024024" width="19" height="17"></rect>
                <g id="Small_Icon" transform="translate(47.000000, 5.000000)" fill="#343333">
                    <path d="M8.62664087,13 C7.85015052,16.3333333 7.03377278,18 6.17750766,18 C4.89310997,18 11,18 11,18 C10.4442039,18 9.65308421,16.3333333 8.62664087,13 Z" id="Path-7"></path>
                    <path d="M4.59152968,2.40631429 C5.54868186,-0.802104762 11.3716789,-0.802104762 12.4685359,2.40631429 C12.9154036,3.71344797 12.7514443,4.96376984 11.9766581,6.1572799 C12.7874437,5.96851203 13.6227319,5.98454424 14.4814459,6.20427712 C17.839518,7.06356065 17.839518,13.3479056 14.4814459,14.7113203 C12.3424112,15.5797923 10.3487332,14.488713 8.50041211,11.4380826 C6.65126677,14.488713 4.65758884,15.5797923 2.51855409,14.7113203 C-0.83951803,13.3479056 -0.83951803,7.06356065 2.51855409,6.20427712 C3.4298893,5.97107923 4.31483957,5.96731208 5.17340491,6.19297567 C4.39148654,4.9896868 4.19753634,3.72699844 4.59152968,2.40631429 Z" id="Combined-Shape"></path>
                </g>
                <path d="M6.33333333,64.4963012 C13.469184,53.6516053 23.3580729,48.2292573 36,48.2292573 C48.6419271,48.2292573 57.8641493,53.6516053 63.6666667,64.4963012 L63.6666667,87.8574939 C63.6666667,91.1712024 60.9803752,93.8574939 57.6666667,93.8574939 L12.3333333,93.8574939 C9.01962483,93.8574939 6.33333333,91.1712024 6.33333333,87.8574939 L6.33333333,64.4963012 L6.33333333,64.4963012 Z" id="Path-114" fill="#343333"></path>
                <path d="M6.33333333,59.7187964 C13.6349826,50.2391019 23.5238715,45.4992546 36,45.4992546 C48.4761285,45.4992546 57.6983507,50.2391019 63.6666667,59.7187964" id="Path-115" stroke="#343333"></path>
                <path d="M20.429362,82.0540541 L30.8925781,93.5675676 L56,93.5675676 C60.418278,93.5675676 64,89.9858456 64,85.5675676 L64,79.6550425 L64,79.6550425 L44.6666667,57.099583 L20.429362,82.0540541 Z" id="Path-117" fill="#1D1D1D"></path>
                <g id="Icon_Paus-Copy-3" transform="translate(18.000000, 53.000000)">
                    <path d="M18.5528442,29.0540541 C17.2069276,34.9099099 15.7918728,37.8378378 14.3076799,37.8378378 C12.0813906,37.8378378 22.6666667,37.8378378 22.6666667,37.8378378 C21.7032868,37.8378378 20.3320126,34.9099099 18.5528442,29.0540541 Z" id="Path-7" fill="#FFFFFF"></path>
                    <path d="M9.9032993,5.09444916 C11.9677452,-1.69814972 24.5271506,-1.69814972 26.8929206,5.09444916 C27.8564346,7.86089077 27.5033484,10.5071345 25.8336621,13.0331804 C27.5830272,12.6360819 29.3835277,12.6702736 31.2344912,13.1351813 C38.4773918,14.9543852 38.4773918,28.2590794 31.2344912,31.145588 C26.6205426,32.984382 22.3201556,30.6739576 18.33333,24.2143149 C14.3465111,30.6739576 10.046124,32.984382 5.43217549,31.145588 C-1.81072516,28.2590794 -1.81072516,14.9543852 5.43217549,13.1351813 C7.39761241,12.6415213 9.30615153,12.6335001 11.1577929,13.1111177 C9.47156269,10.5620185 9.05378518,7.88958598 9.9032993,5.09444916 Z" id="Combined-Shape" fill="#FFFFFF"></path>
                    <path d="M26.6666667,15.7491798 C30.009662,15.0786063 32.2477406,16.0244669 33.3809024,18.5867615 C35.080645,22.4302034 32.9101892,26.9584203 31.3149837,27.7027027 C33.1345994,21.6254086 31.5851604,17.6409009 26.6666667,15.7491798 Z" id="Path-111" fill="#343333"></path>
                </g>
            </g>
        </g>
    </g>
</svg>