<?xml version="1.0" encoding="UTF-8"?>
<svg width="72px" height="102px" viewBox="0 0 72 102" version="1.1" xmlns="http://www.w3.org/2000/svg" xmlns:xlink="http://www.w3.org/1999/xlink">
    <!-- Generator: Sketch 61.2 (89653) - https://sketch.com -->
    <title>05_P</title>
    <desc>Created with Sketch.</desc>
    <g id="Page-1" stroke="none" stroke-width="1" fill="none" fill-rule="evenodd">
        <g id="03_Paus" transform="translate(1.000000, -339.000000)">
            <g id="05_P" transform="translate(0.000000, 340.000000)">
                <rect id="Rectangle" stroke="#B0B0B0" fill="#FFFFFF" x="0" y="0.354900355" width="70" height="99.6450996" rx="9"></rect>
                <path d="M24.0161133,6.4974065 L57.6666667,6.4974065 C60.9803752,6.4974065 63.6666667,9.24750017 63.6666667,12.6399126 L63.6666667,87.7149877 C63.6666667,91.1074002 60.9803752,93.8574939 57.6666667,93.8574939 L12.3333333,93.8574939 C9.01962483,93.8574939 6.33333333,91.1074002 6.33333333,87.7149877 L6.33333333,36.277324" id="Rectangle" stroke="#343333"></path>
                <path d="M10.2295124,20.1612681 C10.9682314,20.1612681 11.6560044,20.060877 12.2928311,19.8600947 C12.9296579,19.6593124 13.4836972,19.3733498 13.9549491,19.0022068 C14.4262009,18.6310638 14.7987445,18.1747405 15.0725801,17.6332368 C15.3464156,17.0917331 15.4833333,16.4741755 15.4833333,15.780564 C15.4833333,15.1599643 15.3750728,14.6093341 15.1585517,14.1286736 C14.9420306,13.648013 14.6363537,13.2403641 14.2415211,12.905727 C13.8466885,12.5710899 13.3690684,12.3155488 12.8086608,12.1391038 C12.2482533,11.9626588 11.624163,11.8744363 10.9363901,11.8744363 L10.9363901,11.8744363 L9.35069141,11.8744363 L9.69457787,9.26426678 L14.929294,9.26426678 C14.9802402,9.11824331 15.0311863,8.90833458 15.0821325,8.63454058 C15.1330786,8.36074657 15.1776565,8.07174179 15.2158661,7.76752623 C15.2540757,7.46331068 15.2795488,7.16517943 15.2922853,6.87313249 C15.3050218,6.58108556 15.3113901,6.34379742 15.3113901,6.16126809 L15.3113901,6.16126809 L14.6618268,6.16126809 L13.763901,7.16517943 L8.77754731,7.16517943 L8.01335517,13.8275002 L9.67547307,13.8092472 C10.1085153,13.8092472 10.5224527,13.8609639 10.9172853,13.9643972 C11.3121179,14.0678305 11.6560044,14.2229804 11.9489447,14.429847 C12.241885,14.6367135 12.4743268,14.9013811 12.64627,15.2238496 C12.8182132,15.5463181 12.9041849,15.9205032 12.9041849,16.346405 C12.9041849,16.7358009 12.8341339,17.0917331 12.694032,17.4142016 C12.5539301,17.7366701 12.3660662,18.0135062 12.1304403,18.2447101 C11.8948144,18.4759139 11.6114265,18.6554011 11.2802766,18.7831716 C10.9491266,18.9109421 10.5925036,18.9748274 10.2104076,18.9748274 C10.0320961,18.9748274 9.88881004,18.9626588 9.78054949,18.9383215 C9.67228894,18.9139843 9.55447598,18.8774784 9.42711063,18.8288039 C9.33795488,18.7192863 9.23606259,18.5915158 9.12143377,18.4454923 C9.00680495,18.2994689 8.88580786,18.1534454 8.7584425,18.0074219 C8.63107715,17.8613985 8.51008006,17.7214593 8.39545124,17.5876045 C8.28082242,17.4537496 8.17893013,17.344232 8.08977438,17.2590517 L8.08977438,17.2590517 L7.53573508,17.2590517 L6.73333333,19.0660921 C7.10269287,19.3459704 7.59304949,19.5984693 8.2044032,19.8235888 C8.81575691,20.0487083 9.4907933,20.1612681 10.2295124,20.1612681 Z" id="5" fill="#343333" fill-rule="nonzero"></path>
                <rect id="Rectangle" fill="#FFFFFF" x="46.3333333" y="3.4024024" width="19" height="17"></rect>
                <g id="Small_Icon" transform="translate(47.000000, 5.000000)" fill="#343333">
                    <path d="M8.62664087,13 C7.85015052,16.3333333 7.03377278,18 6.17750766,18 C4.89310997,18 11,18 11,18 C10.4442039,18 9.65308421,16.3333333 8.62664087,13 Z" id="Path-7"></path>
                    <path d="M4.59152968,2.40631429 C5.54868186,-0.802104762 11.3716789,-0.802104762 12.4685359,2.40631429 C12.9154036,3.71344797 12.7514443,4.96376984 11.9766581,6.1572799 C12.7874437,5.96851203 13.6227319,5.98454424 14.4814459,6.20427712 C17.839518,7.06356065 17.839518,13.3479056 14.4814459,14.7113203 C12.3424112,15.5797923 10.3487332,14.488713 8.50041211,11.4380826 C6.65126677,14.488713 4.65758884,15.5797923 2.51855409,14.7113203 C-0.83951803,13.3479056 -0.83951803,7.06356065 2.51855409,6.20427712 C3.4298893,5.97107923 4.31483957,5.96731208 5.17340491,6.19297567 C4.39148654,4.9896868 4.19753634,3.72699844 4.59152968,2.40631429 Z" id="Combined-Shape"></path>
                </g>
                <path d="M6.33333333,64.4963012 C13.469184,53.6516053 23.3580729,48.2292573 36,48.2292573 C48.6419271,48.2292573 57.8641493,53.6516053 63.6666667,64.4963012 L63.6666667,87.8574939 C63.6666667,91.1712024 60.9803752,93.8574939 57.6666667,93.8574939 L12.3333333,93.8574939 C9.01962483,93.8574939 6.33333333,91.1712024 6.33333333,87.8574939 L6.33333333,64.4963012 L6.33333333,64.4963012 Z" id="Path-114" fill="#343333"></path>
                <path d="M6.33333333,59.7187964 C13.6349826,50.2391019 23.5238715,45.4992546 36,45.4992546 C48.4761285,45.4992546 57.6983507,50.2391019 63.6666667,59.7187964" id="Path-115" stroke="#343333"></path>
                <path d="M20.429362,82.0540541 L30.8925781,93.5675676 L56,93.5675676 C60.418278,93.5675676 64,89.9858456 64,85.5675676 L64,79.6550425 L64,79.6550425 L44.6666667,57.099583 L20.429362,82.0540541 Z" id="Path-117" fill="#1D1D1D"></path>
                <g id="Icon_Paus-Copy-3" transform="translate(18.000000, 53.000000)">
                    <path d="M18.5528442,29.0540541 C17.2069276,34.9099099 15.7918728,37.8378378 14.3076799,37.8378378 C12.0813906,37.8378378 22.6666667,37.8378378 22.6666667,37.8378378 C21.7032868,37.8378378 20.3320126,34.9099099 18.5528442,29.0540541 Z" id="Path-7" fill="#FFFFFF"></path>
                    <path d="M9.9032993,5.09444916 C11.9677452,-1.69814972 24.5271506,-1.69814972 26.8929206,5.09444916 C27.8564346,7.86089077 27.5033484,10.5071345 25.8336621,13.0331804 C27.5830272,12.6360819 29.3835277,12.6702736 31.2344912,13.1351813 C38.4773918,14.9543852 38.4773918,28.2590794 31.2344912,31.145588 C26.6205426,32.984382 22.3201556,30.6739576 18.33333,24.2143149 C14.3465111,30.6739576 10.046124,32.984382 5.43217549,31.145588 C-1.81072516,28.2590794 -1.81072516,14.9543852 5.43217549,13.1351813 C7.39761241,12.6415213 9.30615153,12.6335001 11.1577929,13.1111177 C9.47156269,10.5620185 9.05378518,7.88958598 9.9032993,5.09444916 Z" id="Combined-Shape" fill="#FFFFFF"></path>
                    <path d="M26.6666667,15.7491798 C30.009662,15.0786063 32.2477406,16.0244669 33.3809024,18.5867615 C35.080645,22.4302034 32.9101892,26.9584203 31.3149837,27.7027027 C33.1345994,21.6254086 31.5851604,17.6409009 26.6666667,15.7491798 Z" id="Path-111" fill="#343333"></path>
                </g>
            </g>
        </g>
    </g>
</svg>