<?xml version="1.0" encoding="UTF-8"?>
<svg width="72px" height="102px" viewBox="0 0 72 102" version="1.1" xmlns="http://www.w3.org/2000/svg" xmlns:xlink="http://www.w3.org/1999/xlink">
    <!-- Generator: Sketch 61.2 (89653) - https://sketch.com -->
    <title>05_C</title>
    <desc>Created with Sketch.</desc>
    <g id="Page-1" stroke="none" stroke-width="1" fill="none" fill-rule="evenodd">
        <g id="03_Copas" transform="translate(1.000000, -339.000000)">
            <g id="05_C" transform="translate(0.000000, 340.000000)">
                <rect id="Rectangle" stroke="#B0B0B0" fill="#FFFFFF" x="0" y="0.354900355" width="70" height="99.6450996" rx="9"></rect>
                <path d="M24.0161133,6.4974065 L57.6666667,6.4974065 C60.9803752,6.4974065 63.6666667,9.24750017 63.6666667,12.6399126 L63.6666667,87.7149877 C63.6666667,91.1074002 60.9803752,93.8574939 57.6666667,93.8574939 L12.3333333,93.8574939 C9.01962483,93.8574939 6.33333333,91.1074002 6.33333333,87.7149877 L6.33333333,36.277324" id="Rectangle" stroke="#FF4A4A"></path>
                <path d="M10.2295124,20.1612681 C10.9682314,20.1612681 11.6560044,20.060877 12.2928311,19.8600947 C12.9296579,19.6593124 13.4836972,19.3733498 13.9549491,19.0022068 C14.4262009,18.6310638 14.7987445,18.1747405 15.0725801,17.6332368 C15.3464156,17.0917331 15.4833333,16.4741755 15.4833333,15.780564 C15.4833333,15.1599643 15.3750728,14.6093341 15.1585517,14.1286736 C14.9420306,13.648013 14.6363537,13.2403641 14.2415211,12.905727 C13.8466885,12.5710899 13.3690684,12.3155488 12.8086608,12.1391038 C12.2482533,11.9626588 11.624163,11.8744363 10.9363901,11.8744363 L10.9363901,11.8744363 L9.35069141,11.8744363 L9.69457787,9.26426678 L14.929294,9.26426678 C14.9802402,9.11824331 15.0311863,8.90833458 15.0821325,8.63454058 C15.1330786,8.36074657 15.1776565,8.07174179 15.2158661,7.76752623 C15.2540757,7.46331068 15.2795488,7.16517943 15.2922853,6.87313249 C15.3050218,6.58108556 15.3113901,6.34379742 15.3113901,6.16126809 L15.3113901,6.16126809 L14.6618268,6.16126809 L13.763901,7.16517943 L8.77754731,7.16517943 L8.01335517,13.8275002 L9.67547307,13.8092472 C10.1085153,13.8092472 10.5224527,13.8609639 10.9172853,13.9643972 C11.3121179,14.0678305 11.6560044,14.2229804 11.9489447,14.429847 C12.241885,14.6367135 12.4743268,14.9013811 12.64627,15.2238496 C12.8182132,15.5463181 12.9041849,15.9205032 12.9041849,16.346405 C12.9041849,16.7358009 12.8341339,17.0917331 12.694032,17.4142016 C12.5539301,17.7366701 12.3660662,18.0135062 12.1304403,18.2447101 C11.8948144,18.4759139 11.6114265,18.6554011 11.2802766,18.7831716 C10.9491266,18.9109421 10.5925036,18.9748274 10.2104076,18.9748274 C10.0320961,18.9748274 9.88881004,18.9626588 9.78054949,18.9383215 C9.67228894,18.9139843 9.55447598,18.8774784 9.42711063,18.8288039 C9.33795488,18.7192863 9.23606259,18.5915158 9.12143377,18.4454923 C9.00680495,18.2994689 8.88580786,18.1534454 8.7584425,18.0074219 C8.63107715,17.8613985 8.51008006,17.7214593 8.39545124,17.5876045 C8.28082242,17.4537496 8.17893013,17.344232 8.08977438,17.2590517 L8.08977438,17.2590517 L7.53573508,17.2590517 L6.73333333,19.0660921 C7.10269287,19.3459704 7.59304949,19.5984693 8.2044032,19.8235888 C8.81575691,20.0487083 9.4907933,20.1612681 10.2295124,20.1612681 Z" id="5" fill="#FF4141" fill-rule="nonzero"></path>
                <rect id="Rectangle" fill="#FFFFFF" x="46.3333333" y="4.55391755" width="19" height="13"></rect>
                <path d="M6.33333333,64.4963012 C13.469184,53.6516053 23.3580729,48.2292573 36,48.2292573 C48.6419271,48.2292573 57.8641493,53.6516053 63.6666667,64.4963012 L63.6666667,87.8574939 C63.6666667,91.1712024 60.9803752,93.8574939 57.6666667,93.8574939 L12.3333333,93.8574939 C9.01962483,93.8574939 6.33333333,91.1712024 6.33333333,87.8574939 L6.33333333,64.4963012 L6.33333333,64.4963012 Z" id="Path-114" fill="#FF4A4A"></path>
                <path d="M6.33333333,59.7187964 C13.6349826,50.2391019 23.5238715,45.4992546 36,45.4992546 C48.4761285,45.4992546 57.6983507,50.2391019 63.6666667,59.7187964" id="Path-115" stroke="#FF4A4A"></path>
                <path d="M21.6930339,74.5028676 L39.3333333,93.8574939 L55.6666667,93.8574939 C60.0849447,93.8574939 63.6666667,90.2757719 63.6666667,85.8574939 L63.6666667,74.9940814 L63.6666667,74.9940814 L47.9173177,56.9334738 L21.6930339,74.5028676 Z" id="Path-117" fill="#DF3232"></path>
                <g id="Group-4" transform="translate(19.333333, 56.319956)">
                    <path d="M16.5445717,32.4196024 C14.9670123,28.1252039 12.2314326,24.5247973 10.7143202,23.9716829 C-6.08235647,17.8478888 0.0622705954,0 7.62892616,0 C13.1519898,0 16.16457,2.84719317 16.6666667,8.54157952 L16.6666667,8.54157952 C17.1687634,2.84719317 20.1813435,0 25.7044072,0 C33.2710627,0 39.4156898,17.8478888 22.6190132,23.9716829 C21.0619767,24.539353 18.2214993,28.3168093 16.6666667,32.7600328 Z" id="Combined-Shape-Copy" fill="#FFFFFF"></path>
                    <path d="M20,3.23201655 C23.8935737,1.31052225 26.9889223,1.72678342 29.2860458,4.48080006 C31.5831693,7.2348167 31.9472071,10.2912212 30.3781591,13.6500137 C30.3781591,10.2912212 29.3960655,7.59320235 27.4318783,5.555957 C25.4676911,3.51871165 22.9903983,2.74406483 20,3.23201655 Z" id="Path-36" fill="#FF4A4A"></path>
                </g>
                <g id="Small_Icon" transform="translate(49.000000, 6.000000)" fill="#FF4A4A">
                    <path d="M7.40555216,13.7540318 C6.69026797,11.9634079 5.49164671,10.4763449 4.82144407,10.2442987 C-2.73706041,7.62729529 0.0280217679,0 3.43301677,0 C5.91839541,0 7.27405649,1.216748 7.5,3.65024401 L7.5,3.65024401 C7.72594351,1.216748 9.08160459,0 11.5669832,0 C14.9719782,0 17.7370604,7.62729529 10.1785559,10.2442987 C9.47788954,10.4868925 8.19967469,12.1011884 7.5,14 Z" id="Combined-Shape-Copy"></path>
                </g>
            </g>
        </g>
    </g>
</svg>