<?xml version="1.0" encoding="UTF-8"?>
<svg width="72px" height="102px" viewBox="0 0 72 102" version="1.1" xmlns="http://www.w3.org/2000/svg" xmlns:xlink="http://www.w3.org/1999/xlink">
    <!-- Generator: Sketch 61.2 (89653) - https://sketch.com -->
    <title>07_O</title>
    <desc>Created with Sketch.</desc>
    <g id="Page-1" stroke="none" stroke-width="1" fill="none" fill-rule="evenodd">
        <g id="03_Ouros" transform="translate(1.000000, -567.000000)">
            <g id="07_O" transform="translate(0.000000, 568.000000)">
                <rect id="Rectangle" stroke="#B0B0B0" fill="#FFFFFF" x="0" y="0.354900355" width="70" height="99.6450996" rx="9"></rect>
                <path d="M24.0161133,6.4974065 L57.6666667,6.4974065 C60.9803752,6.4974065 63.6666667,9.24750017 63.6666667,12.6399126 L63.6666667,87.7149877 C63.6666667,91.1074002 60.9803752,93.8574939 57.6666667,93.8574939 L12.3333333,93.8574939 C9.01962483,93.8574939 6.33333333,91.1074002 6.33333333,87.7149877 L6.33333333,36.277324" id="Rectangle" stroke="#FF4A4A"></path>
                <path d="M12.227062,20.0862681 C12.3915919,18.7129348 12.5869712,17.4729348 12.8131998,16.3662681 C13.0394284,15.2596014 13.3239281,14.1996014 13.6666987,13.1862681 C14.0094694,12.1729348 14.434505,11.1729348 14.9418056,10.1862681 C15.4491061,9.19960142 16.0729487,8.14626809 16.8133333,7.02626809 L16.8133333,7.02626809 L16.8133333,6.08626809 L7.18833333,6.08626809 C7.18833333,6.32626809 7.20889957,6.63626809 7.25003205,7.01626809 C7.29116453,7.39626809 7.34258013,7.79293475 7.40427885,8.20626809 C7.46597756,8.61960142 7.53110399,9.02960142 7.59965812,9.43626809 C7.66821225,9.84293475 7.73676638,10.1862681 7.80532051,10.4662681 L7.80532051,10.4662681 L8.50457265,10.4662681 L9.30665598,8.42626809 L13.7283974,8.42626809 L14.7567094,8.32626809 L13.9957585,9.28626809 C12.9263141,11.0596014 12.0008333,12.8196014 11.2193162,14.5662681 C10.4377991,16.3129348 9.80024573,18.1529348 9.30665598,20.0862681 L9.30665598,20.0862681 L12.227062,20.0862681 Z" id="7" fill="#FF4141" fill-rule="nonzero"></path>
                <rect id="Rectangle" fill="#FFFFFF" x="51.3333333" y="3.55391755" width="14" height="14"></rect>
                <polygon id="Small_Icon" fill="#FF4A4A" transform="translate(56.500000, 15.000000) rotate(-360.000000) translate(-56.500000, -15.000000) " points="56.5 5 61 15.1448916 56.6199707 25 52 15.1448916"></polygon>
                <path d="M6.33333333,64.4963012 C13.469184,53.6516053 23.3580729,48.2292573 36,48.2292573 C48.6419271,48.2292573 57.8641493,53.6516053 63.6666667,64.4963012 L63.6666667,87.8574939 C63.6666667,91.1712024 60.9803752,93.8574939 57.6666667,93.8574939 L12.3333333,93.8574939 C9.01962483,93.8574939 6.33333333,91.1712024 6.33333333,87.8574939 L6.33333333,64.4963012 L6.33333333,64.4963012 Z" id="Path-114" fill="#FF4A4A"></path>
                <path d="M6.33333333,59.7187964 C13.6349826,50.2391019 23.5238715,45.4992546 36,45.4992546 C48.4761285,45.4992546 57.6983507,50.2391019 63.6666667,59.7187964" id="Path-115" stroke="#FF4A4A"></path>
                <path d="M36.6640625,90 L40.3333333,93.8574939 L56.8032542,93.8574939 C60.5938123,93.8574939 63.6666667,90.7846394 63.6666667,86.9940814 L63.6666667,86.9940814 L63.6666667,86.9940814 L36.6640625,53.0126953 L36.6640625,90 Z" id="Path-117" fill="#DF3232"></path>
                <g id="Icon-Copy-6" transform="translate(27.000000, 52.000000)">
                    <polygon id="Triangle-Copy-2" fill="#FFFFFF" transform="translate(9.000000, 19.000000) rotate(-360.000000) translate(-9.000000, -19.000000) " points="9 0 18 19.2752941 9.23994141 38 0 19.2752941"></polygon>
                    <polygon id="Path-112" fill="#DF3232" points="9 5 16 19 13.7302669 19"></polygon>
                </g>
            </g>
        </g>
    </g>
</svg>