<?xml version="1.0" encoding="UTF-8"?>
<svg width="72px" height="102px" viewBox="0 0 72 102" version="1.1" xmlns="http://www.w3.org/2000/svg" xmlns:xlink="http://www.w3.org/1999/xlink">
    <!-- Generator: Sketch 61.2 (89653) - https://sketch.com -->
    <title>07_E</title>
    <desc>Created with Sketch.</desc>
    <g id="Page-1" stroke="none" stroke-width="1" fill="none" fill-rule="evenodd">
        <g id="03_Espadas" transform="translate(1.000000, -567.000000)">
            <g id="07_E" transform="translate(0.000000, 568.000000)">
                <rect id="Rectangle" stroke="#B0B0B0" fill="#FFFFFF" x="0" y="0.354900355" width="70" height="99.6450996" rx="9"></rect>
                <path d="M24.0161133,6.4974065 L57.6666667,6.4974065 C60.9803752,6.4974065 63.6666667,9.24750017 63.6666667,12.6399126 L63.6666667,87.7149877 C63.6666667,91.1074002 60.9803752,93.8574939 57.6666667,93.8574939 L12.3333333,93.8574939 C9.01962483,93.8574939 6.33333333,91.1074002 6.33333333,87.7149877 L6.33333333,36.277324" id="Rectangle" stroke="#343333"></path>
                <path d="M12.227062,20.0862681 C12.3915919,18.7129348 12.5869712,17.4729348 12.8131998,16.3662681 C13.0394284,15.2596014 13.3239281,14.1996014 13.6666987,13.1862681 C14.0094694,12.1729348 14.434505,11.1729348 14.9418056,10.1862681 C15.4491061,9.19960142 16.0729487,8.14626809 16.8133333,7.02626809 L16.8133333,7.02626809 L16.8133333,6.08626809 L7.18833333,6.08626809 C7.18833333,6.32626809 7.20889957,6.63626809 7.25003205,7.01626809 C7.29116453,7.39626809 7.34258013,7.79293475 7.40427885,8.20626809 C7.46597756,8.61960142 7.53110399,9.02960142 7.59965812,9.43626809 C7.66821225,9.84293475 7.73676638,10.1862681 7.80532051,10.4662681 L7.80532051,10.4662681 L8.50457265,10.4662681 L9.30665598,8.42626809 L13.7283974,8.42626809 L14.7567094,8.32626809 L13.9957585,9.28626809 C12.9263141,11.0596014 12.0008333,12.8196014 11.2193162,14.5662681 C10.4377991,16.3129348 9.80024573,18.1529348 9.30665598,20.0862681 L9.30665598,20.0862681 L12.227062,20.0862681 Z" id="7" fill="#343333" fill-rule="nonzero"></path>
                <rect id="Rectangle" fill="#FFFFFF" x="46.3333333" y="3.4024024" width="19" height="17"></rect>
                <g id="Icon_Espadas" transform="translate(48.000000, 4.729730)" fill="#343333">
                    <path d="M8.24364559,13.0423819 C7.43214384,11.3870373 5.6075368,10.0910356 4.89150571,9.87556405 C-3.18384924,7.44548946 0.364914047,0.27027027 4.00274258,0.27027027 C6.65807139,0.27027027 8.10643256,1.4001077 8.34782609,3.65978256 L8.34782609,3.65978256 C8.57835396,1.4001077 9.9615212,0.27027027 12.4973278,0.27027027 C15.9714097,0.27027027 18.792595,7.35275876 11.0807295,9.78283334 C10.3658467,10.008099 9.06169707,11.5070881 8.34782609,13.2702703 Z" id="Combined-Shape" transform="translate(8.000000, 6.770270) scale(1, -1) translate(-8.000000, -6.770270) "></path>
                    <path d="M8.25328175,13.2702703 C6.70030104,15.9369369 5.06754556,17.2702703 3.35501531,17.2702703 C0.786219942,17.2702703 13,17.2702703 13,17.2702703 C11.8884078,17.2702703 10.3061684,15.9369369 8.25328175,13.2702703 Z" id="Path-7"></path>
                </g>
                <path d="M6.33333333,64.4963012 C13.469184,53.6516053 23.3580729,48.2292573 36,48.2292573 C48.6419271,48.2292573 57.8641493,53.6516053 63.6666667,64.4963012 L63.6666667,87.8574939 C63.6666667,91.1712024 60.9803752,93.8574939 57.6666667,93.8574939 L12.3333333,93.8574939 C9.01962483,93.8574939 6.33333333,91.1712024 6.33333333,87.8574939 L6.33333333,64.4963012 L6.33333333,64.4963012 Z" id="Path-114" fill="#343333"></path>
                <path d="M6.33333333,59.7187964 C13.6349826,50.2391019 23.5238715,45.4992546 36,45.4992546 C48.4761285,45.4992546 57.6983507,50.2391019 63.6666667,59.7187964" id="Path-115" stroke="#343333"></path>
                <path d="M21,79.8333247 L28.9766556,88.5124659 L26.976213,89.2536869 L31.4823343,94 L56,94 C60.418278,94 64,90.418278 64,86 L64,79.9782922 L64,79.9782922 L48.8274085,64 L21,79.8333247 Z" id="Path-117" fill="#1D1D1D"></path>
                <g id="Icon" transform="translate(18.000000, 53.000000)" fill="#FFFFFF">
                    <path d="M18.6442564,30.669869 C16.8704484,26.620945 12.6458646,23.4279672 11.0058879,22.9049313 C-7.16366079,17.1101381 0.821056605,1.77635684e-15 9.0061708,1.77635684e-15 C14.9806606,1.77635684e-15 18.2394733,2.69422772 18.7826087,8.08268316 L18.7826087,8.08268316 C19.3012964,2.69422772 22.4134227,1.77635684e-15 28.1189876,1.77635684e-15 C35.9356718,1.77635684e-15 42.2833387,16.889011 24.9316414,22.6838043 C23.3231551,23.2209762 20.3888184,26.7954887 18.7826087,31 Z" id="Combined-Shape" transform="translate(18.000000, 15.500000) scale(1, -1) translate(-18.000000, -15.500000) "></path>
                    <path d="M18.6078762,31 C14.8807225,35.6666667 10.9621093,38 6.85203675,38 C0.686927862,38 30,38 30,38 C27.3321788,38 23.5348042,35.6666667 18.6078762,31 Z" id="Path-7"></path>
                    <path d="M27,13 C31,14.6732891 33,17.2790013 33,20.8171364 C33,26.1243392 29.585567,28 27.3092784,28 C31.4824742,23.2114243 31.3793814,18.2114243 27,13 Z" id="Path-110"></path>
                </g>
            </g>
        </g>
    </g>
</svg>