<?xml version="1.0" encoding="UTF-8"?>
<svg width="72px" height="102px" viewBox="0 0 72 102" version="1.1" xmlns="http://www.w3.org/2000/svg" xmlns:xlink="http://www.w3.org/1999/xlink">
    <!-- Generator: Sketch 61.2 (89653) - https://sketch.com -->
    <title>08_P</title>
    <desc>Created with Sketch.</desc>
    <g id="Page-1" stroke="none" stroke-width="1" fill="none" fill-rule="evenodd">
        <g id="03_Paus" transform="translate(1.000000, -680.000000)">
            <g id="08_P" transform="translate(0.000000, 681.000000)">
                <rect id="Rectangle" stroke="#B0B0B0" fill="#FFFFFF" x="0" y="0.354900355" width="70" height="99.6450996" rx="9"></rect>
                <path d="M24.0161133,6.4974065 L57.6666667,6.4974065 C60.9803752,6.4974065 63.6666667,9.24750017 63.6666667,12.6399126 L63.6666667,87.7149877 C63.6666667,91.1074002 60.9803752,93.8574939 57.6666667,93.8574939 L12.3333333,93.8574939 C9.01962483,93.8574939 6.33333333,91.1074002 6.33333333,87.7149877 L6.33333333,36.277324" id="Rectangle" stroke="#343333"></path>
                <path d="M11.7540486,20 C12.54639,20 13.2445597,19.9065378 13.8485577,19.7196133 C14.4525557,19.5326888 14.9591346,19.2748619 15.3682945,18.9461326 C15.7774545,18.6174033 16.0891953,18.2338858 16.3035172,17.7955801 C16.5178391,17.3572744 16.625,16.8867403 16.625,16.3839779 C16.625,15.9585635 16.5568067,15.5653775 16.42042,15.2044199 C16.2840334,14.8434622 16.0794534,14.5018416 15.8066802,14.179558 C15.5339069,13.8572744 15.1929403,13.5478821 14.7837804,13.2513812 C14.3746204,12.9548803 13.8907726,12.6583794 13.3322368,12.3618785 C14.1245783,12.1169429 14.7805331,11.7108656 15.3001012,11.1436464 C15.8196694,10.5764273 16.0794534,9.90607735 16.0794534,9.13259669 C16.0794534,8.66850829 15.9820344,8.24309392 15.7871964,7.85635359 C15.5923583,7.46961326 15.3130904,7.14088398 14.9493927,6.87016575 C14.585695,6.59944751 14.1473094,6.38674033 13.6342358,6.2320442 C13.1211623,6.07734807 12.5528846,6 11.9294028,6 C11.2539642,6 10.646719,6.08701657 10.107667,6.26104972 C9.56861505,6.43508287 9.11074561,6.67679558 8.7340587,6.98618785 C8.35737179,7.29558011 8.06836201,7.65976059 7.86702935,8.07872928 C7.66569669,8.49769797 7.56503036,8.95856354 7.56503036,9.46132597 C7.56503036,10.247698 7.80533063,10.9406077 8.28593117,11.5400552 C8.76653171,12.1395028 9.3965081,12.6583794 10.1758603,13.0966851 C9.22764845,13.393186 8.46128543,13.8476059 7.87677126,14.4599448 C7.29225709,15.0722836 7,15.8296501 7,16.7320442 C7,17.1961326 7.11040823,17.6279926 7.3312247,18.0276243 C7.55204116,18.427256 7.86702935,18.7720994 8.27618927,19.0621547 C8.68534919,19.3522099 9.18543354,19.5810313 9.77644231,19.7486188 C10.3674511,19.9162063 11.0266532,20 11.7540486,20 Z M12.4597953,11.7647059 C11.7968648,11.4016807 11.2558886,10.9747899 10.8368665,10.4840336 C10.4178444,9.99327731 10.2083333,9.42521008 10.2083333,8.77983193 C10.2083333,8.22857143 10.3365416,7.76470588 10.5929581,7.38823529 C10.8493746,7.01176471 11.2590156,6.82352941 11.8218811,6.82352941 C12.2971897,6.82352941 12.6818145,7.01512605 12.9757554,7.39831933 C13.2696962,7.78151261 13.4166667,8.36302521 13.4166667,9.14285714 C13.4166667,9.69411765 13.344745,10.1815126 13.2009016,10.605042 C13.0570582,11.0285714 12.8100227,11.4151261 12.4597953,11.7647059 Z M11.5249607,18.3529412 C11.1340081,18.3529412 10.8061124,18.2794664 10.5412736,18.1325169 C10.2764347,17.9855675 10.0588886,17.7988192 9.88863502,17.572272 C9.71838149,17.3457249 9.5954206,17.0855019 9.51975236,16.7916029 C9.44408412,16.4977039 9.40625,16.2038049 9.40625,15.909906 C9.40625,15.4813033 9.48822393,15.0404548 9.65217178,14.5873606 C9.81611963,14.1342663 10.1187926,13.742401 10.5601906,13.4117647 C10.9385318,13.6321889 11.3011088,13.8434288 11.6479216,14.0454844 C11.9947343,14.2475399 12.2974073,14.4679641 12.5559404,14.7067571 C12.8144736,14.94555 13.0225613,15.2118959 13.1802034,15.5057949 C13.3378456,15.7996939 13.4166667,16.1548218 13.4166667,16.5711787 C13.4166667,16.8038487 13.3756797,17.0273344 13.2937058,17.2416357 C13.2117319,17.455937 13.0919238,17.6457468 12.9342816,17.8110649 C12.7766395,17.9763831 12.5811632,18.1080254 12.3478528,18.2059917 C12.1145424,18.303958 11.840245,18.3529412 11.5249607,18.3529412 Z" id="8" fill="#343333" fill-rule="nonzero"></path>
                <rect id="Rectangle" fill="#FFFFFF" x="46.3333333" y="3.4024024" width="19" height="17"></rect>
                <g id="Small_Icon" transform="translate(47.000000, 5.000000)" fill="#343333">
                    <path d="M8.62664087,13 C7.85015052,16.3333333 7.03377278,18 6.17750766,18 C4.89310997,18 11,18 11,18 C10.4442039,18 9.65308421,16.3333333 8.62664087,13 Z" id="Path-7"></path>
                    <path d="M4.59152968,2.40631429 C5.54868186,-0.802104762 11.3716789,-0.802104762 12.4685359,2.40631429 C12.9154036,3.71344797 12.7514443,4.96376984 11.9766581,6.1572799 C12.7874437,5.96851203 13.6227319,5.98454424 14.4814459,6.20427712 C17.839518,7.06356065 17.839518,13.3479056 14.4814459,14.7113203 C12.3424112,15.5797923 10.3487332,14.488713 8.50041211,11.4380826 C6.65126677,14.488713 4.65758884,15.5797923 2.51855409,14.7113203 C-0.83951803,13.3479056 -0.83951803,7.06356065 2.51855409,6.20427712 C3.4298893,5.97107923 4.31483957,5.96731208 5.17340491,6.19297567 C4.39148654,4.9896868 4.19753634,3.72699844 4.59152968,2.40631429 Z" id="Combined-Shape"></path>
                </g>
                <path d="M6.33333333,64.4963012 C13.469184,53.6516053 23.3580729,48.2292573 36,48.2292573 C48.6419271,48.2292573 57.8641493,53.6516053 63.6666667,64.4963012 L63.6666667,87.8574939 C63.6666667,91.1712024 60.9803752,93.8574939 57.6666667,93.8574939 L12.3333333,93.8574939 C9.01962483,93.8574939 6.33333333,91.1712024 6.33333333,87.8574939 L6.33333333,64.4963012 L6.33333333,64.4963012 Z" id="Path-114" fill="#343333"></path>
                <path d="M6.33333333,59.7187964 C13.6349826,50.2391019 23.5238715,45.4992546 36,45.4992546 C48.4761285,45.4992546 57.6983507,50.2391019 63.6666667,59.7187964" id="Path-115" stroke="#343333"></path>
                <path d="M20.429362,82.0540541 L30.8925781,93.5675676 L56,93.5675676 C60.418278,93.5675676 64,89.9858456 64,85.5675676 L64,79.6550425 L64,79.6550425 L44.6666667,57.099583 L20.429362,82.0540541 Z" id="Path-117" fill="#1D1D1D"></path>
                <g id="Icon_Paus-Copy-3" transform="translate(18.000000, 53.000000)">
                    <path d="M18.5528442,29.0540541 C17.2069276,34.9099099 15.7918728,37.8378378 14.3076799,37.8378378 C12.0813906,37.8378378 22.6666667,37.8378378 22.6666667,37.8378378 C21.7032868,37.8378378 20.3320126,34.9099099 18.5528442,29.0540541 Z" id="Path-7" fill="#FFFFFF"></path>
                    <path d="M9.9032993,5.09444916 C11.9677452,-1.69814972 24.5271506,-1.69814972 26.8929206,5.09444916 C27.8564346,7.86089077 27.5033484,10.5071345 25.8336621,13.0331804 C27.5830272,12.6360819 29.3835277,12.6702736 31.2344912,13.1351813 C38.4773918,14.9543852 38.4773918,28.2590794 31.2344912,31.145588 C26.6205426,32.984382 22.3201556,30.6739576 18.33333,24.2143149 C14.3465111,30.6739576 10.046124,32.984382 5.43217549,31.145588 C-1.81072516,28.2590794 -1.81072516,14.9543852 5.43217549,13.1351813 C7.39761241,12.6415213 9.30615153,12.6335001 11.1577929,13.1111177 C9.47156269,10.5620185 9.05378518,7.88958598 9.9032993,5.09444916 Z" id="Combined-Shape" fill="#FFFFFF"></path>
                    <path d="M26.6666667,15.7491798 C30.009662,15.0786063 32.2477406,16.0244669 33.3809024,18.5867615 C35.080645,22.4302034 32.9101892,26.9584203 31.3149837,27.7027027 C33.1345994,21.6254086 31.5851604,17.6409009 26.6666667,15.7491798 Z" id="Path-111" fill="#343333"></path>
                </g>
            </g>
        </g>
    </g>
</svg>