<?xml version="1.0" encoding="UTF-8"?>
<svg width="72px" height="102px" viewBox="0 0 72 102" version="1.1" xmlns="http://www.w3.org/2000/svg" xmlns:xlink="http://www.w3.org/1999/xlink">
    <!-- Generator: Sketch 61.2 (89653) - https://sketch.com -->
    <title>09_E</title>
    <desc>Created with Sketch.</desc>
    <g id="Page-1" stroke="none" stroke-width="1" fill="none" fill-rule="evenodd">
        <g id="03_Espadas" transform="translate(1.000000, -795.000000)">
            <g id="09_E" transform="translate(0.000000, 796.000000)">
                <rect id="Rectangle" stroke="#B0B0B0" fill="#FFFFFF" x="0" y="0.354900355" width="70" height="99.6450996" rx="9"></rect>
                <path d="M24.0161133,6.4974065 L57.6666667,6.4974065 C60.9803752,6.4974065 63.6666667,9.24750017 63.6666667,12.6399126 L63.6666667,87.7149877 C63.6666667,91.1074002 60.9803752,93.8574939 57.6666667,93.8574939 L12.3333333,93.8574939 C9.01962483,93.8574939 6.33333333,91.1074002 6.33333333,87.7149877 L6.33333333,36.277324" id="Rectangle" stroke="#343333"></path>
                <path d="M9.06947262,20 C10.18881,19.8839779 11.2137847,19.5842541 12.1443966,19.1008287 C13.0750085,18.6174033 13.872211,17.9921731 14.5360041,17.2251381 C15.1997972,16.4581031 15.7139114,15.5686004 16.0783469,14.5566298 C16.4427823,13.5446593 16.625,12.4392265 16.625,11.2403315 C16.625,10.4539595 16.5176217,9.73526703 16.3028651,9.08425414 C16.0881085,8.43324125 15.7724814,7.88213628 15.3559838,7.43093923 C14.9394861,6.97974217 14.4318796,6.62845304 13.8331643,6.37707182 C13.234449,6.12569061 12.5576403,6 11.8027383,6 C11.086883,6 10.4361055,6.10957643 9.85040568,6.32872928 C9.26470588,6.54788214 8.76035328,6.85405157 8.33734787,7.24723757 C7.91434246,7.64042357 7.5856998,8.10773481 7.35141988,8.64917127 C7.11713996,9.19060773 7,9.79005525 7,10.4475138 C7,11.1049724 7.1073783,11.6850829 7.32213489,12.1878453 C7.53689148,12.6906077 7.82974138,13.1127993 8.20068458,13.4544199 C8.57162779,13.7960405 9.00114097,14.0506446 9.48922414,14.218232 C9.9773073,14.3858195 10.5011832,14.4696133 11.0608519,14.4696133 C11.6986139,14.4696133 12.219236,14.3664825 12.6227181,14.160221 C13.0262001,13.9539595 13.3515889,13.6896869 13.5988844,13.3674033 C13.3906356,14.8370166 12.8830291,16.0745856 12.0760649,17.0801105 C11.2691007,18.0856354 10.1172245,18.781768 8.62043611,19.1685083 L8.62043611,19.1685083 L9.06947262,20 Z M11.5245726,12.5882353 C11.1680912,12.5882353 10.8595976,12.5162547 10.5990919,12.3722935 C10.3385862,12.2283324 10.119213,12.0311682 9.94097222,11.7808009 C9.76273148,11.5304337 9.62905093,11.2425113 9.53993056,10.9170339 C9.45081019,10.5915565 9.40625,10.2473015 9.40625,9.88426902 C9.40625,8.8577633 9.55706909,8.0910136 9.85870726,7.58401993 C10.1603454,7.07702625 10.6539352,6.82352941 11.3394765,6.82352941 C11.7233796,6.82352941 12.045584,6.92367631 12.3060897,7.12397011 C12.5665954,7.32426391 12.7791132,7.59027911 12.9436432,7.92201571 C13.1081731,8.25375232 13.2281428,8.64182155 13.3035524,9.08622341 C13.3789619,9.53062528 13.4166667,9.99693428 13.4166667,10.4851504 C13.4166667,10.7104809 13.4098113,10.9420706 13.3961004,11.1799195 C13.3823896,11.4177684 13.3618234,11.6180622 13.3344017,11.7808009 C13.1698718,12.0311682 12.9299323,12.2283324 12.6145833,12.3722935 C12.2992343,12.5162547 11.9358974,12.5882353 11.5245726,12.5882353 Z" id="9" fill="#343333" fill-rule="nonzero"></path>
                <rect id="Rectangle" fill="#FFFFFF" x="46.3333333" y="3.4024024" width="19" height="17"></rect>
                <g id="Icon_Espadas" transform="translate(48.000000, 4.729730)" fill="#343333">
                    <path d="M8.24364559,13.0423819 C7.43214384,11.3870373 5.6075368,10.0910356 4.89150571,9.87556405 C-3.18384924,7.44548946 0.364914047,0.27027027 4.00274258,0.27027027 C6.65807139,0.27027027 8.10643256,1.4001077 8.34782609,3.65978256 L8.34782609,3.65978256 C8.57835396,1.4001077 9.9615212,0.27027027 12.4973278,0.27027027 C15.9714097,0.27027027 18.792595,7.35275876 11.0807295,9.78283334 C10.3658467,10.008099 9.06169707,11.5070881 8.34782609,13.2702703 Z" id="Combined-Shape" transform="translate(8.000000, 6.770270) scale(1, -1) translate(-8.000000, -6.770270) "></path>
                    <path d="M8.25328175,13.2702703 C6.70030104,15.9369369 5.06754556,17.2702703 3.35501531,17.2702703 C0.786219942,17.2702703 13,17.2702703 13,17.2702703 C11.8884078,17.2702703 10.3061684,15.9369369 8.25328175,13.2702703 Z" id="Path-7"></path>
                </g>
                <path d="M6.33333333,64.4963012 C13.469184,53.6516053 23.3580729,48.2292573 36,48.2292573 C48.6419271,48.2292573 57.8641493,53.6516053 63.6666667,64.4963012 L63.6666667,87.8574939 C63.6666667,91.1712024 60.9803752,93.8574939 57.6666667,93.8574939 L12.3333333,93.8574939 C9.01962483,93.8574939 6.33333333,91.1712024 6.33333333,87.8574939 L6.33333333,64.4963012 L6.33333333,64.4963012 Z" id="Path-114" fill="#343333"></path>
                <path d="M6.33333333,59.7187964 C13.6349826,50.2391019 23.5238715,45.4992546 36,45.4992546 C48.4761285,45.4992546 57.6983507,50.2391019 63.6666667,59.7187964" id="Path-115" stroke="#343333"></path>
                <path d="M21,79.8333247 L28.9766556,88.5124659 L26.976213,89.2536869 L31.4823343,94 L56,94 C60.418278,94 64,90.418278 64,86 L64,79.9782922 L64,79.9782922 L48.8274085,64 L21,79.8333247 Z" id="Path-117" fill="#1D1D1D"></path>
                <g id="Icon" transform="translate(18.000000, 53.000000)" fill="#FFFFFF">
                    <path d="M18.6442564,30.669869 C16.8704484,26.620945 12.6458646,23.4279672 11.0058879,22.9049313 C-7.16366079,17.1101381 0.821056605,1.77635684e-15 9.0061708,1.77635684e-15 C14.9806606,1.77635684e-15 18.2394733,2.69422772 18.7826087,8.08268316 L18.7826087,8.08268316 C19.3012964,2.69422772 22.4134227,1.77635684e-15 28.1189876,1.77635684e-15 C35.9356718,1.77635684e-15 42.2833387,16.889011 24.9316414,22.6838043 C23.3231551,23.2209762 20.3888184,26.7954887 18.7826087,31 Z" id="Combined-Shape" transform="translate(18.000000, 15.500000) scale(1, -1) translate(-18.000000, -15.500000) "></path>
                    <path d="M18.6078762,31 C14.8807225,35.6666667 10.9621093,38 6.85203675,38 C0.686927862,38 30,38 30,38 C27.3321788,38 23.5348042,35.6666667 18.6078762,31 Z" id="Path-7"></path>
                    <path d="M27,13 C31,14.6732891 33,17.2790013 33,20.8171364 C33,26.1243392 29.585567,28 27.3092784,28 C31.4824742,23.2114243 31.3793814,18.2114243 27,13 Z" id="Path-110"></path>
                </g>
            </g>
        </g>
    </g>
</svg>