<?xml version="1.0" encoding="UTF-8"?>
<svg width="72px" height="102px" viewBox="0 0 72 102" version="1.1" xmlns="http://www.w3.org/2000/svg" xmlns:xlink="http://www.w3.org/1999/xlink">
    <!-- Generator: Sketch 61.2 (89653) - https://sketch.com -->
    <title>010_P</title>
    <desc>Created with Sketch.</desc>
    <g id="Page-1" stroke="none" stroke-width="1" fill="none" fill-rule="evenodd">
        <g id="03_Paus" transform="translate(1.000000, -908.000000)">
            <g id="010_P" transform="translate(0.000000, 909.000000)">
                <rect id="Rectangle" stroke="#B0B0B0" fill="#FFFFFF" x="0" y="0.354900355" width="70" height="99.6450996" rx="9"></rect>
                <path d="M40.0161133,6.4974065 L57.6666667,6.4974065 C60.9803752,6.4974065 63.6666667,9.24750017 63.6666667,12.6399126 L63.6666667,87.7149877 C63.6666667,91.1074002 60.9803752,93.8574939 57.6666667,93.8574939 L12.3333333,93.8574939 C9.01962483,93.8574939 6.33333333,91.1074002 6.33333333,87.7149877 L6.33333333,36.277324" id="Rectangle" stroke="#343333"></path>
                <path d="M13,20 L13,19.1544944 C12.6803653,19.0102996 12.3607306,18.8824906 12.0410959,18.7710674 C11.7214612,18.6596442 11.4018265,18.5646067 11.0821918,18.4859551 L11.0821918,18.4859551 L11.0821918,6 L10.430137,6 C9.75251142,6.41947566 9.01415525,6.78651685 8.21506849,7.1011236 C7.41598174,7.41573034 6.67762557,7.66479401 6,7.84831461 L6,7.84831461 L6.09589041,8.5758427 C6.50502283,8.58895131 6.90136986,8.5758427 7.28493151,8.53651685 C7.66849315,8.49719101 8.03926941,8.41853933 8.39726027,8.3005618 L8.39726027,8.3005618 L8.32054795,9.46067416 L8.32054795,18.4859551 C7.98812785,18.5646067 7.65890411,18.6596442 7.33287671,18.7710674 C7.00684932,18.8824906 6.68401826,19.0102996 6.36438356,19.1544944 L6.36438356,19.1544944 L6.36438356,20 L13,20 Z M20.3169557,20 C21.0340398,20 21.6954881,19.8517495 22.3013006,19.5552486 C22.907113,19.2587477 23.4294717,18.8172192 23.8683767,18.230663 C24.3072816,17.6441068 24.6472784,16.9157459 24.8883671,16.0455801 C25.1294557,15.1754144 25.25,14.160221 25.25,13 C25.25,10.6666667 24.8172768,8.91666667 23.9518304,7.75 C23.0863841,6.58333333 21.9118497,6 20.4282274,6 C19.7358703,6 19.0960581,6.14825046 18.5087909,6.44475138 C17.9215238,6.7412523 17.4146195,7.18278085 16.988078,7.76933702 C16.5615366,8.35589319 16.2277216,9.08425414 15.9866329,9.95441989 C15.7455443,10.8245856 15.625,11.839779 15.625,13 C15.625,14.1086556 15.726999,15.0948435 15.9309971,15.9585635 C16.1349952,16.8222836 16.4379014,17.5538674 16.8397158,18.1533149 C17.2415302,18.7527624 17.7329801,19.2104052 18.3140655,19.5262431 C18.8951509,19.842081 19.562781,20 20.3169557,20 Z M20.2876712,19.125 C19.8881279,19.125 19.5585046,18.985342 19.2988014,18.7060261 C19.0390982,18.4267101 18.8293379,18.0243621 18.6695205,17.4989821 C18.5097032,16.9736021 18.3998288,16.3318404 18.3398973,15.5736971 C18.2799658,14.8155537 18.25,13.9576547 18.25,13 C18.25,11.9093377 18.2832953,10.9749593 18.3498858,10.1968648 C18.4164764,9.41877036 18.5330099,8.78365907 18.6994863,8.29153094 C18.8659627,7.79940282 19.0890411,7.4402823 19.3687215,7.21416938 C19.6484018,6.98805646 20.0013318,6.875 20.4275114,6.875 C20.9069635,6.875 21.2898592,7.01465798 21.5761986,7.29397394 C21.8625381,7.5732899 22.0822869,7.97563789 22.2354452,8.50101792 C22.3886035,9.02639794 22.4918189,9.66815961 22.5450913,10.4263029 C22.5983638,11.1844463 22.625,12.0423453 22.625,13 C22.625,14.1039631 22.5917047,15.0416667 22.5251142,15.8131107 C22.4585236,16.5845548 22.3353311,17.2163409 22.1555365,17.7084691 C21.975742,18.2005972 21.736016,18.5597177 21.4363584,18.7858306 C21.1367009,19.0119435 20.7538052,19.125 20.2876712,19.125 Z" id="10" fill="#343333" fill-rule="nonzero"></path>
                <rect id="Rectangle" fill="#FFFFFF" x="46.3333333" y="3.4024024" width="19" height="17"></rect>
                <g id="Small_Icon" transform="translate(47.000000, 5.000000)" fill="#343333">
                    <path d="M8.62664087,13 C7.85015052,16.3333333 7.03377278,18 6.17750766,18 C4.89310997,18 11,18 11,18 C10.4442039,18 9.65308421,16.3333333 8.62664087,13 Z" id="Path-7"></path>
                    <path d="M4.59152968,2.40631429 C5.54868186,-0.802104762 11.3716789,-0.802104762 12.4685359,2.40631429 C12.9154036,3.71344797 12.7514443,4.96376984 11.9766581,6.1572799 C12.7874437,5.96851203 13.6227319,5.98454424 14.4814459,6.20427712 C17.839518,7.06356065 17.839518,13.3479056 14.4814459,14.7113203 C12.3424112,15.5797923 10.3487332,14.488713 8.50041211,11.4380826 C6.65126677,14.488713 4.65758884,15.5797923 2.51855409,14.7113203 C-0.83951803,13.3479056 -0.83951803,7.06356065 2.51855409,6.20427712 C3.4298893,5.97107923 4.31483957,5.96731208 5.17340491,6.19297567 C4.39148654,4.9896868 4.19753634,3.72699844 4.59152968,2.40631429 Z" id="Combined-Shape"></path>
                </g>
                <path d="M6.33333333,64.4963012 C13.469184,53.6516053 23.3580729,48.2292573 36,48.2292573 C48.6419271,48.2292573 57.8641493,53.6516053 63.6666667,64.4963012 L63.6666667,87.8574939 C63.6666667,91.1712024 60.9803752,93.8574939 57.6666667,93.8574939 L12.3333333,93.8574939 C9.01962483,93.8574939 6.33333333,91.1712024 6.33333333,87.8574939 L6.33333333,64.4963012 L6.33333333,64.4963012 Z" id="Path-114" fill="#343333"></path>
                <path d="M6.33333333,59.7187964 C13.6349826,50.2391019 23.5238715,45.4992546 36,45.4992546 C48.4761285,45.4992546 57.6983507,50.2391019 63.6666667,59.7187964" id="Path-115" stroke="#343333"></path>
                <path d="M20.429362,82.0540541 L30.8925781,93.5675676 L56,93.5675676 C60.418278,93.5675676 64,89.9858456 64,85.5675676 L64,79.6550425 L64,79.6550425 L44.6666667,57.099583 L20.429362,82.0540541 Z" id="Path-117" fill="#1D1D1D"></path>
                <g id="Icon_Paus-Copy-3" transform="translate(18.000000, 53.000000)">
                    <path d="M18.5528442,29.0540541 C17.2069276,34.9099099 15.7918728,37.8378378 14.3076799,37.8378378 C12.0813906,37.8378378 22.6666667,37.8378378 22.6666667,37.8378378 C21.7032868,37.8378378 20.3320126,34.9099099 18.5528442,29.0540541 Z" id="Path-7" fill="#FFFFFF"></path>
                    <path d="M9.9032993,5.09444916 C11.9677452,-1.69814972 24.5271506,-1.69814972 26.8929206,5.09444916 C27.8564346,7.86089077 27.5033484,10.5071345 25.8336621,13.0331804 C27.5830272,12.6360819 29.3835277,12.6702736 31.2344912,13.1351813 C38.4773918,14.9543852 38.4773918,28.2590794 31.2344912,31.145588 C26.6205426,32.984382 22.3201556,30.6739576 18.33333,24.2143149 C14.3465111,30.6739576 10.046124,32.984382 5.43217549,31.145588 C-1.81072516,28.2590794 -1.81072516,14.9543852 5.43217549,13.1351813 C7.39761241,12.6415213 9.30615153,12.6335001 11.1577929,13.1111177 C9.47156269,10.5620185 9.05378518,7.88958598 9.9032993,5.09444916 Z" id="Combined-Shape" fill="#FFFFFF"></path>
                    <path d="M26.6666667,15.7491798 C30.009662,15.0786063 32.2477406,16.0244669 33.3809024,18.5867615 C35.080645,22.4302034 32.9101892,26.9584203 31.3149837,27.7027027 C33.1345994,21.6254086 31.5851604,17.6409009 26.6666667,15.7491798 Z" id="Path-111" fill="#343333"></path>
                </g>
            </g>
        </g>
    </g>
</svg>