<?xml version="1.0" encoding="UTF-8"?>
<svg width="72px" height="102px" viewBox="0 0 72 102" version="1.1" xmlns="http://www.w3.org/2000/svg" xmlns:xlink="http://www.w3.org/1999/xlink">
    <!-- Generator: Sketch 61.2 (89653) - https://sketch.com -->
    <title>010_O</title>
    <desc>Created with Sketch.</desc>
    <g id="Page-1" stroke="none" stroke-width="1" fill="none" fill-rule="evenodd">
        <g id="03_Ouros" transform="translate(1.000000, -908.000000)">
            <g id="010_O" transform="translate(0.000000, 909.000000)">
                <rect id="Rectangle" stroke="#B0B0B0" fill="#FFFFFF" x="0" y="0.354900355" width="70" height="99.6450996" rx="9"></rect>
                <path d="M40.0161133,6.4974065 L57.6666667,6.4974065 C60.9803752,6.4974065 63.6666667,9.24750017 63.6666667,12.6399126 L63.6666667,87.7149877 C63.6666667,91.1074002 60.9803752,93.8574939 57.6666667,93.8574939 L12.3333333,93.8574939 C9.01962483,93.8574939 6.33333333,91.1074002 6.33333333,87.7149877 L6.33333333,36.277324" id="Rectangle" stroke="#FF4A4A"></path>
                <path d="M13.875,20 L13.875,19.1544944 C13.515411,19.0102996 13.1558219,18.8824906 12.7962329,18.7710674 C12.4366438,18.6596442 12.0770548,18.5646067 11.7174658,18.4859551 L11.7174658,18.4859551 L11.7174658,6 L10.9839041,6 C10.2215753,6.41947566 9.39092466,6.78651685 8.49195205,7.1011236 C7.59297945,7.41573034 6.76232877,7.66479401 6,7.84831461 L6,7.84831461 L6.10787671,8.5758427 C6.56815068,8.58895131 7.0140411,8.5758427 7.44554795,8.53651685 C7.87705479,8.49719101 8.29417808,8.41853933 8.69691781,8.3005618 L8.69691781,8.3005618 L8.61061644,9.46067416 L8.61061644,18.4859551 C8.23664384,18.5646067 7.86626712,18.6596442 7.4994863,18.7710674 C7.13270548,18.8824906 6.76952055,19.0102996 6.40993151,19.1544944 L6.40993151,19.1544944 L6.40993151,20 L13.875,20 Z M20.7434971,20 C21.5257707,20 22.2473507,19.8517495 22.908237,19.5552486 C23.5691233,19.2587477 24.1389692,18.8172192 24.6177746,18.230663 C25.09658,17.6441068 25.4674855,16.9157459 25.7304913,16.0455801 C25.9934971,15.1754144 26.125,14.160221 26.125,13 C26.125,10.6666667 25.6529383,8.91666667 24.708815,7.75 C23.7646917,6.58333333 22.4833815,6 20.8648844,6 C20.1095857,6 19.4116089,6.14825046 18.7709538,6.44475138 C18.1302987,6.7412523 17.5773121,7.18278085 17.1119942,7.76933702 C16.6466763,8.35589319 16.2825145,9.08425414 16.0195087,9.95441989 C15.7565029,10.8245856 15.625,11.839779 15.625,13 C15.625,14.1086556 15.7362717,15.0948435 15.958815,15.9585635 C16.1813584,16.8222836 16.5118015,17.5538674 16.9501445,18.1533149 C17.3884875,18.7527624 17.9246146,19.2104052 18.558526,19.5262431 C19.1924374,19.842081 19.9207611,20 20.7434971,20 Z M20.2876712,18.25 C19.8881279,18.25 19.5585046,18.1203176 19.2988014,17.8609528 C19.0390982,17.6015879 18.8293379,17.2279791 18.6695205,16.7401262 C18.5097032,16.2522733 18.3998288,15.6563518 18.3398973,14.9523616 C18.2799658,14.2483713 18.25,13.4517508 18.25,12.5625 C18.25,11.5497421 18.2832953,10.682105 18.3498858,9.95958876 C18.4164764,9.23707248 18.5330099,8.64732628 18.6994863,8.19035016 C18.8659627,7.73337405 19.0890411,7.39990499 19.3687215,7.189943 C19.6484018,6.979981 20.0013318,6.875 20.4275114,6.875 C20.9069635,6.875 21.2898592,7.00468241 21.5761986,7.26404723 C21.8625381,7.52341205 22.0822869,7.8970209 22.2354452,8.38487378 C22.3886035,8.87272666 22.4918189,9.46864821 22.5450913,10.1726384 C22.5983638,10.8766287 22.625,11.6732492 22.625,12.5625 C22.625,13.5876086 22.5917047,14.4583333 22.5251142,15.1746743 C22.4585236,15.8910152 22.3353311,16.4776737 22.1555365,16.9346498 C21.975742,17.391626 21.736016,17.725095 21.4363584,17.935057 C21.1367009,18.145019 20.7538052,18.25 20.2876712,18.25 Z" id="10" fill="#FF4141" fill-rule="nonzero"></path>
                <rect id="Rectangle" fill="#FFFFFF" x="51.3333333" y="3.55391755" width="14" height="14"></rect>
                <polygon id="Small_Icon" fill="#FF4A4A" transform="translate(56.500000, 15.000000) rotate(-360.000000) translate(-56.500000, -15.000000) " points="56.5 5 61 15.1448916 56.6199707 25 52 15.1448916"></polygon>
                <path d="M6.33333333,64.4963012 C13.469184,53.6516053 23.3580729,48.2292573 36,48.2292573 C48.6419271,48.2292573 57.8641493,53.6516053 63.6666667,64.4963012 L63.6666667,87.8574939 C63.6666667,91.1712024 60.9803752,93.8574939 57.6666667,93.8574939 L12.3333333,93.8574939 C9.01962483,93.8574939 6.33333333,91.1712024 6.33333333,87.8574939 L6.33333333,64.4963012 L6.33333333,64.4963012 Z" id="Path-114" fill="#FF4A4A"></path>
                <path d="M6.33333333,59.7187964 C13.6349826,50.2391019 23.5238715,45.4992546 36,45.4992546 C48.4761285,45.4992546 57.6983507,50.2391019 63.6666667,59.7187964" id="Path-115" stroke="#FF4A4A"></path>
                <path d="M36.6640625,90 L40.3333333,93.8574939 L56.8032542,93.8574939 C60.5938123,93.8574939 63.6666667,90.7846394 63.6666667,86.9940814 L63.6666667,86.9940814 L63.6666667,86.9940814 L36.6640625,53.0126953 L36.6640625,90 Z" id="Path-117" fill="#DF3232"></path>
                <g id="Icon-Copy-9" transform="translate(27.000000, 52.000000)">
                    <polygon id="Triangle-Copy-2" fill="#FFFFFF" transform="translate(9.000000, 19.000000) rotate(-360.000000) translate(-9.000000, -19.000000) " points="9 0 18 19.2752941 9.23994141 38 0 19.2752941"></polygon>
                    <polygon id="Path-112" fill="#DF3232" points="9 5 16 19 13.7302669 19"></polygon>
                </g>
            </g>
        </g>
    </g>
</svg>