<?xml version="1.0" encoding="UTF-8"?>
<svg width="72px" height="102px" viewBox="0 0 72 102" version="1.1" xmlns="http://www.w3.org/2000/svg" xmlns:xlink="http://www.w3.org/1999/xlink">
    <!-- Generator: Sketch 61.2 (89653) - https://sketch.com -->
    <title>010_E</title>
    <desc>Created with Sketch.</desc>
    <g id="Page-1" stroke="none" stroke-width="1" fill="none" fill-rule="evenodd">
        <g id="03_Espadas" transform="translate(1.000000, -907.000000)">
            <g id="010_E" transform="translate(0.000000, 908.000000)">
                <rect id="Rectangle" stroke="#B0B0B0" fill="#FFFFFF" x="0" y="0.354900355" width="70" height="99.6450996" rx="9"></rect>
                <path d="M41.0161133,6.4974065 L57.6666667,6.4974065 C60.9803752,6.4974065 63.6666667,9.24750017 63.6666667,12.6399126 L63.6666667,87.7149877 C63.6666667,91.1074002 60.9803752,93.8574939 57.6666667,93.8574939 L12.3333333,93.8574939 C9.01962483,93.8574939 6.33333333,91.1074002 6.33333333,87.7149877 L6.33333333,36.277324" id="Rectangle" stroke="#343333"></path>
                <path d="M14,21 L14,20.1544944 C13.6803653,20.0102996 13.3607306,19.8824906 13.0410959,19.7710674 C12.7214612,19.6596442 12.4018265,19.5646067 12.0821918,19.4859551 L12.0821918,19.4859551 L12.0821918,7 L11.430137,7 C10.7525114,7.41947566 10.0141553,7.78651685 9.21506849,8.1011236 C8.41598174,8.41573034 7.67762557,8.66479401 7,8.84831461 L7,8.84831461 L7.09589041,9.5758427 C7.50502283,9.58895131 7.90136986,9.5758427 8.28493151,9.53651685 C8.66849315,9.49719101 9.03926941,9.41853933 9.39726027,9.3005618 L9.39726027,9.3005618 L9.32054795,10.4606742 L9.32054795,19.4859551 C8.98812785,19.5646067 8.65890411,19.6596442 8.33287671,19.7710674 C8.00684932,19.8824906 7.68401826,20.0102996 7.36438356,20.1544944 L7.36438356,20.1544944 L7.36438356,21 L14,21 Z M21.3169557,21 C22.0340398,21 22.6954881,20.8517495 23.3013006,20.5552486 C23.907113,20.2587477 24.4294717,19.8172192 24.8683767,19.230663 C25.3072816,18.6441068 25.6472784,17.9157459 25.8883671,17.0455801 C26.1294557,16.1754144 26.25,15.160221 26.25,14 C26.25,11.6666667 25.8172768,9.91666667 24.9518304,8.75 C24.0863841,7.58333333 22.9118497,7 21.4282274,7 C20.7358703,7 20.0960581,7.14825046 19.5087909,7.44475138 C18.9215238,7.7412523 18.4146195,8.18278085 17.988078,8.76933702 C17.5615366,9.35589319 17.2277216,10.0842541 16.9866329,10.9544199 C16.7455443,11.8245856 16.625,12.839779 16.625,14 C16.625,15.1086556 16.726999,16.0948435 16.9309971,16.9585635 C17.1349952,17.8222836 17.4379014,18.5538674 17.8397158,19.1533149 C18.2415302,19.7527624 18.7329801,20.2104052 19.3140655,20.5262431 C19.8951509,20.842081 20.562781,21 21.3169557,21 Z M21.2876712,20.125 C20.8881279,20.125 20.5585046,19.985342 20.2988014,19.7060261 C20.0390982,19.4267101 19.8293379,19.0243621 19.6695205,18.4989821 C19.5097032,17.9736021 19.3998288,17.3318404 19.3398973,16.5736971 C19.2799658,15.8155537 19.25,14.9576547 19.25,14 C19.25,12.9093377 19.2832953,11.9749593 19.3498858,11.1968648 C19.4164764,10.4187704 19.5330099,9.78365907 19.6994863,9.29153094 C19.8659627,8.79940282 20.0890411,8.4402823 20.3687215,8.21416938 C20.6484018,7.98805646 21.0013318,7.875 21.4275114,7.875 C21.9069635,7.875 22.2898592,8.01465798 22.5761986,8.29397394 C22.8625381,8.5732899 23.0822869,8.97563789 23.2354452,9.50101792 C23.3886035,10.0263979 23.4918189,10.6681596 23.5450913,11.4263029 C23.5983638,12.1844463 23.625,13.0423453 23.625,14 C23.625,15.1039631 23.5917047,16.0416667 23.5251142,16.8131107 C23.4585236,17.5845548 23.3353311,18.2163409 23.1555365,18.7084691 C22.975742,19.2005972 22.736016,19.5597177 22.4363584,19.7858306 C22.1367009,20.0119435 21.7538052,20.125 21.2876712,20.125 Z" id="10" fill="#343333" fill-rule="nonzero"></path>
                <rect id="Rectangle" fill="#FFFFFF" x="46.3333333" y="3.4024024" width="19" height="17"></rect>
                <g id="Icon_Espadas" transform="translate(48.000000, 4.729730)" fill="#343333">
                    <path d="M8.24364559,13.0423819 C7.43214384,11.3870373 5.6075368,10.0910356 4.89150571,9.87556405 C-3.18384924,7.44548946 0.364914047,0.27027027 4.00274258,0.27027027 C6.65807139,0.27027027 8.10643256,1.4001077 8.34782609,3.65978256 L8.34782609,3.65978256 C8.57835396,1.4001077 9.9615212,0.27027027 12.4973278,0.27027027 C15.9714097,0.27027027 18.792595,7.35275876 11.0807295,9.78283334 C10.3658467,10.008099 9.06169707,11.5070881 8.34782609,13.2702703 Z" id="Combined-Shape" transform="translate(8.000000, 6.770270) scale(1, -1) translate(-8.000000, -6.770270) "></path>
                    <path d="M8.25328175,13.2702703 C6.70030104,15.9369369 5.06754556,17.2702703 3.35501531,17.2702703 C0.786219942,17.2702703 13,17.2702703 13,17.2702703 C11.8884078,17.2702703 10.3061684,15.9369369 8.25328175,13.2702703 Z" id="Path-7"></path>
                </g>
                <path d="M6.33333333,64.4963012 C13.469184,53.6516053 23.3580729,48.2292573 36,48.2292573 C48.6419271,48.2292573 57.8641493,53.6516053 63.6666667,64.4963012 L63.6666667,87.8574939 C63.6666667,91.1712024 60.9803752,93.8574939 57.6666667,93.8574939 L12.3333333,93.8574939 C9.01962483,93.8574939 6.33333333,91.1712024 6.33333333,87.8574939 L6.33333333,64.4963012 L6.33333333,64.4963012 Z" id="Path-114" fill="#343333"></path>
                <path d="M6.33333333,59.7187964 C13.6349826,50.2391019 23.5238715,45.4992546 36,45.4992546 C48.4761285,45.4992546 57.6983507,50.2391019 63.6666667,59.7187964" id="Path-115" stroke="#343333"></path>
                <path d="M21,79.8333247 L28.9766556,88.5124659 L26.976213,89.2536869 L31.4823343,94 L56,94 C60.418278,94 64,90.418278 64,86 L64,79.9782922 L64,79.9782922 L48.8274085,64 L21,79.8333247 Z" id="Path-117" fill="#1D1D1D"></path>
                <g id="Icon" transform="translate(18.000000, 53.000000)" fill="#FFFFFF">
                    <path d="M18.6442564,30.669869 C16.8704484,26.620945 12.6458646,23.4279672 11.0058879,22.9049313 C-7.16366079,17.1101381 0.821056605,1.77635684e-15 9.0061708,1.77635684e-15 C14.9806606,1.77635684e-15 18.2394733,2.69422772 18.7826087,8.08268316 L18.7826087,8.08268316 C19.3012964,2.69422772 22.4134227,1.77635684e-15 28.1189876,1.77635684e-15 C35.9356718,1.77635684e-15 42.2833387,16.889011 24.9316414,22.6838043 C23.3231551,23.2209762 20.3888184,26.7954887 18.7826087,31 Z" id="Combined-Shape" transform="translate(18.000000, 15.500000) scale(1, -1) translate(-18.000000, -15.500000) "></path>
                    <path d="M18.6078762,31 C14.8807225,35.6666667 10.9621093,38 6.85203675,38 C0.686927862,38 30,38 30,38 C27.3321788,38 23.5348042,35.6666667 18.6078762,31 Z" id="Path-7"></path>
                    <path d="M27,13 C31,14.6732891 33,17.2790013 33,20.8171364 C33,26.1243392 29.585567,28 27.3092784,28 C31.4824742,23.2114243 31.3793814,18.2114243 27,13 Z" id="Path-110"></path>
                </g>
            </g>
        </g>
    </g>
</svg>