<?xml version="1.0" encoding="UTF-8"?>
<svg width="72px" height="102px" viewBox="0 0 72 102" version="1.1" xmlns="http://www.w3.org/2000/svg" xmlns:xlink="http://www.w3.org/1999/xlink">
    <!-- Generator: Sketch 61.2 (89653) - https://sketch.com -->
    <title>J_P</title>
    <desc>Created with Sketch.</desc>
    <defs>
        <linearGradient x1="35.6911859%" y1="7.80924479%" x2="66.3516115%" y2="99.8063197%" id="linearGradient-1">
            <stop stop-color="#FFF3AC" offset="0%"></stop>
            <stop stop-color="#FFF841" offset="20.8482897%"></stop>
            <stop stop-color="#FFEAAE" offset="53.2173775%"></stop>
            <stop stop-color="#937E00" offset="100%"></stop>
        </linearGradient>
        <linearGradient x1="70.977085%" y1="71.4846577%" x2="47.2414196%" y2="53.2670625%" id="linearGradient-2">
            <stop stop-color="#FFFFFF" offset="0%"></stop>
            <stop stop-color="#C0C0C0" offset="100%"></stop>
        </linearGradient>
        <linearGradient x1="0%" y1="4.32180649%" x2="62.4076092%" y2="114.949548%" id="linearGradient-3">
            <stop stop-color="#FFF3AC" offset="0%"></stop>
            <stop stop-color="#FFF841" offset="20.8482897%"></stop>
            <stop stop-color="#FFEAAE" offset="37.3145653%"></stop>
            <stop stop-color="#937E00" offset="100%"></stop>
        </linearGradient>
        <linearGradient x1="14.5898438%" y1="17.0794913%" x2="90.4654863%" y2="88.8627645%" id="linearGradient-4">
            <stop stop-color="#FFF3AC" offset="0%"></stop>
            <stop stop-color="#FFF841" offset="20.8482897%"></stop>
            <stop stop-color="#FFEAAE" offset="53.2173775%"></stop>
            <stop stop-color="#937E00" offset="100%"></stop>
        </linearGradient>
    </defs>
    <g id="Page-1" stroke="none" stroke-width="1" fill="none" fill-rule="evenodd">
        <g id="03_Paus" transform="translate(1.000000, -1022.000000)">
            <g id="J_P" transform="translate(0.000000, 1023.000000)">
                <rect id="Rectangle" stroke="#B0B0B0" fill="#FFFFFF" x="0" y="0.354900355" width="70" height="99.6450996" rx="9"></rect>
                <path d="M6.68742424,20.0862681 C6.93742424,20.0320045 7.26128788,19.9289037 7.65901515,19.7769658 C8.05674242,19.6250278 8.44594697,19.3835549 8.82662879,19.0525472 C9.20731061,18.7215394 9.53685606,18.2711518 9.81526515,17.7013844 C10.0936742,17.1316169 10.2328788,16.401772 10.2328788,15.5118495 L10.2328788,15.5118495 L10.2328788,7.17696576 C10.4601515,7.14440762 10.6874242,7.0847177 10.914697,6.99789599 C11.1419697,6.91107429 11.3465152,6.81339987 11.5283333,6.70487274 L11.5283333,6.70487274 L11.5283333,6.08626809 L6.27833333,6.08626809 L6.27833333,6.70487274 C6.47151515,6.82425258 6.69026515,6.91921382 6.93458333,6.98975646 C7.17890152,7.06029909 7.42606061,7.12270219 7.67606061,7.17696576 L7.67606061,7.17696576 L7.67606061,15.6095239 C7.67606061,16.249834 7.63912879,16.7951828 7.56526515,17.2455704 C7.49140152,17.695958 7.39481061,18.0785161 7.27549242,18.3932448 C7.15617424,18.7079735 7.0169697,18.9657255 6.85787879,19.1665006 C6.69878788,19.3672758 6.53401515,19.5327797 6.36356061,19.6630123 L6.36356061,19.6630123 L6.68742424,20.0862681 Z" id="J" fill="#343333" fill-rule="nonzero"></path>
                <path d="M6.33333333,64.4963012 C13.469184,53.6516053 23.3580729,48.2292573 36,48.2292573 C48.6419271,48.2292573 57.8641493,53.6516053 63.6666667,64.4963012 L63.6666667,87.8574939 C63.6666667,91.1712024 60.9803752,93.8574939 57.6666667,93.8574939 L12.3333333,93.8574939 C9.01962483,93.8574939 6.33333333,91.1712024 6.33333333,87.8574939 L6.33333333,64.4963012 L6.33333333,64.4963012 Z" id="Path-114" fill="#343333"></path>
                <path d="M6.33333333,59.7187964 C13.6349826,50.2391019 23.5238715,45.4992546 36,45.4992546 C48.4761285,45.4992546 57.6983507,50.2391019 63.6666667,59.7187964" id="Path-115" stroke="#343333"></path>
                <path d="M50.2277195,25.3333333 L63.3333333,41.7084961 L63.3333333,65.3333333 C57.8708767,56.8888889 51.2813253,52 43.5646789,50.6666667 C35.8480325,49.3333333 38.0690461,40.8888889 50.2277195,25.3333333 Z" id="Path-128" fill-opacity="0.05" fill="#000000"></path>
                <g id="Machado" transform="translate(34.666667, 51.828125) rotate(-12.000000) translate(-34.666667, -51.828125) translate(12.000000, 24.494792)">
                    <polygon id="Path-116" fill="#464646" points="-1.84600901e-13 52.171875 29.3333333 4.171875 32.7747396 5.50520833 3.51171875 53.8385417"></polygon>
                    <polygon id="Path-116" fill="#E0E0E0" points="2.66666667 53.5052083 32 5.50520833 33.4414063 6.171875 4.17838542 54.5052083"></polygon>
                    <path d="M31.0898438,9.57519531 C34.3500434,9.60058594 36.8254123,8.94292535 38.5159505,7.60221354 C38.5159505,7.60221354 37.2694838,10.9188767 34.3020447,16.1448568 C33.4393084,17.6642283 31.7839393,20.205678 29.3359375,23.7692057 C29.5564236,20.0376519 29.1907552,16.9197049 28.2389323,14.4153646 C28.2389323,14.4153646 29.1892361,12.8019748 31.0898438,9.57519531 Z" id="Path-118" fill="url(#linearGradient-1)"></path>
                    <path d="M39.8997396,1.65793305e-14 C38.9772135,5.44292535 37.0268012,10.6714952 34.0485026,15.6857096 C31.070204,20.699924 27.6763238,25.0842014 23.866862,28.8385417 C32.226671,30.5516493 38.3682726,27.6627604 42.2916667,20.171875 C46.2150608,12.6809896 45.4177517,5.95703125 39.8997396,1.65793305e-14 Z" id="Path-119" fill="url(#linearGradient-2)"></path>
                    <path d="M39.6904297,1.92578125 C43.0549615,7.42317708 43.4262722,13.0607639 40.804362,18.8385417 C38.1824517,24.6163194 33.0518094,27.5052083 25.4124349,27.5052083 L24.2998047,28.8385417 C33.1344401,29.7934028 39.1816406,26.7149523 42.4414062,19.6031901 C45.7011719,12.491428 45.1554905,6.18500434 40.804362,0.683919271 L39.6904297,1.92578125 Z" id="Path-120" fill="#FFFFFF"></path>
                    <polygon id="Path-121" fill="#818181" points="32.7747396 18.3751628 37.3465169 17.7050781 35.6971029 13.171875"></polygon>
                    <polygon id="Path-122" fill="#AAA100" points="29.6666667 12.0646159 34.41773 15.1946615 29.6666667 22.2670898 28.2389323 13.9365234"></polygon>
                </g>
                <g id="Escudo" transform="translate(0.000000, 54.333333)">
                    <path d="M6.6812504,0.0133463542 C31.1561073,1.60499691 46.1174643,14.716108 51.5653213,39.3466797 C39.1515093,39.3466797 26.7376973,39.3466797 14.3238852,39.3466797 C9.90560722,39.3466797 6.32388522,35.7649577 6.32388522,31.3466797 C6.32388522,31.3162225 6.32405915,31.2857655 6.32440701,31.2553102 L6.6812504,0.0133463542 L6.6812504,0.0133463542 Z" id="Path-123" fill="url(#linearGradient-3)"></path>
                    <g id="Extra_escudo" transform="translate(8.898655, 14.680013)">
                        <path d="M0.985507246,21.6811594 C7.58083276,11.2862593 11.4388557,5.24000567 12.5595761,3.54239861 C14.2406567,0.995988019 18.598766,-0.056295745 20.7657399,2.30277991 C22.9327139,4.66185557 20.7068934,9.22931945 19.6761654,9.44992976 C18.9890134,9.5970033 12.758794,13.6740799 0.985507246,21.6811594 Z" id="Path-100" fill="#FFFFFF" transform="translate(11.333333, 11.333333) rotate(-2.000000) translate(-11.333333, -11.333333) "></path>
                        <ellipse id="Oval" fill="#464646" transform="translate(16.543959, 5.234727) rotate(-14.000000) translate(-16.543959, -5.234727) " cx="16.5439591" cy="5.23472653" rx="3.94202899" ry="3.44927536"></ellipse>
                    </g>
                    <g id="Extra_escudo-Copy" transform="translate(0.231988, 10.013346)">
                        <path d="M3.67304348,20.3269565 C8.98034072,11.9621192 12.0849145,7.09666338 12.9867648,5.730589 C14.3395402,3.68147742 17.8465364,2.83469848 19.5903131,4.73306054 C21.3340898,6.6314226 19.542959,10.3068877 18.7135261,10.4844141 C18.1605708,10.602765 13.1470766,13.8836125 3.67304348,20.3269565 Z" id="Path-100" fill="#FFFFFF" transform="translate(12.000000, 12.000000) rotate(-31.000000) translate(-12.000000, -12.000000) "></path>
                        <ellipse id="Oval" fill="#464646" transform="translate(13.288055, 5.674913) rotate(-43.000000) translate(-13.288055, -5.674913) " cx="13.2880546" cy="5.67491265" rx="3.17217391" ry="2.77565217"></ellipse>
                    </g>
                    <g id="Extra_escudo-Copy-2" transform="translate(12.898655, 22.013346)">
                        <path d="M3.67304348,20.3269565 C8.98034072,11.9621192 12.0849145,7.09666338 12.9867648,5.730589 C14.3395402,3.68147742 17.8465364,2.83469848 19.5903131,4.73306054 C21.3340898,6.6314226 19.542959,10.3068877 18.7135261,10.4844141 C18.1605708,10.602765 13.1470766,13.8836125 3.67304348,20.3269565 Z" id="Path-100" fill="#FFFFFF" transform="translate(12.000000, 12.000000) rotate(32.000000) translate(-12.000000, -12.000000) "></path>
                        <ellipse id="Oval" fill="#464646" transform="translate(18.220459, 10.276136) rotate(20.000000) translate(-18.220459, -10.276136) " cx="18.2204587" cy="10.2761355" rx="3.17217391" ry="2.77565217"></ellipse>
                    </g>
                    <path d="M48.8986547,39.3466797 C43.7588055,16.3127981 29.5365832,3.86835362 6.23198799,2.01334635 C6.23198799,2.01334635 6.99693624,5.36952974 6.23198799,4.79585725 C14.8447551,6.63856778 37.9910954,7.66507387 45.7528355,39.3466797 C45.7528355,39.3466797 46.8014419,39.3466797 48.8986547,39.3466797 Z" id="Path-124" fill="#FFFFFF"></path>
                    <path d="M46.231988,39.3466797 C41.6434995,17.5576224 28.3101662,5.77984465 6.23198799,4.01334635 C6.23198799,4.01334635 6.99807503,6.02132227 6.23198799,5.45019222 C14.857577,7.28473611 37.9395171,9.87354561 44.4148189,39.3466797 C44.4148189,39.3466797 45.020542,39.3466797 46.231988,39.3466797 Z" id="Path-124" fill="url(#linearGradient-4)"></path>
                </g>
                <path d="M21.0161133,6.4974065 L57.6666667,6.4974065 C60.9803752,6.4974065 63.6666667,9.24750017 63.6666667,12.6399126 L63.6666667,87.7149877 C63.6666667,91.1074002 60.9803752,93.8574939 57.6666667,93.8574939 L12.3333333,93.8574939 C9.01962483,93.8574939 6.33333333,91.1074002 6.33333333,87.7149877 L6.33333333,36.277324" id="Rectangle" stroke="#343333"></path>
                <rect id="Rectangle" fill="#FFFFFF" x="46.3333333" y="2.4024024" width="21" height="15.1515152"></rect>
                <rect id="Rectangle" fill="#FFFFFF" x="46" y="3" width="19" height="17"></rect>
                <g id="Small_Icon" transform="translate(46.666667, 4.597598)" fill="#343333">
                    <path d="M8.62664087,13 C7.85015052,16.3333333 7.03377278,18 6.17750766,18 C4.89310997,18 11,18 11,18 C10.4442039,18 9.65308421,16.3333333 8.62664087,13 Z" id="Path-7"></path>
                    <path d="M4.59152968,2.40631429 C5.54868186,-0.802104762 11.3716789,-0.802104762 12.4685359,2.40631429 C12.9154036,3.71344797 12.7514443,4.96376984 11.9766581,6.1572799 C12.7874437,5.96851203 13.6227319,5.98454424 14.4814459,6.20427712 C17.839518,7.06356065 17.839518,13.3479056 14.4814459,14.7113203 C12.3424112,15.5797923 10.3487332,14.488713 8.50041211,11.4380826 C6.65126677,14.488713 4.65758884,15.5797923 2.51855409,14.7113203 C-0.83951803,13.3479056 -0.83951803,7.06356065 2.51855409,6.20427712 C3.4298893,5.97107923 4.31483957,5.96731208 5.17340491,6.19297567 C4.39148654,4.9896868 4.19753634,3.72699844 4.59152968,2.40631429 Z" id="Combined-Shape"></path>
                </g>
            </g>
        </g>
    </g>
</svg>