<?xml version="1.0" encoding="UTF-8"?>
<svg width="72px" height="102px" viewBox="0 0 72 102" version="1.1" xmlns="http://www.w3.org/2000/svg" xmlns:xlink="http://www.w3.org/1999/xlink">
    <!-- Generator: Sketch 61.2 (89653) - https://sketch.com -->
    <title>A_P</title>
    <desc>Created with Sketch.</desc>
    <g id="Page-1" stroke="none" stroke-width="1" fill="none" fill-rule="evenodd">
        <g id="03_Paus" transform="translate(1.000000, -1369.000000)">
            <g id="A_P" transform="translate(0.000000, 1370.000000)">
                <rect id="Rectangle" stroke="#B0B0B0" fill="#FFFFFF" x="0" y="0.354900355" width="70" height="99.6450996" rx="9"></rect>
                <path d="M9.74348422,20 L9.74348422,19.252809 C9.21856424,18.9513109 8.66163695,18.761236 8.07270233,18.6825843 L8.07270233,18.6825843 L9.20576132,15.5561798 L13.4691358,15.5561798 L14.5829904,18.6825843 C14.3269319,18.7350187 14.0580704,18.8136704 13.776406,18.9185393 C13.4947417,19.0234082 13.2322817,19.1348315 12.9890261,19.252809 L12.9890261,19.252809 L12.9890261,20 L19,20 L19,19.252809 C18.8079561,19.1217228 18.5839049,19.0070225 18.3278464,18.9087079 C18.0717878,18.8103933 17.8157293,18.7350187 17.5596708,18.6825843 L17.5596708,18.6825843 L12.739369,6 L11.3182442,6 L6.36351166,18.6825843 C6.13305898,18.7350187 5.89940558,18.8103933 5.66255144,18.9087079 C5.4256973,19.0070225 5.20484682,19.1217228 5,19.252809 L5,19.252809 L5,20 L9.74348422,20 Z M13.75,14.75 L10.25,14.75 L11.6144068,10.5708484 L12.049435,8.625 L12.0889831,8.625 L12.4646893,10.5266245 L13.75,14.75 Z" id="A" fill="#343333" fill-rule="nonzero"></path>
                <path d="M26.0161133,6.4974065 L57.6666667,6.4974065 C60.9803752,6.4974065 63.6666667,9.24750017 63.6666667,12.6399126 L63.6666667,87.7149877 C63.6666667,91.1074002 60.9803752,93.8574939 57.6666667,93.8574939 L12.3333333,93.8574939 C9.01962483,93.8574939 6.33333333,91.1074002 6.33333333,87.7149877 L6.33333333,36.277324" id="Rectangle" stroke="#343333"></path>
                <path d="M42.8085937,39.9248047 L63.6666667,57.8378378 L63.3703335,87.9680919 C63.3433647,90.710199 61.112815,92.9189189 58.3705753,92.9189189 L33.3168945,92.9189189 L33.3168945,92.9189189 L14.8339844,76.145901 L42.8085937,39.9248047 Z" id="Path-128" fill-opacity="0.08" fill="#000000"></path>
                <rect id="Rectangle" fill="#FFFFFF" x="46" y="2" width="21" height="18"></rect>
                <rect id="Rectangle" fill="#FFFFFF" x="46" y="4" width="19" height="17"></rect>
                <g id="Small_Icon" transform="translate(46.666667, 5.597598)" fill="#343333">
                    <path d="M8.62664087,13 C7.85015052,16.3333333 7.03377278,18 6.17750766,18 C4.89310997,18 11,18 11,18 C10.4442039,18 9.65308421,16.3333333 8.62664087,13 Z" id="Path-7"></path>
                    <path d="M4.59152968,2.40631429 C5.54868186,-0.802104762 11.3716789,-0.802104762 12.4685359,2.40631429 C12.9154036,3.71344797 12.7514443,4.96376984 11.9766581,6.1572799 C12.7874437,5.96851203 13.6227319,5.98454424 14.4814459,6.20427712 C17.839518,7.06356065 17.839518,13.3479056 14.4814459,14.7113203 C12.3424112,15.5797923 10.3487332,14.488713 8.50041211,11.4380826 C6.65126677,14.488713 4.65758884,15.5797923 2.51855409,14.7113203 C-0.83951803,13.3479056 -0.83951803,7.06356065 2.51855409,6.20427712 C3.4298893,5.97107923 4.31483957,5.96731208 5.17340491,6.19297567 C4.39148654,4.9896868 4.19753634,3.72699844 4.59152968,2.40631429 Z" id="Combined-Shape"></path>
                </g>
                <g id="Icon" transform="translate(11.000000, 37.000000)">
                    <path d="M24.3039381,37 C22.4403612,45 20.4810547,49 18.4260184,49 C15.3434639,49 30,49 30,49 C28.6660894,49 26.7674021,45 24.3039381,37 Z" id="Path-7" fill="#343333"></path>
                    <path d="M12.9643191,6.73768 C15.6668664,-2.24589333 32.1082699,-2.24589333 35.2052778,6.73768 C36.4667141,10.3967618 36.0043037,13.896848 33.8180465,17.2379388 C36.1082785,16.7118825 38.4654974,16.7570571 40.8887885,17.3719759 C50.3704038,19.7779698 50.3704038,37.3741357 40.8887885,41.1916969 C34.8484896,43.6236886 29.2187013,40.5677172 23.9994234,32.0237828 C18.7812987,40.5677172 13.1515104,43.6236886 7.11121155,41.1916969 C-2.37040385,37.3741357 -2.37040385,19.7779698 7.11121155,17.3719759 C9.68329188,16.7193013 12.1809373,16.708483 14.6041479,17.3395209 C12.398971,13.9677608 11.8523963,10.4338373 12.9643191,6.73768 Z" id="Combined-Shape" fill="#343333"></path>
                    <path d="M35,20.2744765 C39.55863,19.3922999 42.6105554,20.636632 44.155776,24.0074729 C46.4736069,29.0637342 43.5138944,35.0208552 41.3386141,36 C43.8199083,28.0049819 41.7070369,22.7631408 35,20.2744765 Z" id="Path-111" fill="#FFFFFF"></path>
                </g>
            </g>
        </g>
    </g>
</svg>