<?xml version="1.0" encoding="UTF-8"?>
<svg width="72px" height="102px" viewBox="0 0 72 102" version="1.1" xmlns="http://www.w3.org/2000/svg" xmlns:xlink="http://www.w3.org/1999/xlink">
    <!-- Generator: Sketch 61.2 (89653) - https://sketch.com -->
    <title>A_C</title>
    <desc>Created with Sketch.</desc>
    <g id="Page-1" stroke="none" stroke-width="1" fill="none" fill-rule="evenodd">
        <g id="03_Copas" transform="translate(1.000000, -1369.000000)">
            <g id="A_C" transform="translate(0.000000, 1370.000000)">
                <rect id="Rectangle" stroke="#B0B0B0" fill="#FFFFFF" x="0" y="0.354900355" width="70" height="99.6450996" rx="9"></rect>
                <path d="M9.74348422,20 L9.74348422,19.252809 C9.21856424,18.9513109 8.66163695,18.761236 8.07270233,18.6825843 L8.07270233,18.6825843 L9.20576132,15.5561798 L13.4691358,15.5561798 L14.5829904,18.6825843 C14.3269319,18.7350187 14.0580704,18.8136704 13.776406,18.9185393 C13.4947417,19.0234082 13.2322817,19.1348315 12.9890261,19.252809 L12.9890261,19.252809 L12.9890261,20 L19,20 L19,19.252809 C18.8079561,19.1217228 18.5839049,19.0070225 18.3278464,18.9087079 C18.0717878,18.8103933 17.8157293,18.7350187 17.5596708,18.6825843 L17.5596708,18.6825843 L12.739369,6 L11.3182442,6 L6.36351166,18.6825843 C6.13305898,18.7350187 5.89940558,18.8103933 5.66255144,18.9087079 C5.4256973,19.0070225 5.20484682,19.1217228 5,19.252809 L5,19.252809 L5,20 L9.74348422,20 Z M13.75,13.875 L10.25,13.875 L11.6144068,10.29287 L12.049435,8.625 L12.0889831,8.625 L12.4646893,10.2549639 L13.75,13.875 Z" id="A" fill="#FF4141" fill-rule="nonzero"></path>
                <path d="M26.0161133,6.4974065 L57.6666667,6.4974065 C60.9803752,6.4974065 63.6666667,9.24750017 63.6666667,12.6399126 L63.6666667,87.7149877 C63.6666667,91.1074002 60.9803752,93.8574939 57.6666667,93.8574939 L12.3333333,93.8574939 C9.01962483,93.8574939 6.33333333,91.1074002 6.33333333,87.7149877 L6.33333333,36.277324" id="Rectangle" stroke="#FF4A4A"></path>
                <rect id="Rectangle" fill="#FFFFFF" x="46.3333333" y="4.55391755" width="19" height="13"></rect>
                <path d="M54.9740042,48 L63,56.6153846 L62.7412898,88.0493799 C62.7141766,91.343709 60.0359336,94 56.741493,94 L45.4617129,94 L45.4617129,94 L37.3813386,87.6153846 L36.523557,83.5076134 L25,73.5995812 L54.9740042,48 Z" id="Path-128" fill-opacity="0.08" fill="#000000"></path>
                <g id="Icon" transform="translate(11.000000, 43.000000)">
                    <path d="M23.8576879,44.6197647 C21.5914145,38.6823904 17.6240424,33.6916236 15.428621,32.9281029 C-8.75859332,24.5163063 0.0896696574,0 10.9856537,0 C18.9388653,0 23.2769808,3.91097572 24,11.7329272 L24,11.7329272 C24.7230192,3.91097572 29.0611347,0 37.0143463,0 C47.9103303,0 56.7585933,24.5163063 32.571379,32.9281029 C30.3292465,33.7078687 26.238959,38.8966771 24,45 Z" id="Combined-Shape-Copy" fill="#FF4A4A"></path>
                    <path d="M30,3.53136822 C34.8097087,1.04721518 38.6333746,1.58536742 41.4709978,5.14582493 C44.3086209,8.70628244 44.7583146,12.6576741 42.8200789,17 C42.8200789,12.6576741 41.6069044,9.16961184 39.1805555,6.53581311 C36.7542066,3.90201439 33.6940214,2.90053276 30,3.53136822 Z" id="Path-36" fill="#FFFFFF"></path>
                </g>
                <g id="Small_Icon" transform="translate(49.000000, 6.000000)" fill="#FF4A4A">
                    <path d="M7.40555216,13.7540318 C6.69026797,11.9634079 5.49164671,10.4763449 4.82144407,10.2442987 C-2.73706041,7.62729529 0.0280217679,0 3.43301677,0 C5.91839541,0 7.27405649,1.216748 7.5,3.65024401 L7.5,3.65024401 C7.72594351,1.216748 9.08160459,0 11.5669832,0 C14.9719782,0 17.7370604,7.62729529 10.1785559,10.2442987 C9.47788954,10.4868925 8.19967469,12.1011884 7.5,14 Z" id="Combined-Shape-Copy"></path>
                </g>
            </g>
        </g>
    </g>
</svg>