<?xml version="1.0" encoding="UTF-8"?>
<svg width="72px" height="102px" viewBox="0 0 72 102" version="1.1" xmlns="http://www.w3.org/2000/svg" xmlns:xlink="http://www.w3.org/1999/xlink">
    <!-- Generator: Sketch 61.2 (89653) - https://sketch.com -->
    <title>A_E</title>
    <desc>Created with Sketch.</desc>
    <g id="Page-1" stroke="none" stroke-width="1" fill="none" fill-rule="evenodd">
        <g id="03_Espadas" transform="translate(1.000000, -1369.000000)">
            <g id="A_E" transform="translate(0.000000, 1370.000000)">
                <rect id="Rectangle" stroke="#B0B0B0" fill="#FFFFFF" x="0" y="0.354900355" width="70" height="99.6450996" rx="9"></rect>
                <path d="M9.74348422,20 L9.74348422,19.252809 C9.21856424,18.9513109 8.66163695,18.761236 8.07270233,18.6825843 L8.07270233,18.6825843 L9.20576132,15.5561798 L13.4691358,15.5561798 L14.5829904,18.6825843 C14.3269319,18.7350187 14.0580704,18.8136704 13.776406,18.9185393 C13.4947417,19.0234082 13.2322817,19.1348315 12.9890261,19.252809 L12.9890261,19.252809 L12.9890261,20 L19,20 L19,19.252809 C18.8079561,19.1217228 18.5839049,19.0070225 18.3278464,18.9087079 C18.0717878,18.8103933 17.8157293,18.7350187 17.5596708,18.6825843 L17.5596708,18.6825843 L12.739369,6 L11.3182442,6 L6.36351166,18.6825843 C6.13305898,18.7350187 5.89940558,18.8103933 5.66255144,18.9087079 C5.4256973,19.0070225 5.20484682,19.1217228 5,19.252809 L5,19.252809 L5,20 L9.74348422,20 Z M13.75,13.875 L10.25,13.875 L11.6144068,10.29287 L12.049435,8.625 L12.0889831,8.625 L12.4646893,10.2549639 L13.75,13.875 Z" id="A" fill="#343333" fill-rule="nonzero"></path>
                <path d="M26.0161133,6.4974065 L57.6666667,6.4974065 C60.9803752,6.4974065 63.6666667,9.24750017 63.6666667,12.6399126 L63.6666667,87.7149877 C63.6666667,91.1074002 60.9803752,93.8574939 57.6666667,93.8574939 L12.3333333,93.8574939 C9.01962483,93.8574939 6.33333333,91.1074002 6.33333333,87.7149877 L6.33333333,36.277324" id="Rectangle" stroke="#343333"></path>
                <rect id="Rectangle" fill="#FFFFFF" x="46.3333333" y="2.4024024" width="21" height="15.1515152"></rect>
                <path d="M36.6086957,38.4504856 L63.6666667,61.8378378 L63.3765297,87.9744195 C63.3461179,90.7140245 61.1166115,92.9189189 58.3768377,92.9189189 L33.9771437,92.9189189 L33.9771437,92.9189189 L25.3043478,85.4864865 L30.3554687,84.0157042 L17.8339844,72.145901 L36.6086957,38.4504856 Z" id="Path-128" fill-opacity="0.08" fill="#000000"></path>
                <g id="Icon_Espadas" transform="translate(14.000000, 37.513514)">
                    <path d="M22.4689333,38.1668692 C20.3498342,33.1065145 15.2301733,29.1089684 13.247828,28.4564317 C-8.62292503,21.2571463 0.988308876,-1.15223146e-15 10.8407612,-1.15223146e-15 C18.0322767,-1.15223146e-15 21.9549215,3.34723148 22.6086957,10.0416944 L22.6086957,10.0416944 C23.233042,3.34723148 26.9791199,-1.15223146e-15 33.8469295,-1.15223146e-15 C43.2559012,-1.15223146e-15 50.8966114,20.9824243 30.0103091,28.1817097 C28.0741682,28.8490768 24.5420962,33.2899489 22.6086957,38.5135135 Z" id="Combined-Shape" fill="#343333" transform="translate(21.666667, 19.256757) scale(1, -1) translate(-21.666667, -19.256757) "></path>
                    <path d="M21.9749804,37.8378378 C19.5681446,44.0010957 16.0736537,47.972973 9.5660388,47.972973 C3.05842385,47.972973 34,47.972973 34,47.972973 C29.7759498,47.972973 23.8220577,44.0010957 21.9749804,37.8378378 Z" id="Path-7" fill="#343333"></path>
                    <path d="M33.3333333,16.2162162 C37.7777778,18.326671 40,21.6131547 40,26.0756676 C40,32.7694368 36.2061856,35.1351351 33.6769759,35.1351351 C38.3138603,29.0954901 38.1993127,22.7891838 33.3333333,16.2162162 Z" id="Path-110" fill="#FFFFFF"></path>
                </g>
                <rect id="Rectangle" fill="#FFFFFF" x="46" y="3" width="19" height="17"></rect>
                <g id="Icon_Espadas" transform="translate(47.666667, 4.327327)" fill="#343333">
                    <path d="M8.24364559,13.0423819 C7.43214384,11.3870373 5.6075368,10.0910356 4.89150571,9.87556405 C-3.18384924,7.44548946 0.364914047,0.27027027 4.00274258,0.27027027 C6.65807139,0.27027027 8.10643256,1.4001077 8.34782609,3.65978256 L8.34782609,3.65978256 C8.57835396,1.4001077 9.9615212,0.27027027 12.4973278,0.27027027 C15.9714097,0.27027027 18.792595,7.35275876 11.0807295,9.78283334 C10.3658467,10.008099 9.06169707,11.5070881 8.34782609,13.2702703 Z" id="Combined-Shape" transform="translate(8.000000, 6.770270) scale(1, -1) translate(-8.000000, -6.770270) "></path>
                    <path d="M7.72795357,13.2702703 C6.33027094,15.9369369 4.86079101,17.2702703 3.31951378,17.2702703 C1.00759795,17.2702703 12,17.2702703 12,17.2702703 C10.9995671,17.2702703 9.57555158,15.9369369 7.72795357,13.2702703 Z" id="Path-7"></path>
                </g>
            </g>
        </g>
    </g>
</svg>