<?xml version="1.0" encoding="UTF-8"?>
<svg width="72px" height="102px" viewBox="0 0 72 102" version="1.1" xmlns="http://www.w3.org/2000/svg" xmlns:xlink="http://www.w3.org/1999/xlink">
    <!-- Generator: Sketch 61.2 (89653) - https://sketch.com -->
    <title>02_P</title>
    <desc>Created with Sketch.</desc>
    <g id="Page-1" stroke="none" stroke-width="1" fill="none" fill-rule="evenodd">
        <g id="03_Paus" transform="translate(1.000000, 1.000000)">
            <g id="02_P">
                <rect id="Rectangle" stroke="#B0B0B0" fill="#FFFFFF" x="0" y="0.354900355" width="70" height="99.6450996" rx="9"></rect>
                <path d="M24.0161133,6.4974065 L57.6666667,6.4974065 C60.9803752,6.4974065 63.6666667,9.24750017 63.6666667,12.6399126 L63.6666667,87.7149877 C63.6666667,91.1074002 60.9803752,93.8574939 57.6666667,93.8574939 L12.3333333,93.8574939 C9.01962483,93.8574939 6.33333333,91.1074002 6.33333333,87.7149877 L6.33333333,36.277324" id="Rectangle" stroke="#343333"></path>
                <path d="M15.5883333,20.6662681 C15.5883333,20.430313 15.5755968,20.1189834 15.5501237,19.7322793 C15.5246507,19.3455752 15.4928093,18.9392082 15.4545997,18.5131782 C15.4163901,18.0871482 15.3749964,17.6643954 15.3304185,17.2449198 C15.2858406,16.8254441 15.2444469,16.4584029 15.2062373,16.1437962 L15.2062373,16.1437962 L14.5566739,16.1437962 L13.6205386,18.3460434 L10.3345124,18.3460434 L9.16911936,18.4640209 L9.16911936,18.3853692 L10.1625691,17.697167 C10.6465575,17.2645827 11.1878603,16.7828411 11.7864774,16.2519422 C12.3850946,15.7210434 12.9455022,15.1442643 13.4677001,14.5216052 C13.9898981,13.898946 14.4293086,13.2304067 14.7859316,12.5159872 C15.1425546,11.8015677 15.3208661,11.0445452 15.3208661,10.2449198 C15.3208661,9.74679243 15.2412627,9.28143663 15.082056,8.84885236 C14.9228493,8.41626809 14.6744869,8.03611827 14.3369687,7.70840292 C13.9994505,7.38068756 13.5759607,7.12506958 13.0664993,6.94154899 C12.5570378,6.75802839 11.9520524,6.66626809 11.2515429,6.66626809 C10.2580932,6.66626809 9.41429767,6.81046284 8.72015648,7.09885236 C8.02601528,7.38724187 7.45605531,7.72806584 7.01027656,8.12132427 C7.06122271,8.35727932 7.13127365,8.61617445 7.2204294,8.89800966 C7.30958515,9.17984487 7.40510917,9.46495722 7.50700146,9.75334674 C7.60889374,10.0417363 7.70760189,10.3170171 7.80312591,10.5791894 C7.89864993,10.8413617 7.98462154,11.0707625 8.06104076,11.2673917 L8.06104076,11.2673917 L8.71060408,11.2673917 L9.4174818,8.21963887 C9.63400291,8.1540958 9.82823508,8.10821565 10.0001783,8.08199842 C10.1721215,8.05578119 10.3663537,8.04267258 10.5828748,8.04267258 C11.2706477,8.04267258 11.8023981,8.26879618 12.1781259,8.72104337 C12.5538537,9.17329056 12.7417176,9.75990105 12.7417176,10.4808748 C12.7417176,11.0314366 12.6430095,11.595107 12.4455932,12.1718861 C12.2481769,12.7486651 11.9838937,13.3156127 11.6527438,13.8727288 C11.3215939,14.4298449 10.9458661,14.9771295 10.5255604,15.5145827 C10.1052547,16.0520359 9.67858079,16.5599947 9.24553857,17.0384591 C8.81249636,17.5169235 8.38582242,17.9560621 7.96551674,18.3558748 C7.54521106,18.7556876 7.16948326,19.106343 6.83833333,19.4078411 L6.83833333,19.4078411 L6.83833333,20.6662681 L15.5883333,20.6662681 Z" id="2" fill="#343333" fill-rule="nonzero"></path>
                <rect id="Rectangle" fill="#FFFFFF" x="46.3333333" y="3.4024024" width="19" height="17"></rect>
                <g id="Small_Icon" transform="translate(47.000000, 5.000000)" fill="#343333">
                    <path d="M8.62664087,13 C7.85015052,16.3333333 7.03377278,18 6.17750766,18 C4.89310997,18 11,18 11,18 C10.4442039,18 9.65308421,16.3333333 8.62664087,13 Z" id="Path-7"></path>
                    <path d="M4.59152968,2.40631429 C5.54868186,-0.802104762 11.3716789,-0.802104762 12.4685359,2.40631429 C12.9154036,3.71344797 12.7514443,4.96376984 11.9766581,6.1572799 C12.7874437,5.96851203 13.6227319,5.98454424 14.4814459,6.20427712 C17.839518,7.06356065 17.839518,13.3479056 14.4814459,14.7113203 C12.3424112,15.5797923 10.3487332,14.488713 8.50041211,11.4380826 C6.65126677,14.488713 4.65758884,15.5797923 2.51855409,14.7113203 C-0.83951803,13.3479056 -0.83951803,7.06356065 2.51855409,6.20427712 C3.4298893,5.97107923 4.31483957,5.96731208 5.17340491,6.19297567 C4.39148654,4.9896868 4.19753634,3.72699844 4.59152968,2.40631429 Z" id="Combined-Shape"></path>
                </g>
                <path d="M6.33333333,64.4963012 C13.469184,53.6516053 23.3580729,48.2292573 36,48.2292573 C48.6419271,48.2292573 57.8641493,53.6516053 63.6666667,64.4963012 L63.6666667,87.8574939 C63.6666667,91.1712024 60.9803752,93.8574939 57.6666667,93.8574939 L12.3333333,93.8574939 C9.01962483,93.8574939 6.33333333,91.1712024 6.33333333,87.8574939 L6.33333333,64.4963012 L6.33333333,64.4963012 Z" id="Path-114" fill="#343333"></path>
                <path d="M6.33333333,59.7187964 C13.6349826,50.2391019 23.5238715,45.4992546 36,45.4992546 C48.4761285,45.4992546 57.6983507,50.2391019 63.6666667,59.7187964" id="Path-115" stroke="#343333"></path>
                <path d="M20.429362,82.0540541 L30.8925781,93.5675676 L56,93.5675676 C60.418278,93.5675676 64,89.9858456 64,85.5675676 L64,79.6550425 L64,79.6550425 L44.6666667,57.099583 L20.429362,82.0540541 Z" id="Path-117" fill="#1D1D1D"></path>
                <g id="Icon_Paus-Copy-3" transform="translate(18.000000, 53.000000)">
                    <path d="M18.5528442,29.0540541 C17.2069276,34.9099099 15.7918728,37.8378378 14.3076799,37.8378378 C12.0813906,37.8378378 22.6666667,37.8378378 22.6666667,37.8378378 C21.7032868,37.8378378 20.3320126,34.9099099 18.5528442,29.0540541 Z" id="Path-7" fill="#FFFFFF"></path>
                    <path d="M9.9032993,5.09444916 C11.9677452,-1.69814972 24.5271506,-1.69814972 26.8929206,5.09444916 C27.8564346,7.86089077 27.5033484,10.5071345 25.8336621,13.0331804 C27.5830272,12.6360819 29.3835277,12.6702736 31.2344912,13.1351813 C38.4773918,14.9543852 38.4773918,28.2590794 31.2344912,31.145588 C26.6205426,32.984382 22.3201556,30.6739576 18.33333,24.2143149 C14.3465111,30.6739576 10.046124,32.984382 5.43217549,31.145588 C-1.81072516,28.2590794 -1.81072516,14.9543852 5.43217549,13.1351813 C7.39761241,12.6415213 9.30615153,12.6335001 11.1577929,13.1111177 C9.47156269,10.5620185 9.05378518,7.88958598 9.9032993,5.09444916 Z" id="Combined-Shape" fill="#FFFFFF"></path>
                    <path d="M26.6666667,15.7491798 C30.009662,15.0786063 32.2477406,16.0244669 33.3809024,18.5867615 C35.080645,22.4302034 32.9101892,26.9584203 31.3149837,27.7027027 C33.1345994,21.6254086 31.5851604,17.6409009 26.6666667,15.7491798 Z" id="Path-111" fill="#343333"></path>
                </g>
            </g>
        </g>
    </g>
</svg>