<?xml version="1.0" encoding="UTF-8"?>
<svg width="72px" height="102px" viewBox="0 0 72 102" version="1.1" xmlns="http://www.w3.org/2000/svg" xmlns:xlink="http://www.w3.org/1999/xlink">
    <!-- Generator: Sketch 61.2 (89653) - https://sketch.com -->
    <title>02_O</title>
    <desc>Created with Sketch.</desc>
    <g id="Page-1" stroke="none" stroke-width="1" fill="none" fill-rule="evenodd">
        <g id="03_Ouros" transform="translate(1.000000, 1.000000)">
            <g id="02_O">
                <rect id="Rectangle" stroke="#B0B0B0" fill="#FFFFFF" x="0" y="0.354900355" width="70" height="99.6450996" rx="9"></rect>
                <path d="M24.0161133,6.4974065 L57.6666667,6.4974065 C60.9803752,6.4974065 63.6666667,9.24750017 63.6666667,12.6399126 L63.6666667,87.7149877 C63.6666667,91.1074002 60.9803752,93.8574939 57.6666667,93.8574939 L12.3333333,93.8574939 C9.01962483,93.8574939 6.33333333,91.1074002 6.33333333,87.7149877 L6.33333333,36.277324" id="Rectangle" stroke="#FF4A4A"></path>
                <path d="M15.4422659,20.6662681 C15.4422659,20.430313 15.4295294,20.1189834 15.4040563,19.7322793 C15.3785832,19.3455752 15.3467419,18.9392082 15.3085323,18.5131782 C15.2703227,18.0871482 15.2289289,17.6643954 15.1843511,17.2449198 C15.1397732,16.8254441 15.0983795,16.4584029 15.0601698,16.1437962 L15.0601698,16.1437962 L14.4106065,16.1437962 L13.4744712,18.3460434 L10.188445,18.3460434 L9.02305194,18.4640209 L9.02305194,18.3853692 L10.0165017,17.697167 C10.5004901,17.2645827 11.0417928,16.7828411 11.64041,16.2519422 C12.2390272,15.7210434 12.7994348,15.1442643 13.3216327,14.5216052 C13.8438307,13.898946 14.2832412,13.2304067 14.6398642,12.5159872 C14.9964872,11.8015677 15.1747987,11.0445452 15.1747987,10.2449198 C15.1747987,9.74679243 15.0951953,9.28143663 14.9359886,8.84885236 C14.7767819,8.41626809 14.5284195,8.03611827 14.1909013,7.70840292 C13.8533831,7.38068756 13.4298933,7.12506958 12.9204319,6.94154899 C12.4109704,6.75802839 11.805985,6.66626809 11.1054755,6.66626809 C10.1120257,6.66626809 9.26823026,6.81046284 8.57408906,7.09885236 C7.87994787,7.38724187 7.3099879,7.72806584 6.86420915,8.12132427 C6.91515529,8.35727932 6.98520624,8.61617445 7.07436199,8.89800966 C7.16351774,9.17984487 7.25904175,9.46495722 7.36093404,9.75334674 C7.46282633,10.0417363 7.56153448,10.3170171 7.65705849,10.5791894 C7.75258251,10.8413617 7.83855413,11.0707625 7.91497334,11.2673917 L7.91497334,11.2673917 L8.56453666,11.2673917 L9.27141439,8.21963887 C9.4879355,8.1540958 9.68216766,8.10821565 9.8541109,8.08199842 C10.0260541,8.05578119 10.2202863,8.04267258 10.4368074,8.04267258 C11.1245803,8.04267258 11.6563307,8.26879618 12.0320585,8.72104337 C12.4077863,9.17329056 12.5956502,9.75990105 12.5956502,10.4808748 C12.5956502,11.0314366 12.496942,11.595107 12.2995257,12.1718861 C12.1021094,12.7486651 11.8378263,13.3156127 11.5066764,13.8727288 C11.1755265,14.4298449 10.7997987,14.9771295 10.379493,15.5145827 C9.95918731,16.0520359 9.53251337,16.5599947 9.09947116,17.0384591 C8.66642895,17.5169235 8.239755,17.9560621 7.81944932,18.3558748 C7.39914365,18.7556876 7.02341584,19.106343 6.69226592,19.4078411 L6.69226592,19.4078411 L6.69226592,20.6662681 L15.4422659,20.6662681 Z" id="2" fill="#FF4141" fill-rule="nonzero"></path>
                <rect id="Rectangle" fill="#FFFFFF" x="51.3333333" y="4.55391755" width="14" height="13"></rect>
                <polygon id="Small_Icon" fill="#FF4A4A" transform="translate(56.500000, 15.000000) rotate(-360.000000) translate(-56.500000, -15.000000) " points="56.5 5 61 15.1448916 56.6199707 25 52 15.1448916"></polygon>
                <path d="M6.33333333,64.4963012 C13.469184,53.6516053 23.3580729,48.2292573 36,48.2292573 C48.6419271,48.2292573 57.8641493,53.6516053 63.6666667,64.4963012 L63.6666667,87.8574939 C63.6666667,91.1712024 60.9803752,93.8574939 57.6666667,93.8574939 L12.3333333,93.8574939 C9.01962483,93.8574939 6.33333333,91.1712024 6.33333333,87.8574939 L6.33333333,64.4963012 L6.33333333,64.4963012 Z" id="Path-114" fill="#FF4A4A"></path>
                <path d="M6.33333333,59.7187964 C13.6349826,50.2391019 23.5238715,45.4992546 36,45.4992546 C48.4761285,45.4992546 57.6983507,50.2391019 63.6666667,59.7187964" id="Path-115" stroke="#FF4A4A"></path>
                <path d="M36.6640625,90 L40.3333333,93.8574939 L56.8032542,93.8574939 C60.5938123,93.8574939 63.6666667,90.7846394 63.6666667,86.9940814 L63.6666667,86.9940814 L63.6666667,86.9940814 L36.6640625,53.0126953 L36.6640625,90 Z" id="Path-117" fill="#DF3232"></path>
                <g id="Icon" transform="translate(27.000000, 52.000000)">
                    <polygon id="Triangle-Copy-2" fill="#FFFFFF" transform="translate(9.000000, 19.000000) rotate(-360.000000) translate(-9.000000, -19.000000) " points="9 0 18 19.2752941 9.23994141 38 0 19.2752941"></polygon>
                    <polygon id="Path-112" fill="#DF3232" points="9 5 16 19 13.7302669 19"></polygon>
                </g>
            </g>
        </g>
    </g>
</svg>