<?xml version="1.0" encoding="UTF-8"?>
<svg width="72px" height="102px" viewBox="0 0 72 102" version="1.1" xmlns="http://www.w3.org/2000/svg" xmlns:xlink="http://www.w3.org/1999/xlink">
    <!-- Generator: Sketch 61.2 (89653) - https://sketch.com -->
    <title>02_C</title>
    <desc>Created with Sketch.</desc>
    <g id="Page-1" stroke="none" stroke-width="1" fill="none" fill-rule="evenodd">
        <g id="03_Copas" transform="translate(1.000000, 1.000000)">
            <g id="02_C">
                <rect id="Rectangle" stroke="#B0B0B0" fill="#FFFFFF" x="0" y="0.354900355" width="70" height="99.6450996" rx="9"></rect>
                <path d="M24.0161133,6.4974065 L57.6666667,6.4974065 C60.9803752,6.4974065 63.6666667,9.24750017 63.6666667,12.6399126 L63.6666667,87.7149877 C63.6666667,91.1074002 60.9803752,93.8574939 57.6666667,93.8574939 L12.3333333,93.8574939 C9.01962483,93.8574939 6.33333333,91.1074002 6.33333333,87.7149877 L6.33333333,36.277324" id="Rectangle" stroke="#FF4A4A"></path>
                <path d="M15.5883333,20.6662681 C15.5883333,20.430313 15.5755968,20.1189834 15.5501237,19.7322793 C15.5246507,19.3455752 15.4928093,18.9392082 15.4545997,18.5131782 C15.4163901,18.0871482 15.3749964,17.6643954 15.3304185,17.2449198 C15.2858406,16.8254441 15.2444469,16.4584029 15.2062373,16.1437962 L15.2062373,16.1437962 L14.5566739,16.1437962 L13.6205386,18.3460434 L10.3345124,18.3460434 L9.16911936,18.4640209 L9.16911936,18.3853692 L10.1625691,17.697167 C10.6465575,17.2645827 11.1878603,16.7828411 11.7864774,16.2519422 C12.3850946,15.7210434 12.9455022,15.1442643 13.4677001,14.5216052 C13.9898981,13.898946 14.4293086,13.2304067 14.7859316,12.5159872 C15.1425546,11.8015677 15.3208661,11.0445452 15.3208661,10.2449198 C15.3208661,9.74679243 15.2412627,9.28143663 15.082056,8.84885236 C14.9228493,8.41626809 14.6744869,8.03611827 14.3369687,7.70840292 C13.9994505,7.38068756 13.5759607,7.12506958 13.0664993,6.94154899 C12.5570378,6.75802839 11.9520524,6.66626809 11.2515429,6.66626809 C10.2580932,6.66626809 9.41429767,6.81046284 8.72015648,7.09885236 C8.02601528,7.38724187 7.45605531,7.72806584 7.01027656,8.12132427 C7.06122271,8.35727932 7.13127365,8.61617445 7.2204294,8.89800966 C7.30958515,9.17984487 7.40510917,9.46495722 7.50700146,9.75334674 C7.60889374,10.0417363 7.70760189,10.3170171 7.80312591,10.5791894 C7.89864993,10.8413617 7.98462154,11.0707625 8.06104076,11.2673917 L8.06104076,11.2673917 L8.71060408,11.2673917 L9.4174818,8.21963887 C9.63400291,8.1540958 9.82823508,8.10821565 10.0001783,8.08199842 C10.1721215,8.05578119 10.3663537,8.04267258 10.5828748,8.04267258 C11.2706477,8.04267258 11.8023981,8.26879618 12.1781259,8.72104337 C12.5538537,9.17329056 12.7417176,9.75990105 12.7417176,10.4808748 C12.7417176,11.0314366 12.6430095,11.595107 12.4455932,12.1718861 C12.2481769,12.7486651 11.9838937,13.3156127 11.6527438,13.8727288 C11.3215939,14.4298449 10.9458661,14.9771295 10.5255604,15.5145827 C10.1052547,16.0520359 9.67858079,16.5599947 9.24553857,17.0384591 C8.81249636,17.5169235 8.38582242,17.9560621 7.96551674,18.3558748 C7.54521106,18.7556876 7.16948326,19.106343 6.83833333,19.4078411 L6.83833333,19.4078411 L6.83833333,20.6662681 L15.5883333,20.6662681 Z" id="2" fill="#FF4141" fill-rule="nonzero"></path>
                <rect id="Rectangle" fill="#FFFFFF" x="46.3333333" y="4.55391755" width="19" height="13"></rect>
                <g id="Small_Icon" transform="translate(49.000000, 6.000000)" fill="#FF4A4A">
                    <path d="M7.40555216,13.7540318 C6.69026797,11.9634079 5.49164671,10.4763449 4.82144407,10.2442987 C-2.73706041,7.62729529 0.0280217679,0 3.43301677,0 C5.91839541,0 7.27405649,1.216748 7.5,3.65024401 L7.5,3.65024401 C7.72594351,1.216748 9.08160459,0 11.5669832,0 C14.9719782,0 17.7370604,7.62729529 10.1785559,10.2442987 C9.47788954,10.4868925 8.19967469,12.1011884 7.5,14 Z" id="Combined-Shape-Copy"></path>
                </g>
                <path d="M6.33333333,64.4963012 C13.469184,53.6516053 23.3580729,48.2292573 36,48.2292573 C48.6419271,48.2292573 57.8641493,53.6516053 63.6666667,64.4963012 L63.6666667,87.8574939 C63.6666667,91.1712024 60.9803752,93.8574939 57.6666667,93.8574939 L12.3333333,93.8574939 C9.01962483,93.8574939 6.33333333,91.1712024 6.33333333,87.8574939 L6.33333333,64.4963012 L6.33333333,64.4963012 Z" id="Path-114" fill="#FF4A4A"></path>
                <path d="M6.33333333,59.7187964 C13.6349826,50.2391019 23.5238715,45.4992546 36,45.4992546 C48.4761285,45.4992546 57.6983507,50.2391019 63.6666667,59.7187964" id="Path-115" stroke="#FF4A4A"></path>
                <path d="M21.6930339,74.5028676 L39.3333333,93.8574939 L55.6666667,93.8574939 C60.0849447,93.8574939 63.6666667,90.2757719 63.6666667,85.8574939 L63.6666667,74.9940814 L63.6666667,74.9940814 L47.9173177,56.9334738 L21.6930339,74.5028676 Z" id="Path-117" fill="#DF3232"></path>
                <g id="Group-4" transform="translate(19.333333, 56.319956)">
                    <path d="M16.5445717,32.4196024 C14.9670123,28.1252039 12.2314326,24.5247973 10.7143202,23.9716829 C-6.08235647,17.8478888 0.0622705954,0 7.62892616,0 C13.1519898,0 16.16457,2.84719317 16.6666667,8.54157952 L16.6666667,8.54157952 C17.1687634,2.84719317 20.1813435,0 25.7044072,0 C33.2710627,0 39.4156898,17.8478888 22.6190132,23.9716829 C21.0619767,24.539353 18.2214993,28.3168093 16.6666667,32.7600328 Z" id="Combined-Shape-Copy" fill="#FFFFFF"></path>
                    <path d="M20,3.23201655 C23.8935737,1.31052225 26.9889223,1.72678342 29.2860458,4.48080006 C31.5831693,7.2348167 31.9472071,10.2912212 30.3781591,13.6500137 C30.3781591,10.2912212 29.3960655,7.59320235 27.4318783,5.555957 C25.4676911,3.51871165 22.9903983,2.74406483 20,3.23201655 Z" id="Path-36" fill="#FF4A4A"></path>
                </g>
            </g>
        </g>
    </g>
</svg>