<?xml version="1.0" encoding="UTF-8"?>
<svg width="72px" height="102px" viewBox="0 0 72 102" version="1.1" xmlns="http://www.w3.org/2000/svg" xmlns:xlink="http://www.w3.org/1999/xlink">
    <!-- Generator: Sketch 61.2 (89653) - https://sketch.com -->
    <title>03_C</title>
    <desc>Created with Sketch.</desc>
    <g id="Page-1" stroke="none" stroke-width="1" fill="none" fill-rule="evenodd">
        <g id="03_Copas" transform="translate(1.000000, -114.000000)">
            <g id="03_C" transform="translate(0.000000, 115.000000)">
                <rect id="Rectangle" stroke="#B0B0B0" fill="#FFFFFF" x="0" y="0.354900355" width="70" height="99.6450996" rx="9"></rect>
                <path d="M24.0161133,6.4974065 L57.6666667,6.4974065 C60.9803752,6.4974065 63.6666667,9.24750017 63.6666667,12.6399126 L63.6666667,87.7149877 C63.6666667,91.1074002 60.9803752,93.8574939 57.6666667,93.8574939 L12.3333333,93.8574939 C9.01962483,93.8574939 6.33333333,91.1074002 6.33333333,87.7149877 L6.33333333,36.277324" id="Rectangle" stroke="#FF4A4A"></path>
                <path d="M11.0405914,20.0862681 C11.7054659,20.0862681 12.3389785,19.9912306 12.941129,19.8011557 C13.5432796,19.6110808 14.0701613,19.3325228 14.5217742,18.9654816 C14.9733871,18.5984404 15.3340502,18.1527475 15.6037634,17.6284029 C15.8734767,17.1040583 16.0083333,16.5141707 16.0083333,15.85874 C16.0083333,15.3081782 15.9236559,14.8034966 15.7543011,14.3446951 C15.5849462,13.8858936 15.3403226,13.4828037 15.0204301,13.1354254 C14.7005376,12.7880471 14.3053763,12.5127662 13.8349462,12.3095827 C13.3645161,12.1063992 12.8344982,11.9916988 12.2448925,11.9654816 L12.2448925,11.9654816 L11.6051075,12.103122 L11.6051075,12.0637962 L12.4142473,11.1986276 L15.6696237,7.04975123 L15.6696237,6.08626809 L7.46532258,6.08626809 C7.46532258,6.32222314 7.48100358,6.61716696 7.51236559,6.97109955 C7.5437276,7.32503213 7.58763441,7.69207333 7.64408602,8.07222314 C7.70053763,8.45237296 7.76326165,8.83252277 7.83225806,9.21267258 C7.90125448,9.59282239 7.9671147,9.92053775 8.02983871,10.1958186 L8.02983871,10.1958186 L8.66962366,10.1958186 L9.40349462,8.19020067 L12.2448925,8.19020067 L13.2610215,8.07222314 L13.2610215,8.15087483 L12.6212366,8.83907708 L9.79865591,12.6930097 L9.79865591,13.4795265 L10.8900538,13.4795265 C11.191129,13.4795265 11.4922043,13.5286838 11.7932796,13.6269984 C12.0943548,13.725313 12.3609319,13.8793392 12.5930108,14.0890771 C12.8250896,14.2988149 13.0132616,14.5642643 13.1575269,14.8854254 C13.3017921,15.2065864 13.3739247,15.5900134 13.3739247,16.0357063 C13.3739247,16.4289647 13.3080645,16.7960059 13.1763441,17.1368299 C13.0446237,17.4776539 12.8689964,17.7725977 12.6494624,18.0216613 C12.4299283,18.270725 12.1821685,18.4640771 11.9061828,18.6017175 C11.6301971,18.739358 11.3479391,18.8081782 11.0594086,18.8081782 C10.7959677,18.8081782 10.5858423,18.7885153 10.4290323,18.7491894 C10.2722222,18.7098636 10.1310932,18.6770921 10.0056452,18.6508748 C9.90528674,18.5328973 9.78611111,18.3887025 9.64811828,18.2182906 C9.51012545,18.0478786 9.36899642,17.8774666 9.22473118,17.7070546 C9.08046595,17.5366426 8.94247312,17.3760621 8.81075269,17.225313 C8.67903226,17.074564 8.57553763,16.9533093 8.50026882,16.861549 L8.50026882,16.861549 L7.95456989,16.861549 L7.25833333,18.9064928 C7.44650538,19.0769048 7.67544803,19.2342082 7.94516129,19.3784029 C8.21487455,19.5225977 8.51594982,19.6471295 8.8483871,19.7519984 C9.18082437,19.8568673 9.53521505,19.9387962 9.91155914,19.9977849 C10.2879032,20.0567737 10.6642473,20.0862681 11.0405914,20.0862681 Z" id="3" fill="#FF4141" fill-rule="nonzero"></path>
                <rect id="Rectangle" fill="#FFFFFF" x="46.3333333" y="4.55391755" width="19" height="13"></rect>
                <g id="Small_Icon" transform="translate(49.000000, 6.000000)" fill="#FF4A4A">
                    <path d="M7.40555216,13.7540318 C6.69026797,11.9634079 5.49164671,10.4763449 4.82144407,10.2442987 C-2.73706041,7.62729529 0.0280217679,0 3.43301677,0 C5.91839541,0 7.27405649,1.216748 7.5,3.65024401 L7.5,3.65024401 C7.72594351,1.216748 9.08160459,0 11.5669832,0 C14.9719782,0 17.7370604,7.62729529 10.1785559,10.2442987 C9.47788954,10.4868925 8.19967469,12.1011884 7.5,14 Z" id="Combined-Shape-Copy"></path>
                </g>
                <path d="M6.33333333,64.4963012 C13.469184,53.6516053 23.3580729,48.2292573 36,48.2292573 C48.6419271,48.2292573 57.8641493,53.6516053 63.6666667,64.4963012 L63.6666667,87.8574939 C63.6666667,91.1712024 60.9803752,93.8574939 57.6666667,93.8574939 L12.3333333,93.8574939 C9.01962483,93.8574939 6.33333333,91.1712024 6.33333333,87.8574939 L6.33333333,64.4963012 L6.33333333,64.4963012 Z" id="Path-114" fill="#FF4A4A"></path>
                <path d="M6.33333333,59.7187964 C13.6349826,50.2391019 23.5238715,45.4992546 36,45.4992546 C48.4761285,45.4992546 57.6983507,50.2391019 63.6666667,59.7187964" id="Path-115" stroke="#FF4A4A"></path>
                <path d="M21.6930339,74.5028676 L39.3333333,93.8574939 L55.6666667,93.8574939 C60.0849447,93.8574939 63.6666667,90.2757719 63.6666667,85.8574939 L63.6666667,74.9940814 L63.6666667,74.9940814 L47.9173177,56.9334738 L21.6930339,74.5028676 Z" id="Path-117" fill="#DF3232"></path>
                <g id="Group-4" transform="translate(19.333333, 56.319956)">
                    <path d="M16.5445717,32.4196024 C14.9670123,28.1252039 12.2314326,24.5247973 10.7143202,23.9716829 C-6.08235647,17.8478888 0.0622705954,0 7.62892616,0 C13.1519898,0 16.16457,2.84719317 16.6666667,8.54157952 L16.6666667,8.54157952 C17.1687634,2.84719317 20.1813435,0 25.7044072,0 C33.2710627,0 39.4156898,17.8478888 22.6190132,23.9716829 C21.0619767,24.539353 18.2214993,28.3168093 16.6666667,32.7600328 Z" id="Combined-Shape-Copy" fill="#FFFFFF"></path>
                    <path d="M20,3.23201655 C23.8935737,1.31052225 26.9889223,1.72678342 29.2860458,4.48080006 C31.5831693,7.2348167 31.9472071,10.2912212 30.3781591,13.6500137 C30.3781591,10.2912212 29.3960655,7.59320235 27.4318783,5.555957 C25.4676911,3.51871165 22.9903983,2.74406483 20,3.23201655 Z" id="Path-36" fill="#FF4A4A"></path>
                </g>
            </g>
        </g>
    </g>
</svg>