<?xml version="1.0" encoding="UTF-8"?>
<svg width="72px" height="102px" viewBox="0 0 72 102" version="1.1" xmlns="http://www.w3.org/2000/svg" xmlns:xlink="http://www.w3.org/1999/xlink">
    <!-- Generator: Sketch 61.2 (89653) - https://sketch.com -->
    <title>03_E</title>
    <desc>Created with Sketch.</desc>
    <g id="Page-1" stroke="none" stroke-width="1" fill="none" fill-rule="evenodd">
        <g id="03_Espadas" transform="translate(1.000000, -114.000000)">
            <g id="03_E" transform="translate(0.000000, 115.000000)">
                <rect id="Rectangle" stroke="#B0B0B0" fill="#FFFFFF" x="0" y="0.354900355" width="70" height="99.6450996" rx="9"></rect>
                <path d="M24.0161133,6.4974065 L57.6666667,6.4974065 C60.9803752,6.4974065 63.6666667,9.24750017 63.6666667,12.6399126 L63.6666667,87.7149877 C63.6666667,91.1074002 60.9803752,93.8574939 57.6666667,93.8574939 L12.3333333,93.8574939 C9.01962483,93.8574939 6.33333333,91.1074002 6.33333333,87.7149877 L6.33333333,36.277324" id="Rectangle" stroke="#343333"></path>
                <path d="M11.0405914,20.0862681 C11.7054659,20.0862681 12.3389785,19.9912306 12.941129,19.8011557 C13.5432796,19.6110808 14.0701613,19.3325228 14.5217742,18.9654816 C14.9733871,18.5984404 15.3340502,18.1527475 15.6037634,17.6284029 C15.8734767,17.1040583 16.0083333,16.5141707 16.0083333,15.85874 C16.0083333,15.3081782 15.9236559,14.8034966 15.7543011,14.3446951 C15.5849462,13.8858936 15.3403226,13.4828037 15.0204301,13.1354254 C14.7005376,12.7880471 14.3053763,12.5127662 13.8349462,12.3095827 C13.3645161,12.1063992 12.8344982,11.9916988 12.2448925,11.9654816 L12.2448925,11.9654816 L11.6051075,12.103122 L11.6051075,12.0637962 L12.4142473,11.1986276 L15.6696237,7.04975123 L15.6696237,6.08626809 L7.46532258,6.08626809 C7.46532258,6.32222314 7.48100358,6.61716696 7.51236559,6.97109955 C7.5437276,7.32503213 7.58763441,7.69207333 7.64408602,8.07222314 C7.70053763,8.45237296 7.76326165,8.83252277 7.83225806,9.21267258 C7.90125448,9.59282239 7.9671147,9.92053775 8.02983871,10.1958186 L8.02983871,10.1958186 L8.66962366,10.1958186 L9.40349462,8.19020067 L12.2448925,8.19020067 L13.2610215,8.07222314 L13.2610215,8.15087483 L12.6212366,8.83907708 L9.79865591,12.6930097 L9.79865591,13.4795265 L10.8900538,13.4795265 C11.191129,13.4795265 11.4922043,13.5286838 11.7932796,13.6269984 C12.0943548,13.725313 12.3609319,13.8793392 12.5930108,14.0890771 C12.8250896,14.2988149 13.0132616,14.5642643 13.1575269,14.8854254 C13.3017921,15.2065864 13.3739247,15.5900134 13.3739247,16.0357063 C13.3739247,16.4289647 13.3080645,16.7960059 13.1763441,17.1368299 C13.0446237,17.4776539 12.8689964,17.7725977 12.6494624,18.0216613 C12.4299283,18.270725 12.1821685,18.4640771 11.9061828,18.6017175 C11.6301971,18.739358 11.3479391,18.8081782 11.0594086,18.8081782 C10.7959677,18.8081782 10.5858423,18.7885153 10.4290323,18.7491894 C10.2722222,18.7098636 10.1310932,18.6770921 10.0056452,18.6508748 C9.90528674,18.5328973 9.78611111,18.3887025 9.64811828,18.2182906 C9.51012545,18.0478786 9.36899642,17.8774666 9.22473118,17.7070546 C9.08046595,17.5366426 8.94247312,17.3760621 8.81075269,17.225313 C8.67903226,17.074564 8.57553763,16.9533093 8.50026882,16.861549 L8.50026882,16.861549 L7.95456989,16.861549 L7.25833333,18.9064928 C7.44650538,19.0769048 7.67544803,19.2342082 7.94516129,19.3784029 C8.21487455,19.5225977 8.51594982,19.6471295 8.8483871,19.7519984 C9.18082437,19.8568673 9.53521505,19.9387962 9.91155914,19.9977849 C10.2879032,20.0567737 10.6642473,20.0862681 11.0405914,20.0862681 Z" id="3" fill="#343333" fill-rule="nonzero"></path>
                <rect id="Rectangle" fill="#FFFFFF" x="46.3333333" y="3.4024024" width="19" height="17"></rect>
                <g id="Icon_Espadas" transform="translate(48.000000, 4.729730)" fill="#343333">
                    <path d="M8.24364559,13.0423819 C7.43214384,11.3870373 5.6075368,10.0910356 4.89150571,9.87556405 C-3.18384924,7.44548946 0.364914047,0.27027027 4.00274258,0.27027027 C6.65807139,0.27027027 8.10643256,1.4001077 8.34782609,3.65978256 L8.34782609,3.65978256 C8.57835396,1.4001077 9.9615212,0.27027027 12.4973278,0.27027027 C15.9714097,0.27027027 18.792595,7.35275876 11.0807295,9.78283334 C10.3658467,10.008099 9.06169707,11.5070881 8.34782609,13.2702703 Z" id="Combined-Shape" transform="translate(8.000000, 6.770270) scale(1, -1) translate(-8.000000, -6.770270) "></path>
                    <path d="M8.25328175,13.2702703 C6.70030104,15.9369369 5.06754556,17.2702703 3.35501531,17.2702703 C0.786219942,17.2702703 13,17.2702703 13,17.2702703 C11.8884078,17.2702703 10.3061684,15.9369369 8.25328175,13.2702703 Z" id="Path-7"></path>
                </g>
                <path d="M6.33333333,64.4963012 C13.469184,53.6516053 23.3580729,48.2292573 36,48.2292573 C48.6419271,48.2292573 57.8641493,53.6516053 63.6666667,64.4963012 L63.6666667,87.8574939 C63.6666667,91.1712024 60.9803752,93.8574939 57.6666667,93.8574939 L12.3333333,93.8574939 C9.01962483,93.8574939 6.33333333,91.1712024 6.33333333,87.8574939 L6.33333333,64.4963012 L6.33333333,64.4963012 Z" id="Path-114" fill="#343333"></path>
                <path d="M6.33333333,59.7187964 C13.6349826,50.2391019 23.5238715,45.4992546 36,45.4992546 C48.4761285,45.4992546 57.6983507,50.2391019 63.6666667,59.7187964" id="Path-115" stroke="#343333"></path>
                <path d="M21,79.8333247 L28.9766556,88.5124659 L26.976213,89.2536869 L31.4823343,94 L56,94 C60.418278,94 64,90.418278 64,86 L64,79.9782922 L64,79.9782922 L48.8274085,64 L21,79.8333247 Z" id="Path-117" fill="#1D1D1D"></path>
                <g id="Icon" transform="translate(18.000000, 53.000000)" fill="#FFFFFF">
                    <path d="M18.6442564,30.669869 C16.8704484,26.620945 12.6458646,23.4279672 11.0058879,22.9049313 C-7.16366079,17.1101381 0.821056605,1.77635684e-15 9.0061708,1.77635684e-15 C14.9806606,1.77635684e-15 18.2394733,2.69422772 18.7826087,8.08268316 L18.7826087,8.08268316 C19.3012964,2.69422772 22.4134227,1.77635684e-15 28.1189876,1.77635684e-15 C35.9356718,1.77635684e-15 42.2833387,16.889011 24.9316414,22.6838043 C23.3231551,23.2209762 20.3888184,26.7954887 18.7826087,31 Z" id="Combined-Shape" transform="translate(18.000000, 15.500000) scale(1, -1) translate(-18.000000, -15.500000) "></path>
                    <path d="M18.6078762,31 C14.8807225,35.6666667 10.9621093,38 6.85203675,38 C0.686927862,38 30,38 30,38 C27.3321788,38 23.5348042,35.6666667 18.6078762,31 Z" id="Path-7"></path>
                    <path d="M27,13 C31,14.6732891 33,17.2790013 33,20.8171364 C33,26.1243392 29.585567,28 27.3092784,28 C31.4824742,23.2114243 31.3793814,18.2114243 27,13 Z" id="Path-110"></path>
                </g>
            </g>
        </g>
    </g>
</svg>