<?xml version="1.0" encoding="UTF-8"?>
<svg width="72px" height="102px" viewBox="0 0 72 102" version="1.1" xmlns="http://www.w3.org/2000/svg" xmlns:xlink="http://www.w3.org/1999/xlink">
    <!-- Generator: Sketch 61.2 (89653) - https://sketch.com -->
    <title>04_P</title>
    <desc>Created with Sketch.</desc>
    <g id="Page-1" stroke="none" stroke-width="1" fill="none" fill-rule="evenodd">
        <g id="03_Paus" transform="translate(1.000000, -225.000000)">
            <g id="04_P" transform="translate(0.000000, 226.000000)">
                <rect id="Rectangle" stroke="#B0B0B0" fill="#FFFFFF" x="0" y="0.354900355" width="70" height="99.6450996" rx="9"></rect>
                <path d="M24.0161133,6.4974065 L57.6666667,6.4974065 C60.9803752,6.4974065 63.6666667,9.24750017 63.6666667,12.6399126 L63.6666667,87.7149877 C63.6666667,91.1074002 60.9803752,93.8574939 57.6666667,93.8574939 L12.3333333,93.8574939 C9.01962483,93.8574939 6.33333333,91.1074002 6.33333333,87.7149877 L6.33333333,36.277324" id="Rectangle" stroke="#343333"></path>
                <path d="M15.4203125,20 L15.4203125,19.1544944 C14.9192708,18.9447566 14.4046875,18.7874532 13.8765625,18.6825843 L13.8765625,18.6825843 L13.8765625,16.4606742 L16.375,16.4606742 L16.375,15.1825843 L13.8765625,15.1825843 L13.8765625,6 L12.7796875,6 L5,15.5758427 L5,16.4606742 L11.0125,16.4606742 L11.0125,18.6825843 C10.4302083,18.7743446 9.80729167,18.9316479 9.14375,19.1544944 L9.14375,19.1544944 L9.14375,20 L15.4203125,20 Z M6.75,15.625 L7.52433628,14.9280172 L10.3313053,10.9784483 L11.0669248,9.5 L11.125,9.5 L10.9314159,10.9784483 L10.9314159,15.4771552 L8.1244469,15.4771552 L6.75,15.625 Z" id="4" fill="#343333" fill-rule="nonzero"></path>
                <rect id="Rectangle" fill="#FFFFFF" x="46.3333333" y="3.4024024" width="19" height="17"></rect>
                <g id="Small_Icon" transform="translate(47.000000, 5.000000)" fill="#343333">
                    <path d="M8.62664087,13 C7.85015052,16.3333333 7.03377278,18 6.17750766,18 C4.89310997,18 11,18 11,18 C10.4442039,18 9.65308421,16.3333333 8.62664087,13 Z" id="Path-7"></path>
                    <path d="M4.59152968,2.40631429 C5.54868186,-0.802104762 11.3716789,-0.802104762 12.4685359,2.40631429 C12.9154036,3.71344797 12.7514443,4.96376984 11.9766581,6.1572799 C12.7874437,5.96851203 13.6227319,5.98454424 14.4814459,6.20427712 C17.839518,7.06356065 17.839518,13.3479056 14.4814459,14.7113203 C12.3424112,15.5797923 10.3487332,14.488713 8.50041211,11.4380826 C6.65126677,14.488713 4.65758884,15.5797923 2.51855409,14.7113203 C-0.83951803,13.3479056 -0.83951803,7.06356065 2.51855409,6.20427712 C3.4298893,5.97107923 4.31483957,5.96731208 5.17340491,6.19297567 C4.39148654,4.9896868 4.19753634,3.72699844 4.59152968,2.40631429 Z" id="Combined-Shape"></path>
                </g>
                <path d="M6.33333333,64.4963012 C13.469184,53.6516053 23.3580729,48.2292573 36,48.2292573 C48.6419271,48.2292573 57.8641493,53.6516053 63.6666667,64.4963012 L63.6666667,87.8574939 C63.6666667,91.1712024 60.9803752,93.8574939 57.6666667,93.8574939 L12.3333333,93.8574939 C9.01962483,93.8574939 6.33333333,91.1712024 6.33333333,87.8574939 L6.33333333,64.4963012 L6.33333333,64.4963012 Z" id="Path-114" fill="#343333"></path>
                <path d="M6.33333333,59.7187964 C13.6349826,50.2391019 23.5238715,45.4992546 36,45.4992546 C48.4761285,45.4992546 57.6983507,50.2391019 63.6666667,59.7187964" id="Path-115" stroke="#343333"></path>
                <path d="M20.429362,82.0540541 L30.8925781,93.5675676 L56,93.5675676 C60.418278,93.5675676 64,89.9858456 64,85.5675676 L64,79.6550425 L64,79.6550425 L44.6666667,57.099583 L20.429362,82.0540541 Z" id="Path-117" fill="#1D1D1D"></path>
                <g id="Icon_Paus-Copy-3" transform="translate(18.000000, 53.000000)">
                    <path d="M18.5528442,29.0540541 C17.2069276,34.9099099 15.7918728,37.8378378 14.3076799,37.8378378 C12.0813906,37.8378378 22.6666667,37.8378378 22.6666667,37.8378378 C21.7032868,37.8378378 20.3320126,34.9099099 18.5528442,29.0540541 Z" id="Path-7" fill="#FFFFFF"></path>
                    <path d="M9.9032993,5.09444916 C11.9677452,-1.69814972 24.5271506,-1.69814972 26.8929206,5.09444916 C27.8564346,7.86089077 27.5033484,10.5071345 25.8336621,13.0331804 C27.5830272,12.6360819 29.3835277,12.6702736 31.2344912,13.1351813 C38.4773918,14.9543852 38.4773918,28.2590794 31.2344912,31.145588 C26.6205426,32.984382 22.3201556,30.6739576 18.33333,24.2143149 C14.3465111,30.6739576 10.046124,32.984382 5.43217549,31.145588 C-1.81072516,28.2590794 -1.81072516,14.9543852 5.43217549,13.1351813 C7.39761241,12.6415213 9.30615153,12.6335001 11.1577929,13.1111177 C9.47156269,10.5620185 9.05378518,7.88958598 9.9032993,5.09444916 Z" id="Combined-Shape" fill="#FFFFFF"></path>
                    <path d="M26.6666667,15.7491798 C30.009662,15.0786063 32.2477406,16.0244669 33.3809024,18.5867615 C35.080645,22.4302034 32.9101892,26.9584203 31.3149837,27.7027027 C33.1345994,21.6254086 31.5851604,17.6409009 26.6666667,15.7491798 Z" id="Path-111" fill="#343333"></path>
                </g>
            </g>
        </g>
    </g>
</svg>