<?xml version="1.0" encoding="UTF-8"?>
<svg width="72px" height="102px" viewBox="0 0 72 102" version="1.1" xmlns="http://www.w3.org/2000/svg" xmlns:xlink="http://www.w3.org/1999/xlink">
    <!-- Generator: Sketch 61.2 (89653) - https://sketch.com -->
    <title>04_C</title>
    <desc>Created with Sketch.</desc>
    <g id="Page-1" stroke="none" stroke-width="1" fill="none" fill-rule="evenodd">
        <g id="03_Copas" transform="translate(1.000000, -225.000000)">
            <g id="04_C" transform="translate(0.000000, 226.000000)">
                <rect id="Rectangle" stroke="#B0B0B0" fill="#FFFFFF" x="0" y="0.354900355" width="70" height="99.6450996" rx="9"></rect>
                <path d="M24.0161133,6.4974065 L57.6666667,6.4974065 C60.9803752,6.4974065 63.6666667,9.24750017 63.6666667,12.6399126 L63.6666667,87.7149877 C63.6666667,91.1074002 60.9803752,93.8574939 57.6666667,93.8574939 L12.3333333,93.8574939 C9.01962483,93.8574939 6.33333333,91.1074002 6.33333333,87.7149877 L6.33333333,36.277324" id="Rectangle" stroke="#FF4A4A"></path>
                <path d="M14.61875,20 L14.61875,19.1544944 C14.15625,18.9447566 13.68125,18.7874532 13.19375,18.6825843 L13.19375,18.6825843 L13.19375,16.4606742 L15.5,16.4606742 L15.5,15.1825843 L13.19375,15.1825843 L13.19375,6 L12.18125,6 L5,15.5758427 L5,16.4606742 L10.55,16.4606742 L10.55,18.6825843 C10.0125,18.7743446 9.4375,18.9316479 8.825,19.1544944 L8.825,19.1544944 L8.825,20 L14.61875,20 Z M6.75,14.75 L7.52433628,14.1525862 L10.3313053,10.7672414 L11.0669248,9.5 L11.125,9.5 L10.9314159,10.7672414 L10.9314159,14.6232759 L8.1244469,14.6232759 L6.75,14.75 Z" id="4" fill="#FF4141" fill-rule="nonzero"></path>
                <rect id="Rectangle" fill="#FFFFFF" x="46.3333333" y="4.55391755" width="19" height="13"></rect>
                <path d="M6.33333333,64.4963012 C13.469184,53.6516053 23.3580729,48.2292573 36,48.2292573 C48.6419271,48.2292573 57.8641493,53.6516053 63.6666667,64.4963012 L63.6666667,87.8574939 C63.6666667,91.1712024 60.9803752,93.8574939 57.6666667,93.8574939 L12.3333333,93.8574939 C9.01962483,93.8574939 6.33333333,91.1712024 6.33333333,87.8574939 L6.33333333,64.4963012 L6.33333333,64.4963012 Z" id="Path-114" fill="#FF4A4A"></path>
                <path d="M6.33333333,59.7187964 C13.6349826,50.2391019 23.5238715,45.4992546 36,45.4992546 C48.4761285,45.4992546 57.6983507,50.2391019 63.6666667,59.7187964" id="Path-115" stroke="#FF4A4A"></path>
                <path d="M21.6930339,74.5028676 L39.3333333,93.8574939 L55.6666667,93.8574939 C60.0849447,93.8574939 63.6666667,90.2757719 63.6666667,85.8574939 L63.6666667,74.9940814 L63.6666667,74.9940814 L47.9173177,56.9334738 L21.6930339,74.5028676 Z" id="Path-117" fill="#DF3232"></path>
                <g id="Group-4" transform="translate(19.333333, 56.319956)">
                    <path d="M16.5445717,32.4196024 C14.9670123,28.1252039 12.2314326,24.5247973 10.7143202,23.9716829 C-6.08235647,17.8478888 0.0622705954,0 7.62892616,0 C13.1519898,0 16.16457,2.84719317 16.6666667,8.54157952 L16.6666667,8.54157952 C17.1687634,2.84719317 20.1813435,0 25.7044072,0 C33.2710627,0 39.4156898,17.8478888 22.6190132,23.9716829 C21.0619767,24.539353 18.2214993,28.3168093 16.6666667,32.7600328 Z" id="Combined-Shape-Copy" fill="#FFFFFF"></path>
                    <path d="M20,3.23201655 C23.8935737,1.31052225 26.9889223,1.72678342 29.2860458,4.48080006 C31.5831693,7.2348167 31.9472071,10.2912212 30.3781591,13.6500137 C30.3781591,10.2912212 29.3960655,7.59320235 27.4318783,5.555957 C25.4676911,3.51871165 22.9903983,2.74406483 20,3.23201655 Z" id="Path-36" fill="#FF4A4A"></path>
                </g>
                <g id="Small_Icon" transform="translate(49.000000, 6.000000)" fill="#FF4A4A">
                    <path d="M7.40555216,13.7540318 C6.69026797,11.9634079 5.49164671,10.4763449 4.82144407,10.2442987 C-2.73706041,7.62729529 0.0280217679,0 3.43301677,0 C5.91839541,0 7.27405649,1.216748 7.5,3.65024401 L7.5,3.65024401 C7.72594351,1.216748 9.08160459,0 11.5669832,0 C14.9719782,0 17.7370604,7.62729529 10.1785559,10.2442987 C9.47788954,10.4868925 8.19967469,12.1011884 7.5,14 Z" id="Combined-Shape-Copy"></path>
                </g>
            </g>
        </g>
    </g>
</svg>