<?xml version="1.0" encoding="UTF-8"?>
<svg width="72px" height="102px" viewBox="0 0 72 102" version="1.1" xmlns="http://www.w3.org/2000/svg" xmlns:xlink="http://www.w3.org/1999/xlink">
    <!-- Generator: Sketch 61.2 (89653) - https://sketch.com -->
    <title>05_O</title>
    <desc>Created with Sketch.</desc>
    <g id="Page-1" stroke="none" stroke-width="1" fill="none" fill-rule="evenodd">
        <g id="03_Ouros" transform="translate(1.000000, -339.000000)">
            <g id="05_O" transform="translate(0.000000, 340.000000)">
                <rect id="Rectangle" stroke="#B0B0B0" fill="#FFFFFF" x="0" y="0.354900355" width="70" height="99.6450996" rx="9"></rect>
                <path d="M24.0161133,6.4974065 L57.6666667,6.4974065 C60.9803752,6.4974065 63.6666667,9.24750017 63.6666667,12.6399126 L63.6666667,87.7149877 C63.6666667,91.1074002 60.9803752,93.8574939 57.6666667,93.8574939 L12.3333333,93.8574939 C9.01962483,93.8574939 6.33333333,91.1074002 6.33333333,87.7149877 L6.33333333,36.277324" id="Rectangle" stroke="#FF4A4A"></path>
                <path d="M10.2965667,20.1612681 C11.0023468,20.1612681 11.6594524,20.060877 12.2678835,19.8600947 C12.8763146,19.6593124 13.4056497,19.3733498 13.8558887,19.0022068 C14.3061278,18.6310638 14.66206,18.1747405 14.9236854,17.6332368 C15.1853107,17.0917331 15.3161234,16.4741755 15.3161234,15.780564 C15.3161234,15.1599643 15.2126901,14.6093341 15.0058236,14.1286736 C14.798957,13.648013 14.50691,13.2403641 14.1296827,12.905727 C13.7524555,12.5710899 13.2961321,12.3155488 12.7607127,12.1391038 C12.2252934,11.9626588 11.6290309,11.8744363 10.9719252,11.8744363 L10.9719252,11.8744363 L9.45693177,11.8744363 L9.78548457,9.26426678 L14.7867884,9.26426678 C14.8354628,9.11824331 14.8841373,8.90833458 14.9328118,8.63454058 C14.9814863,8.36074657 15.0240765,8.07174179 15.0605824,7.76752623 C15.0970882,7.46331068 15.1214255,7.16517943 15.1335941,6.87313249 C15.1457627,6.58108556 15.151847,6.34379742 15.151847,6.16126809 L15.151847,6.16126809 L14.5312473,6.16126809 L13.6733594,7.16517943 L8.90934376,7.16517943 L8.17922642,13.8275002 L9.76723164,13.8092472 C10.1809648,13.8092472 10.576445,13.8609639 10.9536723,13.9643972 C11.3308996,14.0678305 11.6594524,14.2229804 11.9393307,14.429847 C12.219209,14.6367135 12.4412864,14.9013811 12.6055628,15.2238496 C12.7698392,15.5463181 12.8519774,15.9205032 12.8519774,16.346405 C12.8519774,16.7358009 12.78505,17.0917331 12.6511951,17.4142016 C12.5173403,17.7366701 12.3378531,18.0135062 12.1127336,18.2447101 C11.8876141,18.4759139 11.6168622,18.6554011 11.3004781,18.7831716 C10.9840939,18.9109421 10.6433724,18.9748274 10.2783138,18.9748274 C10.1079531,18.9748274 9.97105606,18.9626588 9.86762277,18.9383215 C9.76418948,18.9139843 9.65162973,18.8774784 9.5299435,18.8288039 C9.44476315,18.7192863 9.34741417,18.5915158 9.23789657,18.4454923 C9.12837897,18.2994689 9.01277705,18.1534454 8.89109083,18.0074219 C8.76940461,17.8613985 8.65380269,17.7214593 8.54428509,17.5876045 C8.43476749,17.4537496 8.33741851,17.344232 8.25223816,17.2590517 L8.25223816,17.2590517 L7.72290309,17.2590517 L6.95627988,19.0660921 C7.30916993,19.3459704 7.77766189,19.5984693 8.36175576,19.8235888 C8.94584963,20.0487083 9.59078661,20.1612681 10.2965667,20.1612681 Z" id="5" fill="#FF4141" fill-rule="nonzero"></path>
                <rect id="Rectangle" fill="#FFFFFF" x="51.3333333" y="4.55391755" width="14" height="13"></rect>
                <polygon id="Small_Icon" fill="#FF4A4A" transform="translate(56.500000, 15.000000) rotate(-360.000000) translate(-56.500000, -15.000000) " points="56.5 5 61 15.1448916 56.6199707 25 52 15.1448916"></polygon>
                <path d="M6.33333333,64.4963012 C13.469184,53.6516053 23.3580729,48.2292573 36,48.2292573 C48.6419271,48.2292573 57.8641493,53.6516053 63.6666667,64.4963012 L63.6666667,87.8574939 C63.6666667,91.1712024 60.9803752,93.8574939 57.6666667,93.8574939 L12.3333333,93.8574939 C9.01962483,93.8574939 6.33333333,91.1712024 6.33333333,87.8574939 L6.33333333,64.4963012 L6.33333333,64.4963012 Z" id="Path-114" fill="#FF4A4A"></path>
                <path d="M6.33333333,59.7187964 C13.6349826,50.2391019 23.5238715,45.4992546 36,45.4992546 C48.4761285,45.4992546 57.6983507,50.2391019 63.6666667,59.7187964" id="Path-115" stroke="#FF4A4A"></path>
                <path d="M36.6640625,90 L40.3333333,93.8574939 L56.8032542,93.8574939 C60.5938123,93.8574939 63.6666667,90.7846394 63.6666667,86.9940814 L63.6666667,86.9940814 L63.6666667,86.9940814 L36.6640625,53.0126953 L36.6640625,90 Z" id="Path-117" fill="#DF3232"></path>
                <g id="Icon-Copy-4" transform="translate(27.000000, 52.000000)">
                    <polygon id="Triangle-Copy-2" fill="#FFFFFF" transform="translate(9.000000, 19.000000) rotate(-360.000000) translate(-9.000000, -19.000000) " points="9 0 18 19.2752941 9.23994141 38 0 19.2752941"></polygon>
                    <polygon id="Path-112" fill="#DF3232" points="9 5 16 19 13.7302669 19"></polygon>
                </g>
            </g>
        </g>
    </g>
</svg>