<?xml version="1.0" encoding="UTF-8"?>
<svg width="72px" height="102px" viewBox="0 0 72 102" version="1.1" xmlns="http://www.w3.org/2000/svg" xmlns:xlink="http://www.w3.org/1999/xlink">
    <!-- Generator: Sketch 61.2 (89653) - https://sketch.com -->
    <title>05_E</title>
    <desc>Created with Sketch.</desc>
    <g id="Page-1" stroke="none" stroke-width="1" fill="none" fill-rule="evenodd">
        <g id="03_Espadas" transform="translate(1.000000, -338.000000)">
            <g id="05_E" transform="translate(0.000000, 339.000000)">
                <rect id="Rectangle" stroke="#B0B0B0" fill="#FFFFFF" x="0" y="0.354900355" width="70" height="99.6450996" rx="9"></rect>
                <path d="M24.0161133,6.4974065 L57.6666667,6.4974065 C60.9803752,6.4974065 63.6666667,9.24750017 63.6666667,12.6399126 L63.6666667,87.7149877 C63.6666667,91.1074002 60.9803752,93.8574939 57.6666667,93.8574939 L12.3333333,93.8574939 C9.01962483,93.8574939 6.33333333,91.1074002 6.33333333,87.7149877 L6.33333333,36.277324" id="Rectangle" stroke="#343333"></path>
                <path d="M10.2295124,21.1612681 C10.9682314,21.1612681 11.6560044,21.060877 12.2928311,20.8600947 C12.9296579,20.6593124 13.4836972,20.3733498 13.9549491,20.0022068 C14.4262009,19.6310638 14.7987445,19.1747405 15.0725801,18.6332368 C15.3464156,18.0917331 15.4833333,17.4741755 15.4833333,16.780564 C15.4833333,16.1599643 15.3750728,15.6093341 15.1585517,15.1286736 C14.9420306,14.648013 14.6363537,14.2403641 14.2415211,13.905727 C13.8466885,13.5710899 13.3690684,13.3155488 12.8086608,13.1391038 C12.2482533,12.9626588 11.624163,12.8744363 10.9363901,12.8744363 L10.9363901,12.8744363 L9.35069141,12.8744363 L9.69457787,10.2642668 L14.929294,10.2642668 C14.9802402,10.1182433 15.0311863,9.90833458 15.0821325,9.63454058 C15.1330786,9.36074657 15.1776565,9.07174179 15.2158661,8.76752623 C15.2540757,8.46331068 15.2795488,8.16517943 15.2922853,7.87313249 C15.3050218,7.58108556 15.3113901,7.34379742 15.3113901,7.16126809 L15.3113901,7.16126809 L14.6618268,7.16126809 L13.763901,8.16517943 L8.77754731,8.16517943 L8.01335517,14.8275002 L9.67547307,14.8092472 C10.1085153,14.8092472 10.5224527,14.8609639 10.9172853,14.9643972 C11.3121179,15.0678305 11.6560044,15.2229804 11.9489447,15.429847 C12.241885,15.6367135 12.4743268,15.9013811 12.64627,16.2238496 C12.8182132,16.5463181 12.9041849,16.9205032 12.9041849,17.346405 C12.9041849,17.7358009 12.8341339,18.0917331 12.694032,18.4142016 C12.5539301,18.7366701 12.3660662,19.0135062 12.1304403,19.2447101 C11.8948144,19.4759139 11.6114265,19.6554011 11.2802766,19.7831716 C10.9491266,19.9109421 10.5925036,19.9748274 10.2104076,19.9748274 C10.0320961,19.9748274 9.88881004,19.9626588 9.78054949,19.9383215 C9.67228894,19.9139843 9.55447598,19.8774784 9.42711063,19.8288039 C9.33795488,19.7192863 9.23606259,19.5915158 9.12143377,19.4454923 C9.00680495,19.2994689 8.88580786,19.1534454 8.7584425,19.0074219 C8.63107715,18.8613985 8.51008006,18.7214593 8.39545124,18.5876045 C8.28082242,18.4537496 8.17893013,18.344232 8.08977438,18.2590517 L8.08977438,18.2590517 L7.53573508,18.2590517 L6.73333333,20.0660921 C7.10269287,20.3459704 7.59304949,20.5984693 8.2044032,20.8235888 C8.81575691,21.0487083 9.4907933,21.1612681 10.2295124,21.1612681 Z" id="5" fill="#343333" fill-rule="nonzero"></path>
                <rect id="Rectangle" fill="#FFFFFF" x="46.3333333" y="3.4024024" width="19" height="17"></rect>
                <g id="Icon_Espadas" transform="translate(48.000000, 4.729730)" fill="#343333">
                    <path d="M8.24364559,13.0423819 C7.43214384,11.3870373 5.6075368,10.0910356 4.89150571,9.87556405 C-3.18384924,7.44548946 0.364914047,0.27027027 4.00274258,0.27027027 C6.65807139,0.27027027 8.10643256,1.4001077 8.34782609,3.65978256 L8.34782609,3.65978256 C8.57835396,1.4001077 9.9615212,0.27027027 12.4973278,0.27027027 C15.9714097,0.27027027 18.792595,7.35275876 11.0807295,9.78283334 C10.3658467,10.008099 9.06169707,11.5070881 8.34782609,13.2702703 Z" id="Combined-Shape" transform="translate(8.000000, 6.770270) scale(1, -1) translate(-8.000000, -6.770270) "></path>
                    <path d="M8.25328175,13.2702703 C6.70030104,15.9369369 5.06754556,17.2702703 3.35501531,17.2702703 C0.786219942,17.2702703 13,17.2702703 13,17.2702703 C11.8884078,17.2702703 10.3061684,15.9369369 8.25328175,13.2702703 Z" id="Path-7"></path>
                </g>
                <path d="M6.33333333,64.4963012 C13.469184,53.6516053 23.3580729,48.2292573 36,48.2292573 C48.6419271,48.2292573 57.8641493,53.6516053 63.6666667,64.4963012 L63.6666667,87.8574939 C63.6666667,91.1712024 60.9803752,93.8574939 57.6666667,93.8574939 L12.3333333,93.8574939 C9.01962483,93.8574939 6.33333333,91.1712024 6.33333333,87.8574939 L6.33333333,64.4963012 L6.33333333,64.4963012 Z" id="Path-114" fill="#343333"></path>
                <path d="M6.33333333,59.7187964 C13.6349826,50.2391019 23.5238715,45.4992546 36,45.4992546 C48.4761285,45.4992546 57.6983507,50.2391019 63.6666667,59.7187964" id="Path-115" stroke="#343333"></path>
                <path d="M21,79.8333247 L28.9766556,88.5124659 L26.976213,89.2536869 L31.4823343,94 L56,94 C60.418278,94 64,90.418278 64,86 L64,79.9782922 L64,79.9782922 L48.8274085,64 L21,79.8333247 Z" id="Path-117" fill="#1D1D1D"></path>
                <g id="Icon" transform="translate(18.000000, 53.000000)" fill="#FFFFFF">
                    <path d="M18.6442564,30.669869 C16.8704484,26.620945 12.6458646,23.4279672 11.0058879,22.9049313 C-7.16366079,17.1101381 0.821056605,1.77635684e-15 9.0061708,1.77635684e-15 C14.9806606,1.77635684e-15 18.2394733,2.69422772 18.7826087,8.08268316 L18.7826087,8.08268316 C19.3012964,2.69422772 22.4134227,1.77635684e-15 28.1189876,1.77635684e-15 C35.9356718,1.77635684e-15 42.2833387,16.889011 24.9316414,22.6838043 C23.3231551,23.2209762 20.3888184,26.7954887 18.7826087,31 Z" id="Combined-Shape" transform="translate(18.000000, 15.500000) scale(1, -1) translate(-18.000000, -15.500000) "></path>
                    <path d="M18.6078762,31 C14.8807225,35.6666667 10.9621093,38 6.85203675,38 C0.686927862,38 30,38 30,38 C27.3321788,38 23.5348042,35.6666667 18.6078762,31 Z" id="Path-7"></path>
                    <path d="M27,13 C31,14.6732891 33,17.2790013 33,20.8171364 C33,26.1243392 29.585567,28 27.3092784,28 C31.4824742,23.2114243 31.3793814,18.2114243 27,13 Z" id="Path-110"></path>
                </g>
            </g>
        </g>
    </g>
</svg>