<?xml version="1.0" encoding="UTF-8"?>
<svg width="72px" height="102px" viewBox="0 0 72 102" version="1.1" xmlns="http://www.w3.org/2000/svg" xmlns:xlink="http://www.w3.org/1999/xlink">
    <!-- Generator: Sketch 61.2 (89653) - https://sketch.com -->
    <title>06_P</title>
    <desc>Created with Sketch.</desc>
    <g id="Page-1" stroke="none" stroke-width="1" fill="none" fill-rule="evenodd">
        <g id="03_Paus" transform="translate(1.000000, -453.000000)">
            <g id="06_P" transform="translate(0.000000, 454.000000)">
                <rect id="Rectangle" stroke="#B0B0B0" fill="#FFFFFF" x="0" y="0.354900355" width="70" height="99.6450996" rx="9"></rect>
                <path d="M24.0161133,6.4974065 L57.6666667,6.4974065 C60.9803752,6.4974065 63.6666667,9.24750017 63.6666667,12.6399126 L63.6666667,87.7149877 C63.6666667,91.1074002 60.9803752,93.8574939 57.6666667,93.8574939 L12.3333333,93.8574939 C9.01962483,93.8574939 6.33333333,91.1074002 6.33333333,87.7149877 L6.33333333,36.277324" id="Rectangle" stroke="#343333"></path>
                <path d="M11.9091365,20 C12.5533802,20 13.1621904,19.8977169 13.7355673,19.6931507 C14.3089441,19.4885845 14.8082329,19.1977169 15.2334337,18.8205479 C15.6586345,18.443379 15.9968624,17.9863014 16.2481175,17.4493151 C16.4993725,16.9123288 16.625,16.3114155 16.625,15.6465753 C16.625,14.9945205 16.5283635,14.4223744 16.3350904,13.930137 C16.1418173,13.4378995 15.8776774,13.0255708 15.5426707,12.6931507 C15.207664,12.3607306 14.8114541,12.1114155 14.3540412,11.9452055 C13.8966282,11.7789954 13.4037818,11.6958904 12.875502,11.6958904 C12.4889558,11.6958904 12.1442855,11.7374429 11.841491,11.8205479 C11.5386965,11.903653 11.2713353,12.0123288 11.0394076,12.1465753 C10.8074799,12.2808219 10.6109856,12.4278539 10.4499247,12.5876712 C10.2888638,12.7474886 10.1567938,12.9105023 10.0537149,13.0767123 C10.1310241,12.2712329 10.3146335,11.5328767 10.6045432,10.8616438 C10.8944528,10.190411 11.2681141,9.58949772 11.7255271,9.05890411 C12.1829401,8.5283105 12.7079987,8.07762557 13.3007028,7.70684932 C13.893407,7.33607306 14.5376506,7.04200913 15.2334337,6.82465753 L15.2334337,6.82465753 L14.9435241,6 C13.8611948,6.23013699 12.8400686,6.60091324 11.8801456,7.11232877 C10.9202226,7.62374429 10.0794846,8.2630137 9.35793173,9.03013699 C8.63637885,9.79726027 8.06300201,10.6794521 7.6378012,11.6767123 C7.2126004,12.6739726 7,13.773516 7,14.9753425 C7,15.7041096 7.1063002,16.3753425 7.3189006,16.9890411 C7.531501,17.6027397 7.84395917,18.1333333 8.2562751,18.5808219 C8.66859103,19.0283105 9.18076473,19.3767123 9.79279618,19.6260274 C10.4048276,19.8753425 11.1102744,20 11.9091365,20 Z M11.59375,19.1764706 C11.2021605,19.1764706 10.8679591,19.0810284 10.5911458,18.8901441 C10.3143326,18.6992598 10.0881559,18.4479288 9.91261574,18.1361511 C9.73707562,17.8243735 9.6087963,17.4680561 9.52777778,17.0671991 C9.44675926,16.666342 9.40625,16.249578 9.40625,15.8169069 C9.40625,15.6005714 9.41637731,15.3746916 9.43663194,15.1392676 C9.45688657,14.9038437 9.48726852,14.6970523 9.52777778,14.5188937 C9.67631173,14.2262044 9.91261574,13.9685106 10.2366898,13.7458122 C10.5607639,13.5231139 10.9523534,13.4117647 11.4114583,13.4117647 C12.7482639,13.4117647 13.4166667,14.3534606 13.4166667,16.2368524 C13.4166667,16.6313466 13.382909,17.0067524 13.3153935,17.3630697 C13.2478781,17.7193871 13.1432292,18.0311648 13.0014468,18.2984028 C12.8596644,18.5656408 12.6739969,18.778795 12.4444444,18.9378652 C12.214892,19.0969355 11.9313272,19.1764706 11.59375,19.1764706 Z" id="6" fill="#343333" fill-rule="nonzero"></path>
                <rect id="Rectangle" fill="#FFFFFF" x="46.3333333" y="3.4024024" width="19" height="17"></rect>
                <g id="Small_Icon" transform="translate(47.000000, 5.000000)" fill="#343333">
                    <path d="M8.62664087,13 C7.85015052,16.3333333 7.03377278,18 6.17750766,18 C4.89310997,18 11,18 11,18 C10.4442039,18 9.65308421,16.3333333 8.62664087,13 Z" id="Path-7"></path>
                    <path d="M4.59152968,2.40631429 C5.54868186,-0.802104762 11.3716789,-0.802104762 12.4685359,2.40631429 C12.9154036,3.71344797 12.7514443,4.96376984 11.9766581,6.1572799 C12.7874437,5.96851203 13.6227319,5.98454424 14.4814459,6.20427712 C17.839518,7.06356065 17.839518,13.3479056 14.4814459,14.7113203 C12.3424112,15.5797923 10.3487332,14.488713 8.50041211,11.4380826 C6.65126677,14.488713 4.65758884,15.5797923 2.51855409,14.7113203 C-0.83951803,13.3479056 -0.83951803,7.06356065 2.51855409,6.20427712 C3.4298893,5.97107923 4.31483957,5.96731208 5.17340491,6.19297567 C4.39148654,4.9896868 4.19753634,3.72699844 4.59152968,2.40631429 Z" id="Combined-Shape"></path>
                </g>
                <path d="M6.33333333,64.4963012 C13.469184,53.6516053 23.3580729,48.2292573 36,48.2292573 C48.6419271,48.2292573 57.8641493,53.6516053 63.6666667,64.4963012 L63.6666667,87.8574939 C63.6666667,91.1712024 60.9803752,93.8574939 57.6666667,93.8574939 L12.3333333,93.8574939 C9.01962483,93.8574939 6.33333333,91.1712024 6.33333333,87.8574939 L6.33333333,64.4963012 L6.33333333,64.4963012 Z" id="Path-114" fill="#343333"></path>
                <path d="M6.33333333,59.7187964 C13.6349826,50.2391019 23.5238715,45.4992546 36,45.4992546 C48.4761285,45.4992546 57.6983507,50.2391019 63.6666667,59.7187964" id="Path-115" stroke="#343333"></path>
                <path d="M20.429362,82.0540541 L30.8925781,93.5675676 L56,93.5675676 C60.418278,93.5675676 64,89.9858456 64,85.5675676 L64,79.6550425 L64,79.6550425 L44.6666667,57.099583 L20.429362,82.0540541 Z" id="Path-117" fill="#1D1D1D"></path>
                <g id="Icon_Paus-Copy-3" transform="translate(18.000000, 53.000000)">
                    <path d="M18.5528442,29.0540541 C17.2069276,34.9099099 15.7918728,37.8378378 14.3076799,37.8378378 C12.0813906,37.8378378 22.6666667,37.8378378 22.6666667,37.8378378 C21.7032868,37.8378378 20.3320126,34.9099099 18.5528442,29.0540541 Z" id="Path-7" fill="#FFFFFF"></path>
                    <path d="M9.9032993,5.09444916 C11.9677452,-1.69814972 24.5271506,-1.69814972 26.8929206,5.09444916 C27.8564346,7.86089077 27.5033484,10.5071345 25.8336621,13.0331804 C27.5830272,12.6360819 29.3835277,12.6702736 31.2344912,13.1351813 C38.4773918,14.9543852 38.4773918,28.2590794 31.2344912,31.145588 C26.6205426,32.984382 22.3201556,30.6739576 18.33333,24.2143149 C14.3465111,30.6739576 10.046124,32.984382 5.43217549,31.145588 C-1.81072516,28.2590794 -1.81072516,14.9543852 5.43217549,13.1351813 C7.39761241,12.6415213 9.30615153,12.6335001 11.1577929,13.1111177 C9.47156269,10.5620185 9.05378518,7.88958598 9.9032993,5.09444916 Z" id="Combined-Shape" fill="#FFFFFF"></path>
                    <path d="M26.6666667,15.7491798 C30.009662,15.0786063 32.2477406,16.0244669 33.3809024,18.5867615 C35.080645,22.4302034 32.9101892,26.9584203 31.3149837,27.7027027 C33.1345994,21.6254086 31.5851604,17.6409009 26.6666667,15.7491798 Z" id="Path-111" fill="#343333"></path>
                </g>
            </g>
        </g>
    </g>
</svg>