<?xml version="1.0" encoding="UTF-8"?>
<svg width="72px" height="102px" viewBox="0 0 72 102" version="1.1" xmlns="http://www.w3.org/2000/svg" xmlns:xlink="http://www.w3.org/1999/xlink">
    <!-- Generator: Sketch 61.2 (89653) - https://sketch.com -->
    <title>06_C</title>
    <desc>Created with Sketch.</desc>
    <g id="Page-1" stroke="none" stroke-width="1" fill="none" fill-rule="evenodd">
        <g id="03_Copas" transform="translate(1.000000, -453.000000)">
            <g id="06_C" transform="translate(0.000000, 454.000000)">
                <rect id="Rectangle" stroke="#B0B0B0" fill="#FFFFFF" x="0" y="0.354900355" width="70" height="99.6450996" rx="9"></rect>
                <path d="M24.0161133,6.4974065 L57.6666667,6.4974065 C60.9803752,6.4974065 63.6666667,9.24750017 63.6666667,12.6399126 L63.6666667,87.7149877 C63.6666667,91.1074002 60.9803752,93.8574939 57.6666667,93.8574939 L12.3333333,93.8574939 C9.01962483,93.8574939 6.33333333,91.1074002 6.33333333,87.7149877 L6.33333333,36.277324" id="Rectangle" stroke="#FF4A4A"></path>
                <path d="M11.9091365,20 C12.5533802,20 13.1621904,19.8977169 13.7355673,19.6931507 C14.3089441,19.4885845 14.8082329,19.1977169 15.2334337,18.8205479 C15.6586345,18.443379 15.9968624,17.9863014 16.2481175,17.4493151 C16.4993725,16.9123288 16.625,16.3114155 16.625,15.6465753 C16.625,14.9945205 16.5283635,14.4223744 16.3350904,13.930137 C16.1418173,13.4378995 15.8776774,13.0255708 15.5426707,12.6931507 C15.207664,12.3607306 14.8114541,12.1114155 14.3540412,11.9452055 C13.8966282,11.7789954 13.4037818,11.6958904 12.875502,11.6958904 C12.4889558,11.6958904 12.1442855,11.7374429 11.841491,11.8205479 C11.5386965,11.903653 11.2713353,12.0123288 11.0394076,12.1465753 C10.8074799,12.2808219 10.6109856,12.4278539 10.4499247,12.5876712 C10.2888638,12.7474886 10.1567938,12.9105023 10.0537149,13.0767123 C10.1310241,12.2712329 10.3146335,11.5328767 10.6045432,10.8616438 C10.8944528,10.190411 11.2681141,9.58949772 11.7255271,9.05890411 C12.1829401,8.5283105 12.7079987,8.07762557 13.3007028,7.70684932 C13.893407,7.33607306 14.5376506,7.04200913 15.2334337,6.82465753 L15.2334337,6.82465753 L14.9435241,6 C13.8611948,6.23013699 12.8400686,6.60091324 11.8801456,7.11232877 C10.9202226,7.62374429 10.0794846,8.2630137 9.35793173,9.03013699 C8.63637885,9.79726027 8.06300201,10.6794521 7.6378012,11.6767123 C7.2126004,12.6739726 7,13.773516 7,14.9753425 C7,15.7041096 7.1063002,16.3753425 7.3189006,16.9890411 C7.531501,17.6027397 7.84395917,18.1333333 8.2562751,18.5808219 C8.66859103,19.0283105 9.18076473,19.3767123 9.79279618,19.6260274 C10.4048276,19.8753425 11.1102744,20 11.9091365,20 Z M11.5340909,19.125 C11.1923401,19.125 10.9006734,19.0235927 10.6590909,18.8207781 C10.4175084,18.6179636 10.2201178,18.3509244 10.0669192,18.0196606 C9.91372054,17.6883968 9.80176768,17.3098096 9.73106061,16.883899 C9.66035354,16.4579884 9.625,16.0151766 9.625,15.5554636 C9.625,15.3256071 9.63383838,15.0856098 9.65151515,14.8354719 C9.66919192,14.5853339 9.69570707,14.3656181 9.73106061,14.1763245 C9.86069024,13.8653422 10.0669192,13.5915425 10.3497475,13.3549255 C10.6325758,13.1183085 10.9743266,13 11.375,13 C12.5416667,13 13.125,14.0005519 13.125,16.0016556 C13.125,16.4208057 13.0955387,16.8196744 13.0366162,17.1982616 C12.9776936,17.5768488 12.8863636,17.9081126 12.7626263,18.192053 C12.6388889,18.4759934 12.4768519,18.7024696 12.2765152,18.8714818 C12.0761785,19.0404939 11.8287037,19.125 11.5340909,19.125 Z" id="6" fill="#FF4141" fill-rule="nonzero"></path>
                <rect id="Rectangle" fill="#FFFFFF" x="46.3333333" y="4.55391755" width="19" height="13"></rect>
                <path d="M6.33333333,64.4963012 C13.469184,53.6516053 23.3580729,48.2292573 36,48.2292573 C48.6419271,48.2292573 57.8641493,53.6516053 63.6666667,64.4963012 L63.6666667,87.8574939 C63.6666667,91.1712024 60.9803752,93.8574939 57.6666667,93.8574939 L12.3333333,93.8574939 C9.01962483,93.8574939 6.33333333,91.1712024 6.33333333,87.8574939 L6.33333333,64.4963012 L6.33333333,64.4963012 Z" id="Path-114" fill="#FF4A4A"></path>
                <path d="M6.33333333,59.7187964 C13.6349826,50.2391019 23.5238715,45.4992546 36,45.4992546 C48.4761285,45.4992546 57.6983507,50.2391019 63.6666667,59.7187964" id="Path-115" stroke="#FF4A4A"></path>
                <path d="M21.6930339,74.5028676 L39.3333333,93.8574939 L55.6666667,93.8574939 C60.0849447,93.8574939 63.6666667,90.2757719 63.6666667,85.8574939 L63.6666667,74.9940814 L63.6666667,74.9940814 L47.9173177,56.9334738 L21.6930339,74.5028676 Z" id="Path-117" fill="#DF3232"></path>
                <g id="Group-4" transform="translate(19.333333, 56.319956)">
                    <path d="M16.5445717,32.4196024 C14.9670123,28.1252039 12.2314326,24.5247973 10.7143202,23.9716829 C-6.08235647,17.8478888 0.0622705954,0 7.62892616,0 C13.1519898,0 16.16457,2.84719317 16.6666667,8.54157952 L16.6666667,8.54157952 C17.1687634,2.84719317 20.1813435,0 25.7044072,0 C33.2710627,0 39.4156898,17.8478888 22.6190132,23.9716829 C21.0619767,24.539353 18.2214993,28.3168093 16.6666667,32.7600328 Z" id="Combined-Shape-Copy" fill="#FFFFFF"></path>
                    <path d="M20,3.23201655 C23.8935737,1.31052225 26.9889223,1.72678342 29.2860458,4.48080006 C31.5831693,7.2348167 31.9472071,10.2912212 30.3781591,13.6500137 C30.3781591,10.2912212 29.3960655,7.59320235 27.4318783,5.555957 C25.4676911,3.51871165 22.9903983,2.74406483 20,3.23201655 Z" id="Path-36" fill="#FF4A4A"></path>
                </g>
                <g id="Small_Icon" transform="translate(49.000000, 6.000000)" fill="#FF4A4A">
                    <path d="M7.40555216,13.7540318 C6.69026797,11.9634079 5.49164671,10.4763449 4.82144407,10.2442987 C-2.73706041,7.62729529 0.0280217679,0 3.43301677,0 C5.91839541,0 7.27405649,1.216748 7.5,3.65024401 L7.5,3.65024401 C7.72594351,1.216748 9.08160459,0 11.5669832,0 C14.9719782,0 17.7370604,7.62729529 10.1785559,10.2442987 C9.47788954,10.4868925 8.19967469,12.1011884 7.5,14 Z" id="Combined-Shape-Copy"></path>
                </g>
            </g>
        </g>
    </g>
</svg>