<?xml version="1.0" encoding="UTF-8"?>
<svg width="72px" height="102px" viewBox="0 0 72 102" version="1.1" xmlns="http://www.w3.org/2000/svg" xmlns:xlink="http://www.w3.org/1999/xlink">
    <!-- Generator: Sketch 61.2 (89653) - https://sketch.com -->
    <title>06_E</title>
    <desc>Created with Sketch.</desc>
    <g id="Page-1" stroke="none" stroke-width="1" fill="none" fill-rule="evenodd">
        <g id="03_Espadas" transform="translate(1.000000, -452.000000)">
            <g id="06_E" transform="translate(0.000000, 453.000000)">
                <rect id="Rectangle" stroke="#B0B0B0" fill="#FFFFFF" x="0" y="0.354900355" width="70" height="99.6450996" rx="9"></rect>
                <path d="M24.0161133,6.4974065 L57.6666667,6.4974065 C60.9803752,6.4974065 63.6666667,9.24750017 63.6666667,12.6399126 L63.6666667,87.7149877 C63.6666667,91.1074002 60.9803752,93.8574939 57.6666667,93.8574939 L12.3333333,93.8574939 C9.01962483,93.8574939 6.33333333,91.1074002 6.33333333,87.7149877 L6.33333333,36.277324" id="Rectangle" stroke="#343333"></path>
                <path d="M11.9091365,21 C12.5533802,21 13.1621904,20.8977169 13.7355673,20.6931507 C14.3089441,20.4885845 14.8082329,20.1977169 15.2334337,19.8205479 C15.6586345,19.443379 15.9968624,18.9863014 16.2481175,18.4493151 C16.4993725,17.9123288 16.625,17.3114155 16.625,16.6465753 C16.625,15.9945205 16.5283635,15.4223744 16.3350904,14.930137 C16.1418173,14.4378995 15.8776774,14.0255708 15.5426707,13.6931507 C15.207664,13.3607306 14.8114541,13.1114155 14.3540412,12.9452055 C13.8966282,12.7789954 13.4037818,12.6958904 12.875502,12.6958904 C12.4889558,12.6958904 12.1442855,12.7374429 11.841491,12.8205479 C11.5386965,12.903653 11.2713353,13.0123288 11.0394076,13.1465753 C10.8074799,13.2808219 10.6109856,13.4278539 10.4499247,13.5876712 C10.2888638,13.7474886 10.1567938,13.9105023 10.0537149,14.0767123 C10.1310241,13.2712329 10.3146335,12.5328767 10.6045432,11.8616438 C10.8944528,11.190411 11.2681141,10.5894977 11.7255271,10.0589041 C12.1829401,9.5283105 12.7079987,9.07762557 13.3007028,8.70684932 C13.893407,8.33607306 14.5376506,8.04200913 15.2334337,7.82465753 L15.2334337,7.82465753 L14.9435241,7 C13.8611948,7.23013699 12.8400686,7.60091324 11.8801456,8.11232877 C10.9202226,8.62374429 10.0794846,9.2630137 9.35793173,10.030137 C8.63637885,10.7972603 8.06300201,11.6794521 7.6378012,12.6767123 C7.2126004,13.6739726 7,14.773516 7,15.9753425 C7,16.7041096 7.1063002,17.3753425 7.3189006,17.9890411 C7.531501,18.6027397 7.84395917,19.1333333 8.2562751,19.5808219 C8.66859103,20.0283105 9.18076473,20.3767123 9.79279618,20.6260274 C10.4048276,20.8753425 11.1102744,21 11.9091365,21 Z M11.9875,20.125 C11.6115741,20.125 11.2907407,20.0235927 11.025,19.8207781 C10.7592593,19.6179636 10.5421296,19.3509244 10.3736111,19.0196606 C10.2050926,18.6883968 10.0819444,18.3098096 10.0041667,17.883899 C9.92638889,17.4579884 9.8875,17.0151766 9.8875,16.5554636 C9.8875,16.3256071 9.89722222,16.0856098 9.91666667,15.8354719 C9.93611111,15.5853339 9.96527778,15.3656181 10.0041667,15.1763245 C10.1467593,14.8653422 10.3736111,14.5915425 10.6847222,14.3549255 C10.9958333,14.1183085 11.3717593,14 11.8125,14 C13.0958333,14 13.7375,15.0005519 13.7375,17.0016556 C13.7375,17.4208057 13.7050926,17.8196744 13.6402778,18.1982616 C13.575463,18.5768488 13.475,18.9081126 13.3388889,19.192053 C13.2027778,19.4759934 13.024537,19.7024696 12.8041667,19.8714818 C12.5837963,20.0404939 12.3115741,20.125 11.9875,20.125 Z" id="6" fill="#343333" fill-rule="nonzero"></path>
                <rect id="Rectangle" fill="#FFFFFF" x="46.3333333" y="3.4024024" width="19" height="17"></rect>
                <g id="Icon_Espadas" transform="translate(48.000000, 4.729730)" fill="#343333">
                    <path d="M8.24364559,13.0423819 C7.43214384,11.3870373 5.6075368,10.0910356 4.89150571,9.87556405 C-3.18384924,7.44548946 0.364914047,0.27027027 4.00274258,0.27027027 C6.65807139,0.27027027 8.10643256,1.4001077 8.34782609,3.65978256 L8.34782609,3.65978256 C8.57835396,1.4001077 9.9615212,0.27027027 12.4973278,0.27027027 C15.9714097,0.27027027 18.792595,7.35275876 11.0807295,9.78283334 C10.3658467,10.008099 9.06169707,11.5070881 8.34782609,13.2702703 Z" id="Combined-Shape" transform="translate(8.000000, 6.770270) scale(1, -1) translate(-8.000000, -6.770270) "></path>
                    <path d="M8.25328175,13.2702703 C6.70030104,15.9369369 5.06754556,17.2702703 3.35501531,17.2702703 C0.786219942,17.2702703 13,17.2702703 13,17.2702703 C11.8884078,17.2702703 10.3061684,15.9369369 8.25328175,13.2702703 Z" id="Path-7"></path>
                </g>
                <path d="M6.33333333,64.4963012 C13.469184,53.6516053 23.3580729,48.2292573 36,48.2292573 C48.6419271,48.2292573 57.8641493,53.6516053 63.6666667,64.4963012 L63.6666667,87.8574939 C63.6666667,91.1712024 60.9803752,93.8574939 57.6666667,93.8574939 L12.3333333,93.8574939 C9.01962483,93.8574939 6.33333333,91.1712024 6.33333333,87.8574939 L6.33333333,64.4963012 L6.33333333,64.4963012 Z" id="Path-114" fill="#343333"></path>
                <path d="M6.33333333,59.7187964 C13.6349826,50.2391019 23.5238715,45.4992546 36,45.4992546 C48.4761285,45.4992546 57.6983507,50.2391019 63.6666667,59.7187964" id="Path-115" stroke="#343333"></path>
                <path d="M21,79.8333247 L28.9766556,88.5124659 L26.976213,89.2536869 L31.4823343,94 L56,94 C60.418278,94 64,90.418278 64,86 L64,79.9782922 L64,79.9782922 L48.8274085,64 L21,79.8333247 Z" id="Path-117" fill="#1D1D1D"></path>
                <g id="Icon" transform="translate(18.000000, 53.000000)" fill="#FFFFFF">
                    <path d="M18.6442564,30.669869 C16.8704484,26.620945 12.6458646,23.4279672 11.0058879,22.9049313 C-7.16366079,17.1101381 0.821056605,1.77635684e-15 9.0061708,1.77635684e-15 C14.9806606,1.77635684e-15 18.2394733,2.69422772 18.7826087,8.08268316 L18.7826087,8.08268316 C19.3012964,2.69422772 22.4134227,1.77635684e-15 28.1189876,1.77635684e-15 C35.9356718,1.77635684e-15 42.2833387,16.889011 24.9316414,22.6838043 C23.3231551,23.2209762 20.3888184,26.7954887 18.7826087,31 Z" id="Combined-Shape" transform="translate(18.000000, 15.500000) scale(1, -1) translate(-18.000000, -15.500000) "></path>
                    <path d="M18.6078762,31 C14.8807225,35.6666667 10.9621093,38 6.85203675,38 C0.686927862,38 30,38 30,38 C27.3321788,38 23.5348042,35.6666667 18.6078762,31 Z" id="Path-7"></path>
                    <path d="M27,13 C31,14.6732891 33,17.2790013 33,20.8171364 C33,26.1243392 29.585567,28 27.3092784,28 C31.4824742,23.2114243 31.3793814,18.2114243 27,13 Z" id="Path-110"></path>
                </g>
            </g>
        </g>
    </g>
</svg>