<?xml version="1.0" encoding="UTF-8"?>
<svg width="72px" height="102px" viewBox="0 0 72 102" version="1.1" xmlns="http://www.w3.org/2000/svg" xmlns:xlink="http://www.w3.org/1999/xlink">
    <!-- Generator: Sketch 61.2 (89653) - https://sketch.com -->
    <title>08_O</title>
    <desc>Created with Sketch.</desc>
    <g id="Page-1" stroke="none" stroke-width="1" fill="none" fill-rule="evenodd">
        <g id="03_Ouros" transform="translate(1.000000, -681.000000)">
            <g id="08_O" transform="translate(0.000000, 682.000000)">
                <rect id="Rectangle" stroke="#B0B0B0" fill="#FFFFFF" x="0" y="0.354900355" width="70" height="99.6450996" rx="9"></rect>
                <path d="M24.0161133,6.4974065 L57.6666667,6.4974065 C60.9803752,6.4974065 63.6666667,9.24750017 63.6666667,12.6399126 L63.6666667,87.7149877 C63.6666667,91.1074002 60.9803752,93.8574939 57.6666667,93.8574939 L12.3333333,93.8574939 C9.01962483,93.8574939 6.33333333,91.1074002 6.33333333,87.7149877 L6.33333333,36.277324" id="Rectangle" stroke="#FF4A4A"></path>
                <path d="M11.7540486,19 C12.54639,19 13.2445597,18.9065378 13.8485577,18.7196133 C14.4525557,18.5326888 14.9591346,18.2748619 15.3682945,17.9461326 C15.7774545,17.6174033 16.0891953,17.2338858 16.3035172,16.7955801 C16.5178391,16.3572744 16.625,15.8867403 16.625,15.3839779 C16.625,14.9585635 16.5568067,14.5653775 16.42042,14.2044199 C16.2840334,13.8434622 16.0794534,13.5018416 15.8066802,13.179558 C15.5339069,12.8572744 15.1929403,12.5478821 14.7837804,12.2513812 C14.3746204,11.9548803 13.8907726,11.6583794 13.3322368,11.3618785 C14.1245783,11.1169429 14.7805331,10.7108656 15.3001012,10.1436464 C15.8196694,9.57642726 16.0794534,8.90607735 16.0794534,8.13259669 C16.0794534,7.66850829 15.9820344,7.24309392 15.7871964,6.85635359 C15.5923583,6.46961326 15.3130904,6.14088398 14.9493927,5.87016575 C14.585695,5.59944751 14.1473094,5.38674033 13.6342358,5.2320442 C13.1211623,5.07734807 12.5528846,5 11.9294028,5 C11.2539642,5 10.646719,5.08701657 10.107667,5.26104972 C9.56861505,5.43508287 9.11074561,5.67679558 8.7340587,5.98618785 C8.35737179,6.29558011 8.06836201,6.65976059 7.86702935,7.07872928 C7.66569669,7.49769797 7.56503036,7.95856354 7.56503036,8.46132597 C7.56503036,9.24769797 7.80533063,9.94060773 8.28593117,10.5400552 C8.76653171,11.1395028 9.3965081,11.6583794 10.1758603,12.0966851 C9.22764845,12.393186 8.46128543,12.8476059 7.87677126,13.4599448 C7.29225709,14.0722836 7,14.8296501 7,15.7320442 C7,16.1961326 7.11040823,16.6279926 7.3312247,17.0276243 C7.55204116,17.427256 7.86702935,17.7720994 8.27618927,18.0621547 C8.68534919,18.3522099 9.18543354,18.5810313 9.77644231,18.7486188 C10.3674511,18.9162063 11.0266532,19 11.7540486,19 Z M11.9138158,11 C11.3171784,10.6326531 10.8302997,10.2006803 10.4531798,9.70408163 C10.0760599,9.20748299 9.8875,8.63265306 9.8875,7.97959184 C9.8875,7.42176871 10.0028874,6.95238095 10.2336623,6.57142857 C10.4644371,6.19047619 10.833114,6 11.339693,6 C11.7674708,6 12.113633,6.19387755 12.3781798,6.58163265 C12.6427266,6.96938776 12.775,7.55782313 12.775,8.34693878 C12.775,8.9047619 12.7102705,9.39795918 12.5808114,9.82653061 C12.4513523,10.255102 12.2290205,10.6462585 11.9138158,11 Z M11.9214623,17 C11.5461478,17 11.2313679,16.9256506 10.9771226,16.7769517 C10.7228774,16.6282528 10.514033,16.4392813 10.3505896,16.2100372 C10.1871462,15.9807931 10.0691038,15.7174721 9.99646226,15.4200743 C9.92382075,15.1226766 9.8875,14.8252788 9.8875,14.527881 C9.8875,14.094176 9.96619497,13.6480793 10.1235849,13.1895911 C10.2809748,12.7311029 10.5715409,12.3345725 10.995283,12 C11.3584906,12.2230483 11.7065645,12.436803 12.0395047,12.6412639 C12.372445,12.8457249 12.663011,13.0687732 12.9112028,13.3104089 C13.1593947,13.5520446 13.3591588,13.8215613 13.5104953,14.1189591 C13.6618318,14.4163569 13.7375,14.7757125 13.7375,15.197026 C13.7375,15.4324659 13.6981525,15.6586121 13.6194575,15.8754647 C13.5407626,16.0923172 13.4257469,16.2843866 13.2744104,16.4516729 C13.1230739,16.6189591 12.9354167,16.7521685 12.7114387,16.8513011 C12.4874607,16.9504337 12.2241352,17 11.9214623,17 Z" id="8" fill="#FF4141" fill-rule="nonzero"></path>
                <rect id="Rectangle" fill="#FFFFFF" x="51.3333333" y="3.55391755" width="14" height="14"></rect>
                <polygon id="Small_Icon" fill="#FF4A4A" transform="translate(56.500000, 15.000000) rotate(-360.000000) translate(-56.500000, -15.000000) " points="56.5 5 61 15.1448916 56.6199707 25 52 15.1448916"></polygon>
                <path d="M6.33333333,64.4963012 C13.469184,53.6516053 23.3580729,48.2292573 36,48.2292573 C48.6419271,48.2292573 57.8641493,53.6516053 63.6666667,64.4963012 L63.6666667,87.8574939 C63.6666667,91.1712024 60.9803752,93.8574939 57.6666667,93.8574939 L12.3333333,93.8574939 C9.01962483,93.8574939 6.33333333,91.1712024 6.33333333,87.8574939 L6.33333333,64.4963012 L6.33333333,64.4963012 Z" id="Path-114" fill="#FF4A4A"></path>
                <path d="M6.33333333,59.7187964 C13.6349826,50.2391019 23.5238715,45.4992546 36,45.4992546 C48.4761285,45.4992546 57.6983507,50.2391019 63.6666667,59.7187964" id="Path-115" stroke="#FF4A4A"></path>
                <path d="M36.6640625,90 L40.3333333,93.8574939 L56.8032542,93.8574939 C60.5938123,93.8574939 63.6666667,90.7846394 63.6666667,86.9940814 L63.6666667,86.9940814 L63.6666667,86.9940814 L36.6640625,53.0126953 L36.6640625,90 Z" id="Path-117" fill="#DF3232"></path>
                <g id="Icon-Copy-7" transform="translate(27.000000, 52.000000)">
                    <polygon id="Triangle-Copy-2" fill="#FFFFFF" transform="translate(9.000000, 19.000000) rotate(-360.000000) translate(-9.000000, -19.000000) " points="9 0 18 19.2752941 9.23994141 38 0 19.2752941"></polygon>
                    <polygon id="Path-112" fill="#DF3232" points="9 5 16 19 13.7302669 19"></polygon>
                </g>
            </g>
        </g>
    </g>
</svg>