<?xml version="1.0" encoding="UTF-8"?>
<svg width="72px" height="102px" viewBox="0 0 72 102" version="1.1" xmlns="http://www.w3.org/2000/svg" xmlns:xlink="http://www.w3.org/1999/xlink">
    <!-- Generator: Sketch 61.2 (89653) - https://sketch.com -->
    <title>08_C</title>
    <desc>Created with Sketch.</desc>
    <g id="Page-1" stroke="none" stroke-width="1" fill="none" fill-rule="evenodd">
        <g id="03_Copas" transform="translate(1.000000, -681.000000)">
            <g id="08_C" transform="translate(0.000000, 682.000000)">
                <rect id="Rectangle" stroke="#B0B0B0" fill="#FFFFFF" x="0" y="0.354900355" width="70" height="99.6450996" rx="9"></rect>
                <path d="M24.0161133,6.4974065 L57.6666667,6.4974065 C60.9803752,6.4974065 63.6666667,9.24750017 63.6666667,12.6399126 L63.6666667,87.7149877 C63.6666667,91.1074002 60.9803752,93.8574939 57.6666667,93.8574939 L12.3333333,93.8574939 C9.01962483,93.8574939 6.33333333,91.1074002 6.33333333,87.7149877 L6.33333333,36.277324" id="Rectangle" stroke="#FF4A4A"></path>
                <path d="M11.7540486,20 C12.54639,20 13.2445597,19.9065378 13.8485577,19.7196133 C14.4525557,19.5326888 14.9591346,19.2748619 15.3682945,18.9461326 C15.7774545,18.6174033 16.0891953,18.2338858 16.3035172,17.7955801 C16.5178391,17.3572744 16.625,16.8867403 16.625,16.3839779 C16.625,15.9585635 16.5568067,15.5653775 16.42042,15.2044199 C16.2840334,14.8434622 16.0794534,14.5018416 15.8066802,14.179558 C15.5339069,13.8572744 15.1929403,13.5478821 14.7837804,13.2513812 C14.3746204,12.9548803 13.8907726,12.6583794 13.3322368,12.3618785 C14.1245783,12.1169429 14.7805331,11.7108656 15.3001012,11.1436464 C15.8196694,10.5764273 16.0794534,9.90607735 16.0794534,9.13259669 C16.0794534,8.66850829 15.9820344,8.24309392 15.7871964,7.85635359 C15.5923583,7.46961326 15.3130904,7.14088398 14.9493927,6.87016575 C14.585695,6.59944751 14.1473094,6.38674033 13.6342358,6.2320442 C13.1211623,6.07734807 12.5528846,6 11.9294028,6 C11.2539642,6 10.646719,6.08701657 10.107667,6.26104972 C9.56861505,6.43508287 9.11074561,6.67679558 8.7340587,6.98618785 C8.35737179,7.29558011 8.06836201,7.65976059 7.86702935,8.07872928 C7.66569669,8.49769797 7.56503036,8.95856354 7.56503036,9.46132597 C7.56503036,10.247698 7.80533063,10.9406077 8.28593117,11.5400552 C8.76653171,12.1395028 9.3965081,12.6583794 10.1758603,13.0966851 C9.22764845,13.393186 8.46128543,13.8476059 7.87677126,14.4599448 C7.29225709,15.0722836 7,15.8296501 7,16.7320442 C7,17.1961326 7.11040823,17.6279926 7.3312247,18.0276243 C7.55204116,18.427256 7.86702935,18.7720994 8.27618927,19.0621547 C8.68534919,19.3522099 9.18543354,19.5810313 9.77644231,19.7486188 C10.3674511,19.9162063 11.0266532,20 11.7540486,20 Z M12.0811404,11.25 C11.3579435,10.9285714 10.7677875,10.5505952 10.3106725,10.1160714 C9.8535575,9.68154762 9.625,9.17857143 9.625,8.60714286 C9.625,8.11904762 9.76486355,7.70833333 10.0445906,7.375 C10.3243177,7.04166667 10.7711988,6.875 11.3852339,6.875 C11.9037524,6.875 12.3233431,7.04464286 12.6440058,7.38392857 C12.9646686,7.72321429 13.125,8.23809524 13.125,8.92857143 C13.125,9.41666667 13.04654,9.84821429 12.8896199,10.2232143 C12.7326998,10.5982143 12.4632066,10.9404762 12.0811404,11.25 Z M11.9363208,18.25 C11.509827,18.25 11.1521226,18.1719331 10.8632075,18.0157993 C10.5742925,17.8596654 10.3369693,17.6612454 10.1512382,17.420539 C9.96550708,17.1798327 9.83136792,16.9033457 9.74882075,16.5910781 C9.66627358,16.2788104 9.625,15.9665428 9.625,15.6542751 C9.625,15.1988848 9.7144261,14.7304833 9.8932783,14.2490706 C10.0721305,13.767658 10.4023192,13.3513011 10.8838443,13 C11.2965802,13.2342007 11.6921187,13.4586431 12.0704599,13.6733271 C12.4488011,13.8880112 12.7789898,14.1222119 13.0610259,14.3759294 C13.3430621,14.6296468 13.5700668,14.9126394 13.7420401,15.2249071 C13.9140134,15.5371747 14,15.9144981 14,16.3568773 C14,16.6040892 13.9552869,16.8415428 13.8658608,17.0692379 C13.7764347,17.2969331 13.6457351,17.4986059 13.4737618,17.6742565 C13.3017885,17.8499071 13.0885417,17.989777 12.8340212,18.0938662 C12.5795008,18.1979554 12.2802673,18.25 11.9363208,18.25 Z" id="8" fill="#FF4141" fill-rule="nonzero"></path>
                <rect id="Rectangle" fill="#FFFFFF" x="46.3333333" y="4.55391755" width="19" height="13"></rect>
                <path d="M6.33333333,64.4963012 C13.469184,53.6516053 23.3580729,48.2292573 36,48.2292573 C48.6419271,48.2292573 57.8641493,53.6516053 63.6666667,64.4963012 L63.6666667,87.8574939 C63.6666667,91.1712024 60.9803752,93.8574939 57.6666667,93.8574939 L12.3333333,93.8574939 C9.01962483,93.8574939 6.33333333,91.1712024 6.33333333,87.8574939 L6.33333333,64.4963012 L6.33333333,64.4963012 Z" id="Path-114" fill="#FF4A4A"></path>
                <path d="M6.33333333,59.7187964 C13.6349826,50.2391019 23.5238715,45.4992546 36,45.4992546 C48.4761285,45.4992546 57.6983507,50.2391019 63.6666667,59.7187964" id="Path-115" stroke="#FF4A4A"></path>
                <path d="M21.6930339,74.5028676 L39.3333333,93.8574939 L55.6666667,93.8574939 C60.0849447,93.8574939 63.6666667,90.2757719 63.6666667,85.8574939 L63.6666667,74.9940814 L63.6666667,74.9940814 L47.9173177,56.9334738 L21.6930339,74.5028676 Z" id="Path-117" fill="#DF3232"></path>
                <g id="Group-4" transform="translate(19.333333, 56.319956)">
                    <path d="M16.5445717,32.4196024 C14.9670123,28.1252039 12.2314326,24.5247973 10.7143202,23.9716829 C-6.08235647,17.8478888 0.0622705954,0 7.62892616,0 C13.1519898,0 16.16457,2.84719317 16.6666667,8.54157952 L16.6666667,8.54157952 C17.1687634,2.84719317 20.1813435,0 25.7044072,0 C33.2710627,0 39.4156898,17.8478888 22.6190132,23.9716829 C21.0619767,24.539353 18.2214993,28.3168093 16.6666667,32.7600328 Z" id="Combined-Shape-Copy" fill="#FFFFFF"></path>
                    <path d="M20,3.23201655 C23.8935737,1.31052225 26.9889223,1.72678342 29.2860458,4.48080006 C31.5831693,7.2348167 31.9472071,10.2912212 30.3781591,13.6500137 C30.3781591,10.2912212 29.3960655,7.59320235 27.4318783,5.555957 C25.4676911,3.51871165 22.9903983,2.74406483 20,3.23201655 Z" id="Path-36" fill="#FF4A4A"></path>
                </g>
                <g id="Small_Icon" transform="translate(49.000000, 6.000000)" fill="#FF4A4A">
                    <path d="M7.40555216,13.7540318 C6.69026797,11.9634079 5.49164671,10.4763449 4.82144407,10.2442987 C-2.73706041,7.62729529 0.0280217679,0 3.43301677,0 C5.91839541,0 7.27405649,1.216748 7.5,3.65024401 L7.5,3.65024401 C7.72594351,1.216748 9.08160459,0 11.5669832,0 C14.9719782,0 17.7370604,7.62729529 10.1785559,10.2442987 C9.47788954,10.4868925 8.19967469,12.1011884 7.5,14 Z" id="Combined-Shape-Copy"></path>
                </g>
            </g>
        </g>
    </g>
</svg>