<?xml version="1.0" encoding="UTF-8"?>
<svg width="72px" height="102px" viewBox="0 0 72 102" version="1.1" xmlns="http://www.w3.org/2000/svg" xmlns:xlink="http://www.w3.org/1999/xlink">
    <!-- Generator: Sketch 61.2 (89653) - https://sketch.com -->
    <title>08_E</title>
    <desc>Created with Sketch.</desc>
    <g id="Page-1" stroke="none" stroke-width="1" fill="none" fill-rule="evenodd">
        <g id="03_Espadas" transform="translate(1.000000, -681.000000)">
            <g id="08_E" transform="translate(0.000000, 682.000000)">
                <rect id="Rectangle" stroke="#B0B0B0" fill="#FFFFFF" x="0" y="0.354900355" width="70" height="99.6450996" rx="9"></rect>
                <path d="M24.0161133,6.4974065 L57.6666667,6.4974065 C60.9803752,6.4974065 63.6666667,9.24750017 63.6666667,12.6399126 L63.6666667,87.7149877 C63.6666667,91.1074002 60.9803752,93.8574939 57.6666667,93.8574939 L12.3333333,93.8574939 C9.01962483,93.8574939 6.33333333,91.1074002 6.33333333,87.7149877 L6.33333333,36.277324" id="Rectangle" stroke="#343333"></path>
                <path d="M11.7540486,19 C12.54639,19 13.2445597,18.9065378 13.8485577,18.7196133 C14.4525557,18.5326888 14.9591346,18.2748619 15.3682945,17.9461326 C15.7774545,17.6174033 16.0891953,17.2338858 16.3035172,16.7955801 C16.5178391,16.3572744 16.625,15.8867403 16.625,15.3839779 C16.625,14.9585635 16.5568067,14.5653775 16.42042,14.2044199 C16.2840334,13.8434622 16.0794534,13.5018416 15.8066802,13.179558 C15.5339069,12.8572744 15.1929403,12.5478821 14.7837804,12.2513812 C14.3746204,11.9548803 13.8907726,11.6583794 13.3322368,11.3618785 C14.1245783,11.1169429 14.7805331,10.7108656 15.3001012,10.1436464 C15.8196694,9.57642726 16.0794534,8.90607735 16.0794534,8.13259669 C16.0794534,7.66850829 15.9820344,7.24309392 15.7871964,6.85635359 C15.5923583,6.46961326 15.3130904,6.14088398 14.9493927,5.87016575 C14.585695,5.59944751 14.1473094,5.38674033 13.6342358,5.2320442 C13.1211623,5.07734807 12.5528846,5 11.9294028,5 C11.2539642,5 10.646719,5.08701657 10.107667,5.26104972 C9.56861505,5.43508287 9.11074561,5.67679558 8.7340587,5.98618785 C8.35737179,6.29558011 8.06836201,6.65976059 7.86702935,7.07872928 C7.66569669,7.49769797 7.56503036,7.95856354 7.56503036,8.46132597 C7.56503036,9.24769797 7.80533063,9.94060773 8.28593117,10.5400552 C8.76653171,11.1395028 9.3965081,11.6583794 10.1758603,12.0966851 C9.22764845,12.393186 8.46128543,12.8476059 7.87677126,13.4599448 C7.29225709,14.0722836 7,14.8296501 7,15.7320442 C7,16.1961326 7.11040823,16.6279926 7.3312247,17.0276243 C7.55204116,17.427256 7.86702935,17.7720994 8.27618927,18.0621547 C8.68534919,18.3522099 9.18543354,18.5810313 9.77644231,18.7486188 C10.3674511,18.9162063 11.0266532,19 11.7540486,19 Z M12.4597953,10.7647059 C11.7968648,10.4016807 11.2558886,9.97478992 10.8368665,9.48403361 C10.4178444,8.99327731 10.2083333,8.42521008 10.2083333,7.77983193 C10.2083333,7.22857143 10.3365416,6.76470588 10.5929581,6.38823529 C10.8493746,6.01176471 11.2590156,5.82352941 11.8218811,5.82352941 C12.2971897,5.82352941 12.6818145,6.01512605 12.9757554,6.39831933 C13.2696962,6.78151261 13.4166667,7.36302521 13.4166667,8.14285714 C13.4166667,8.69411765 13.344745,9.18151261 13.2009016,9.60504202 C13.0570582,10.0285714 12.8100227,10.4151261 12.4597953,10.7647059 Z M11.5249607,17.3529412 C11.1340081,17.3529412 10.8061124,17.2794664 10.5412736,17.1325169 C10.2764347,16.9855675 10.0588886,16.7988192 9.88863502,16.572272 C9.71838149,16.3457249 9.5954206,16.0855019 9.51975236,15.7916029 C9.44408412,15.4977039 9.40625,15.2038049 9.40625,14.909906 C9.40625,14.4813033 9.48822393,14.0404548 9.65217178,13.5873606 C9.81611963,13.1342663 10.1187926,12.742401 10.5601906,12.4117647 C10.9385318,12.6321889 11.3011088,12.8434288 11.6479216,13.0454844 C11.9947343,13.2475399 12.2974073,13.4679641 12.5559404,13.7067571 C12.8144736,13.94555 13.0225613,14.2118959 13.1802034,14.5057949 C13.3378456,14.7996939 13.4166667,15.1548218 13.4166667,15.5711787 C13.4166667,15.8038487 13.3756797,16.0273344 13.2937058,16.2416357 C13.2117319,16.455937 13.0919238,16.6457468 12.9342816,16.8110649 C12.7766395,16.9763831 12.5811632,17.1080254 12.3478528,17.2059917 C12.1145424,17.303958 11.840245,17.3529412 11.5249607,17.3529412 Z" id="8" fill="#343333" fill-rule="nonzero"></path>
                <rect id="Rectangle" fill="#FFFFFF" x="46.3333333" y="3.4024024" width="19" height="17"></rect>
                <g id="Icon_Espadas" transform="translate(48.000000, 4.729730)" fill="#343333">
                    <path d="M8.24364559,13.0423819 C7.43214384,11.3870373 5.6075368,10.0910356 4.89150571,9.87556405 C-3.18384924,7.44548946 0.364914047,0.27027027 4.00274258,0.27027027 C6.65807139,0.27027027 8.10643256,1.4001077 8.34782609,3.65978256 L8.34782609,3.65978256 C8.57835396,1.4001077 9.9615212,0.27027027 12.4973278,0.27027027 C15.9714097,0.27027027 18.792595,7.35275876 11.0807295,9.78283334 C10.3658467,10.008099 9.06169707,11.5070881 8.34782609,13.2702703 Z" id="Combined-Shape" transform="translate(8.000000, 6.770270) scale(1, -1) translate(-8.000000, -6.770270) "></path>
                    <path d="M8.25328175,13.2702703 C6.70030104,15.9369369 5.06754556,17.2702703 3.35501531,17.2702703 C0.786219942,17.2702703 13,17.2702703 13,17.2702703 C11.8884078,17.2702703 10.3061684,15.9369369 8.25328175,13.2702703 Z" id="Path-7"></path>
                </g>
                <path d="M6.33333333,64.4963012 C13.469184,53.6516053 23.3580729,48.2292573 36,48.2292573 C48.6419271,48.2292573 57.8641493,53.6516053 63.6666667,64.4963012 L63.6666667,87.8574939 C63.6666667,91.1712024 60.9803752,93.8574939 57.6666667,93.8574939 L12.3333333,93.8574939 C9.01962483,93.8574939 6.33333333,91.1712024 6.33333333,87.8574939 L6.33333333,64.4963012 L6.33333333,64.4963012 Z" id="Path-114" fill="#343333"></path>
                <path d="M6.33333333,59.7187964 C13.6349826,50.2391019 23.5238715,45.4992546 36,45.4992546 C48.4761285,45.4992546 57.6983507,50.2391019 63.6666667,59.7187964" id="Path-115" stroke="#343333"></path>
                <path d="M21,79.8333247 L28.9766556,88.5124659 L26.976213,89.2536869 L31.4823343,94 L56,94 C60.418278,94 64,90.418278 64,86 L64,79.9782922 L64,79.9782922 L48.8274085,64 L21,79.8333247 Z" id="Path-117" fill="#1D1D1D"></path>
                <g id="Icon" transform="translate(18.000000, 53.000000)" fill="#FFFFFF">
                    <path d="M18.6442564,30.669869 C16.8704484,26.620945 12.6458646,23.4279672 11.0058879,22.9049313 C-7.16366079,17.1101381 0.821056605,1.77635684e-15 9.0061708,1.77635684e-15 C14.9806606,1.77635684e-15 18.2394733,2.69422772 18.7826087,8.08268316 L18.7826087,8.08268316 C19.3012964,2.69422772 22.4134227,1.77635684e-15 28.1189876,1.77635684e-15 C35.9356718,1.77635684e-15 42.2833387,16.889011 24.9316414,22.6838043 C23.3231551,23.2209762 20.3888184,26.7954887 18.7826087,31 Z" id="Combined-Shape" transform="translate(18.000000, 15.500000) scale(1, -1) translate(-18.000000, -15.500000) "></path>
                    <path d="M18.6078762,31 C14.8807225,35.6666667 10.9621093,38 6.85203675,38 C0.686927862,38 30,38 30,38 C27.3321788,38 23.5348042,35.6666667 18.6078762,31 Z" id="Path-7"></path>
                    <path d="M27,13 C31,14.6732891 33,17.2790013 33,20.8171364 C33,26.1243392 29.585567,28 27.3092784,28 C31.4824742,23.2114243 31.3793814,18.2114243 27,13 Z" id="Path-110"></path>
                </g>
            </g>
        </g>
    </g>
</svg>