<?xml version="1.0" encoding="UTF-8"?>
<svg width="72px" height="102px" viewBox="0 0 72 102" version="1.1" xmlns="http://www.w3.org/2000/svg" xmlns:xlink="http://www.w3.org/1999/xlink">
    <!-- Generator: Sketch 61.2 (89653) - https://sketch.com -->
    <title>09_P</title>
    <desc>Created with Sketch.</desc>
    <g id="Page-1" stroke="none" stroke-width="1" fill="none" fill-rule="evenodd">
        <g id="03_Paus" transform="translate(1.000000, -794.000000)">
            <g id="09_P" transform="translate(0.000000, 795.000000)">
                <rect id="Rectangle" stroke="#B0B0B0" fill="#FFFFFF" x="0" y="0.354900355" width="70" height="99.6450996" rx="9"></rect>
                <path d="M24.0161133,6.4974065 L57.6666667,6.4974065 C60.9803752,6.4974065 63.6666667,9.24750017 63.6666667,12.6399126 L63.6666667,87.7149877 C63.6666667,91.1074002 60.9803752,93.8574939 57.6666667,93.8574939 L12.3333333,93.8574939 C9.01962483,93.8574939 6.33333333,91.1074002 6.33333333,87.7149877 L6.33333333,36.277324" id="Rectangle" stroke="#343333"></path>
                <path d="M9.06947262,20 C10.18881,19.8839779 11.2137847,19.5842541 12.1443966,19.1008287 C13.0750085,18.6174033 13.872211,17.9921731 14.5360041,17.2251381 C15.1997972,16.4581031 15.7139114,15.5686004 16.0783469,14.5566298 C16.4427823,13.5446593 16.625,12.4392265 16.625,11.2403315 C16.625,10.4539595 16.5176217,9.73526703 16.3028651,9.08425414 C16.0881085,8.43324125 15.7724814,7.88213628 15.3559838,7.43093923 C14.9394861,6.97974217 14.4318796,6.62845304 13.8331643,6.37707182 C13.234449,6.12569061 12.5576403,6 11.8027383,6 C11.086883,6 10.4361055,6.10957643 9.85040568,6.32872928 C9.26470588,6.54788214 8.76035328,6.85405157 8.33734787,7.24723757 C7.91434246,7.64042357 7.5856998,8.10773481 7.35141988,8.64917127 C7.11713996,9.19060773 7,9.79005525 7,10.4475138 C7,11.1049724 7.1073783,11.6850829 7.32213489,12.1878453 C7.53689148,12.6906077 7.82974138,13.1127993 8.20068458,13.4544199 C8.57162779,13.7960405 9.00114097,14.0506446 9.48922414,14.218232 C9.9773073,14.3858195 10.5011832,14.4696133 11.0608519,14.4696133 C11.6986139,14.4696133 12.219236,14.3664825 12.6227181,14.160221 C13.0262001,13.9539595 13.3515889,13.6896869 13.5988844,13.3674033 C13.3906356,14.8370166 12.8830291,16.0745856 12.0760649,17.0801105 C11.2691007,18.0856354 10.1172245,18.781768 8.62043611,19.1685083 L8.62043611,19.1685083 L9.06947262,20 Z M11.9358974,13 C11.5470085,13 11.2104701,12.9235206 10.9262821,12.7705619 C10.642094,12.6176031 10.4027778,12.4081162 10.2083333,12.142101 C10.0138889,11.8760858 9.86805556,11.5701683 9.77083333,11.2243485 C9.67361111,10.8785288 9.625,10.5127579 9.625,10.1270358 C9.625,9.03637351 9.78952991,8.22170195 10.1185897,7.68302117 C10.4476496,7.14434039 10.9861111,6.875 11.7339744,6.875 C12.1527778,6.875 12.5042735,6.98140608 12.7884615,7.19421824 C13.0726496,7.4070304 13.3044872,7.68967155 13.4839744,8.04214169 C13.6634615,8.39461183 13.7943376,8.8069354 13.8766026,9.27911238 C13.9588675,9.75128936 14,10.2467427 14,10.7654723 C14,11.004886 13.9925214,11.2509501 13.9775641,11.5036645 C13.9626068,11.7563789 13.9401709,11.9691911 13.9102564,12.142101 C13.7307692,12.4081162 13.4690171,12.6176031 13.125,12.7705619 C12.7809829,12.9235206 12.3846154,13 11.9358974,13 Z" id="9" fill="#343333" fill-rule="nonzero"></path>
                <rect id="Rectangle" fill="#FFFFFF" x="46.3333333" y="3.4024024" width="19" height="17"></rect>
                <g id="Small_Icon" transform="translate(47.000000, 5.000000)" fill="#343333">
                    <path d="M8.62664087,13 C7.85015052,16.3333333 7.03377278,18 6.17750766,18 C4.89310997,18 11,18 11,18 C10.4442039,18 9.65308421,16.3333333 8.62664087,13 Z" id="Path-7"></path>
                    <path d="M4.59152968,2.40631429 C5.54868186,-0.802104762 11.3716789,-0.802104762 12.4685359,2.40631429 C12.9154036,3.71344797 12.7514443,4.96376984 11.9766581,6.1572799 C12.7874437,5.96851203 13.6227319,5.98454424 14.4814459,6.20427712 C17.839518,7.06356065 17.839518,13.3479056 14.4814459,14.7113203 C12.3424112,15.5797923 10.3487332,14.488713 8.50041211,11.4380826 C6.65126677,14.488713 4.65758884,15.5797923 2.51855409,14.7113203 C-0.83951803,13.3479056 -0.83951803,7.06356065 2.51855409,6.20427712 C3.4298893,5.97107923 4.31483957,5.96731208 5.17340491,6.19297567 C4.39148654,4.9896868 4.19753634,3.72699844 4.59152968,2.40631429 Z" id="Combined-Shape"></path>
                </g>
                <path d="M6.33333333,64.4963012 C13.469184,53.6516053 23.3580729,48.2292573 36,48.2292573 C48.6419271,48.2292573 57.8641493,53.6516053 63.6666667,64.4963012 L63.6666667,87.8574939 C63.6666667,91.1712024 60.9803752,93.8574939 57.6666667,93.8574939 L12.3333333,93.8574939 C9.01962483,93.8574939 6.33333333,91.1712024 6.33333333,87.8574939 L6.33333333,64.4963012 L6.33333333,64.4963012 Z" id="Path-114" fill="#343333"></path>
                <path d="M6.33333333,59.7187964 C13.6349826,50.2391019 23.5238715,45.4992546 36,45.4992546 C48.4761285,45.4992546 57.6983507,50.2391019 63.6666667,59.7187964" id="Path-115" stroke="#343333"></path>
                <path d="M20.429362,82.0540541 L30.8925781,93.5675676 L56,93.5675676 C60.418278,93.5675676 64,89.9858456 64,85.5675676 L64,79.6550425 L64,79.6550425 L44.6666667,57.099583 L20.429362,82.0540541 Z" id="Path-117" fill="#1D1D1D"></path>
                <g id="Icon_Paus-Copy-3" transform="translate(18.000000, 53.000000)">
                    <path d="M18.5528442,29.0540541 C17.2069276,34.9099099 15.7918728,37.8378378 14.3076799,37.8378378 C12.0813906,37.8378378 22.6666667,37.8378378 22.6666667,37.8378378 C21.7032868,37.8378378 20.3320126,34.9099099 18.5528442,29.0540541 Z" id="Path-7" fill="#FFFFFF"></path>
                    <path d="M9.9032993,5.09444916 C11.9677452,-1.69814972 24.5271506,-1.69814972 26.8929206,5.09444916 C27.8564346,7.86089077 27.5033484,10.5071345 25.8336621,13.0331804 C27.5830272,12.6360819 29.3835277,12.6702736 31.2344912,13.1351813 C38.4773918,14.9543852 38.4773918,28.2590794 31.2344912,31.145588 C26.6205426,32.984382 22.3201556,30.6739576 18.33333,24.2143149 C14.3465111,30.6739576 10.046124,32.984382 5.43217549,31.145588 C-1.81072516,28.2590794 -1.81072516,14.9543852 5.43217549,13.1351813 C7.39761241,12.6415213 9.30615153,12.6335001 11.1577929,13.1111177 C9.47156269,10.5620185 9.05378518,7.88958598 9.9032993,5.09444916 Z" id="Combined-Shape" fill="#FFFFFF"></path>
                    <path d="M26.6666667,15.7491798 C30.009662,15.0786063 32.2477406,16.0244669 33.3809024,18.5867615 C35.080645,22.4302034 32.9101892,26.9584203 31.3149837,27.7027027 C33.1345994,21.6254086 31.5851604,17.6409009 26.6666667,15.7491798 Z" id="Path-111" fill="#343333"></path>
                </g>
            </g>
        </g>
    </g>
</svg>