<?xml version="1.0" encoding="UTF-8"?>
<svg width="72px" height="102px" viewBox="0 0 72 102" version="1.1" xmlns="http://www.w3.org/2000/svg" xmlns:xlink="http://www.w3.org/1999/xlink">
    <!-- Generator: Sketch 61.2 (89653) - https://sketch.com -->
    <title>09_O</title>
    <desc>Created with Sketch.</desc>
    <g id="Page-1" stroke="none" stroke-width="1" fill="none" fill-rule="evenodd">
        <g id="03_Ouros" transform="translate(1.000000, -795.000000)">
            <g id="09_O" transform="translate(0.000000, 796.000000)">
                <rect id="Rectangle" stroke="#B0B0B0" fill="#FFFFFF" x="0" y="0.354900355" width="70" height="99.6450996" rx="9"></rect>
                <path d="M24.0161133,6.4974065 L57.6666667,6.4974065 C60.9803752,6.4974065 63.6666667,9.24750017 63.6666667,12.6399126 L63.6666667,87.7149877 C63.6666667,91.1074002 60.9803752,93.8574939 57.6666667,93.8574939 L12.3333333,93.8574939 C9.01962483,93.8574939 6.33333333,91.1074002 6.33333333,87.7149877 L6.33333333,36.277324" id="Rectangle" stroke="#FF4A4A"></path>
                <path d="M9.06947262,20 C10.18881,19.8839779 11.2137847,19.5842541 12.1443966,19.1008287 C13.0750085,18.6174033 13.872211,17.9921731 14.5360041,17.2251381 C15.1997972,16.4581031 15.7139114,15.5686004 16.0783469,14.5566298 C16.4427823,13.5446593 16.625,12.4392265 16.625,11.2403315 C16.625,10.4539595 16.5176217,9.73526703 16.3028651,9.08425414 C16.0881085,8.43324125 15.7724814,7.88213628 15.3559838,7.43093923 C14.9394861,6.97974217 14.4318796,6.62845304 13.8331643,6.37707182 C13.234449,6.12569061 12.5576403,6 11.8027383,6 C11.086883,6 10.4361055,6.10957643 9.85040568,6.32872928 C9.26470588,6.54788214 8.76035328,6.85405157 8.33734787,7.24723757 C7.91434246,7.64042357 7.5856998,8.10773481 7.35141988,8.64917127 C7.11713996,9.19060773 7,9.79005525 7,10.4475138 C7,11.1049724 7.1073783,11.6850829 7.32213489,12.1878453 C7.53689148,12.6906077 7.82974138,13.1127993 8.20068458,13.4544199 C8.57162779,13.7960405 9.00114097,14.0506446 9.48922414,14.218232 C9.9773073,14.3858195 10.5011832,14.4696133 11.0608519,14.4696133 C11.6986139,14.4696133 12.219236,14.3664825 12.6227181,14.160221 C13.0262001,13.9539595 13.3515889,13.6896869 13.5988844,13.3674033 C13.3906356,14.8370166 12.8830291,16.0745856 12.0760649,17.0801105 C11.2691007,18.0856354 10.1172245,18.781768 8.62043611,19.1685083 L8.62043611,19.1685083 L9.06947262,20 Z M11.4737179,13 C11.1626068,13 10.8933761,12.9235206 10.6660256,12.7705619 C10.4386752,12.6176031 10.2472222,12.4081162 10.0916667,12.142101 C9.93611111,11.8760858 9.81944444,11.5701683 9.74166667,11.2243485 C9.66388889,10.8785288 9.625,10.5127579 9.625,10.1270358 C9.625,9.03637351 9.75662393,8.22170195 10.0198718,7.68302117 C10.2831197,7.14434039 10.7138889,6.875 11.3121795,6.875 C11.6472222,6.875 11.9284188,6.98140608 12.1557692,7.19421824 C12.3831197,7.4070304 12.5685897,7.68967155 12.7121795,8.04214169 C12.8557692,8.39461183 12.9604701,8.8069354 13.0262821,9.27911238 C13.092094,9.75128936 13.125,10.2467427 13.125,10.7654723 C13.125,11.004886 13.1190171,11.2509501 13.1070513,11.5036645 C13.0950855,11.7563789 13.0771368,11.9691911 13.0532051,12.142101 C12.9096154,12.4081162 12.7002137,12.6176031 12.425,12.7705619 C12.1497863,12.9235206 11.8326923,13 11.4737179,13 Z" id="9" fill="#FF4141" fill-rule="nonzero"></path>
                <rect id="Rectangle" fill="#FFFFFF" x="51.3333333" y="3.55391755" width="14" height="14"></rect>
                <polygon id="Small_Icon" fill="#FF4A4A" transform="translate(56.500000, 15.000000) rotate(-360.000000) translate(-56.500000, -15.000000) " points="56.5 5 61 15.1448916 56.6199707 25 52 15.1448916"></polygon>
                <path d="M6.33333333,64.4963012 C13.469184,53.6516053 23.3580729,48.2292573 36,48.2292573 C48.6419271,48.2292573 57.8641493,53.6516053 63.6666667,64.4963012 L63.6666667,87.8574939 C63.6666667,91.1712024 60.9803752,93.8574939 57.6666667,93.8574939 L12.3333333,93.8574939 C9.01962483,93.8574939 6.33333333,91.1712024 6.33333333,87.8574939 L6.33333333,64.4963012 L6.33333333,64.4963012 Z" id="Path-114" fill="#FF4A4A"></path>
                <path d="M6.33333333,59.7187964 C13.6349826,50.2391019 23.5238715,45.4992546 36,45.4992546 C48.4761285,45.4992546 57.6983507,50.2391019 63.6666667,59.7187964" id="Path-115" stroke="#FF4A4A"></path>
                <path d="M36.6640625,90 L40.3333333,93.8574939 L56.8032542,93.8574939 C60.5938123,93.8574939 63.6666667,90.7846394 63.6666667,86.9940814 L63.6666667,86.9940814 L63.6666667,86.9940814 L36.6640625,53.0126953 L36.6640625,90 Z" id="Path-117" fill="#DF3232"></path>
                <g id="Icon-Copy-8" transform="translate(27.000000, 52.000000)">
                    <polygon id="Triangle-Copy-2" fill="#FFFFFF" transform="translate(9.000000, 19.000000) rotate(-360.000000) translate(-9.000000, -19.000000) " points="9 0 18 19.2752941 9.23994141 38 0 19.2752941"></polygon>
                    <polygon id="Path-112" fill="#DF3232" points="9 5 16 19 13.7302669 19"></polygon>
                </g>
            </g>
        </g>
    </g>
</svg>