<?xml version="1.0" encoding="UTF-8"?>
<svg width="72px" height="102px" viewBox="0 0 72 102" version="1.1" xmlns="http://www.w3.org/2000/svg" xmlns:xlink="http://www.w3.org/1999/xlink">
    <!-- Generator: Sketch 61.2 (89653) - https://sketch.com -->
    <title>A_O</title>
    <desc>Created with Sketch.</desc>
    <g id="Page-1" stroke="none" stroke-width="1" fill="none" fill-rule="evenodd">
        <g id="03_Ouros" transform="translate(1.000000, -1369.000000)">
            <g id="A_O" transform="translate(0.000000, 1370.000000)">
                <rect id="Rectangle" stroke="#B0B0B0" fill="#FFFFFF" x="0" y="0.354900355" width="70" height="99.6450996" rx="9"></rect>
                <path d="M9.74348422,20 L9.74348422,19.252809 C9.21856424,18.9513109 8.66163695,18.761236 8.07270233,18.6825843 L8.07270233,18.6825843 L9.20576132,15.5561798 L13.4691358,15.5561798 L14.5829904,18.6825843 C14.3269319,18.7350187 14.0580704,18.8136704 13.776406,18.9185393 C13.4947417,19.0234082 13.2322817,19.1348315 12.9890261,19.252809 L12.9890261,19.252809 L12.9890261,20 L19,20 L19,19.252809 C18.8079561,19.1217228 18.5839049,19.0070225 18.3278464,18.9087079 C18.0717878,18.8103933 17.8157293,18.7350187 17.5596708,18.6825843 L17.5596708,18.6825843 L12.739369,6 L11.3182442,6 L6.36351166,18.6825843 C6.13305898,18.7350187 5.89940558,18.8103933 5.66255144,18.9087079 C5.4256973,19.0070225 5.20484682,19.1217228 5,19.252809 L5,19.252809 L5,20 L9.74348422,20 Z M13.75,13.875 L10.25,13.875 L11.6144068,10.29287 L12.049435,8.625 L12.0889831,8.625 L12.4646893,10.2549639 L13.75,13.875 Z" id="A" fill="#FF4141" fill-rule="nonzero"></path>
                <path d="M26.0161133,6.4974065 L57.6666667,6.4974065 C60.9803752,6.4974065 63.6666667,9.24750017 63.6666667,12.6399126 L63.6666667,87.7149877 C63.6666667,91.1074002 60.9803752,93.8574939 57.6666667,93.8574939 L12.3333333,93.8574939 C9.01962483,93.8574939 6.33333333,91.1074002 6.33333333,87.7149877 L6.33333333,36.277324" id="Rectangle" stroke="#FF4A4A"></path>
                <path d="M35,37 L63,65.6153846 L62.7566488,88.0650354 C62.7210058,91.3531807 60.0453398,94 56.7570013,94 L44.4617129,94 L44.4617129,94 L35.7355756,85.8676758 L35,37 Z" id="Path-128" fill-opacity="0.08" fill="#000000"></path>
                <rect id="Rectangle" fill="#FFFFFF" x="52" y="4.15151515" width="13" height="14"></rect>
                <polygon id="Small_Icon" fill="#FF4A4A" transform="translate(57.166667, 15.597598) rotate(-360.000000) translate(-57.166667, -15.597598) " points="57.1666667 5.5975976 61.6666667 15.7424892 57.2866374 25.5975976 52.6666667 15.7424892"></polygon>
                <g id="Icon" transform="translate(23.000000, 36.000000)">
                    <polygon id="Triangle-Copy-2" fill="#FF4A4A" transform="translate(12.000000, 25.000000) rotate(-360.000000) translate(-12.000000, -25.000000) " points="12 0 24 25.3622291 12.3199219 50 0 25.3622291"></polygon>
                    <polygon id="Path-112" fill="#FFFFFF" points="12 6 21 25 18.0817717 25"></polygon>
                </g>
            </g>
        </g>
    </g>
</svg>