<?xml version="1.0" encoding="UTF-8"?>
<svg width="72px" height="102px" viewBox="0 0 72 102" version="1.1" xmlns="http://www.w3.org/2000/svg" xmlns:xlink="http://www.w3.org/1999/xlink">
    <!-- Generator: Sketch 61.2 (89653) - https://sketch.com -->
    <title>Q_E</title>
    <desc>Created with Sketch.</desc>
    <defs>
        <linearGradient x1="31.2706612%" y1="7.80924479%" x2="78.7929157%" y2="118.372534%" id="linearGradient-1">
            <stop stop-color="#FFF3AC" offset="0%"></stop>
            <stop stop-color="#FFF841" offset="20.8482897%"></stop>
            <stop stop-color="#FFEAAE" offset="53.2173775%"></stop>
            <stop stop-color="#937E00" offset="100%"></stop>
        </linearGradient>
        <linearGradient x1="50%" y1="-20.786308%" x2="43.4958504%" y2="122.173952%" id="linearGradient-2">
            <stop stop-color="#FFF3AC" offset="0%"></stop>
            <stop stop-color="#FFF841" offset="20.8482897%"></stop>
            <stop stop-color="#FFEAAE" offset="53.2173775%"></stop>
            <stop stop-color="#937E00" offset="100%"></stop>
        </linearGradient>
        <linearGradient x1="50%" y1="116.511574%" x2="50%" y2="-81.1915888%" id="linearGradient-3">
            <stop stop-color="#FFF3AC" offset="0%"></stop>
            <stop stop-color="#FFF841" offset="20.8482897%"></stop>
            <stop stop-color="#FFEAAE" offset="53.2173775%"></stop>
            <stop stop-color="#937E00" offset="100%"></stop>
        </linearGradient>
        <linearGradient x1="49.0600822%" y1="70.3937698%" x2="45.491631%" y2="-65.6381332%" id="linearGradient-4">
            <stop stop-color="#FFF3AC" offset="0%"></stop>
            <stop stop-color="#FFF841" offset="20.8482897%"></stop>
            <stop stop-color="#FFEAAE" offset="53.2173775%"></stop>
            <stop stop-color="#937E00" offset="100%"></stop>
        </linearGradient>
        <linearGradient x1="50%" y1="-89.8900082%" x2="50%" y2="100%" id="linearGradient-5">
            <stop stop-color="#FF7169" offset="0%"></stop>
            <stop stop-color="#FF7169" offset="60.4129424%"></stop>
            <stop stop-color="#983939" offset="81.3314492%"></stop>
            <stop stop-color="#873535" offset="100%"></stop>
        </linearGradient>
        <linearGradient x1="14.5898438%" y1="33.6947989%" x2="122.944668%" y2="89.1088938%" id="linearGradient-6">
            <stop stop-color="#FFF3AC" offset="0%"></stop>
            <stop stop-color="#FFF841" offset="20.8482897%"></stop>
            <stop stop-color="#FFEAAE" offset="53.2173775%"></stop>
            <stop stop-color="#937E00" offset="100%"></stop>
        </linearGradient>
        <linearGradient x1="14.5898438%" y1="33.8954786%" x2="122.944668%" y2="88.6275529%" id="linearGradient-7">
            <stop stop-color="#FFF3AC" offset="0%"></stop>
            <stop stop-color="#FFF841" offset="20.8482897%"></stop>
            <stop stop-color="#FFEAAE" offset="53.2173775%"></stop>
            <stop stop-color="#937E00" offset="100%"></stop>
        </linearGradient>
    </defs>
    <g id="Page-1" stroke="none" stroke-width="1" fill="none" fill-rule="evenodd">
        <g id="03_Espadas" transform="translate(1.000000, -1139.000000)">
            <g id="Q_E" transform="translate(0.000000, 1140.000000)">
                <rect id="Rectangle" stroke="#B0B0B0" fill="#FFFFFF" x="0" y="0.354900355" width="70" height="99.6450996" rx="9"></rect>
                <path d="M11.9484967,15.7058824 C12.7488453,15.7058824 13.4564706,15.5727982 14.0713725,15.3066298 C14.6862745,15.0404615 15.2011329,14.6683187 15.6159477,14.1902015 C16.0307625,13.7120843 16.3455338,13.1452443 16.5602614,12.4896815 C16.7749891,11.8341187 16.8823529,11.121872 16.8823529,10.3529412 C16.8823529,9.5840104 16.7749891,8.87176362 16.5602614,8.21620084 C16.3455338,7.56063807 16.0307625,6.99379807 15.6159477,6.51568086 C15.2011329,6.03756364 14.6862745,5.66542086 14.0713725,5.39925252 C13.4564706,5.13308417 12.7488453,5 11.9484967,5 C11.1481481,5 10.4405229,5.13308417 9.82562092,5.39925252 C9.21071895,5.66542086 8.69342048,6.03756364 8.27372549,6.51568086 C7.8540305,6.99379807 7.53681917,7.56063807 7.3220915,8.21620084 C7.10736383,8.87176362 7,9.5840104 7,10.3529412 C7,11.121872 7.10736383,11.8341187 7.3220915,12.4896815 C7.53681917,13.1452443 7.8540305,13.7120843 8.27372549,14.1902015 C8.69342048,14.6683187 9.21071895,15.0404615 9.82562092,15.3066298 C10.4405229,15.5727982 11.1481481,15.7058824 11.9484967,15.7058824 Z M12.0812994,14.8823529 C11.6191396,14.8823529 11.2233538,14.778372 10.8939421,14.57041 C10.5645303,14.362448 10.2941176,14.0759226 10.0827041,13.7108338 C9.87129061,13.345745 9.71641791,12.9113356 9.61808604,12.4076055 C9.51975417,11.9038754 9.47058824,11.3562422 9.47058824,10.7647059 C9.47058824,10.1731696 9.50746269,9.62553641 9.58121159,9.1218063 C9.65496049,8.61807619 9.78279192,8.18366673 9.96470588,7.81857794 C10.1466198,7.45348914 10.3899912,7.16696376 10.69482,6.95900178 C10.9996488,6.75103981 11.3782265,6.64705882 11.8305531,6.64705882 C12.3025461,6.64705882 12.7032485,6.75103981 13.0326602,6.95900178 C13.362072,7.16696376 13.627568,7.45348914 13.8291484,7.81857794 C14.0307287,8.18366673 14.1782265,8.61807619 14.2716418,9.1218063 C14.3650571,9.62553641 14.4117647,10.1731696 14.4117647,10.7647059 C14.4117647,11.3562422 14.3699737,11.9038754 14.2863916,12.4076055 C14.2028095,12.9113356 14.0676032,13.345745 13.8807726,13.7108338 C13.6939421,14.0759226 13.453029,14.362448 13.1580334,14.57041 C12.8630378,14.778372 12.5041264,14.8823529 12.0812994,14.8823529 Z M14.9594049,19 C15.2325352,19 15.4955496,18.9621366 15.7484481,18.8864097 C16.0013466,18.8106829 16.2416002,18.7065585 16.4692088,18.5740365 C16.6968174,18.4415145 16.9143101,18.2924273 17.1216869,18.1267748 C17.3290636,17.9611224 17.5237954,17.7883705 17.7058824,17.6085193 L17.7058824,17.6085193 L17.5541433,17.2535497 C17.0382304,17.4144692 16.5374914,17.4972955 16.0519263,17.5020284 C15.5663612,17.5067613 15.0909121,17.4712644 14.6255789,17.3955375 C14.1602457,17.3198107 13.6974415,17.2204192 13.2371662,17.0973631 C12.776891,16.974307 12.3166158,16.8630832 11.8563405,16.7636917 C11.3960653,16.6643002 10.9307321,16.5933063 10.4603409,16.5507099 C9.98994975,16.5081136 9.51197162,16.5294118 9.02640654,16.6146045 L9.02640654,16.6146045 L8.64705882,17.2393509 C9.30459487,17.3150778 9.9140802,17.4475997 10.4755148,17.6369168 C11.0369495,17.8262339 11.5730942,18.0226504 12.0839492,18.2261663 C12.5948041,18.4296822 13.0854271,18.6095335 13.5558183,18.7657201 C14.0262095,18.9219067 14.4940717,19 14.9594049,19 Z" id="Q" fill="#343333" fill-rule="nonzero"></path>
                <path d="M6.33333333,64.4963012 C13.469184,53.6516053 23.3580729,48.2292573 36,48.2292573 C48.6419271,48.2292573 57.8641493,53.6516053 63.6666667,64.4963012 L63.6666667,87.8574939 C63.6666667,91.1712024 60.9803752,93.8574939 57.6666667,93.8574939 L12.3333333,93.8574939 C9.01962483,93.8574939 6.33333333,91.1712024 6.33333333,87.8574939 L6.33333333,64.4963012 L6.33333333,64.4963012 Z" id="Path-114" fill="#343333"></path>
                <path d="M12,94.0065841 L35.9659612,94.0065841 L56,94.0065841 C60.418278,94.0065841 64,90.4248621 64,86.0065841 C64,78.7000911 64,71.3935981 64,64.0871051 C56,54.029035 49.500691,49.6977694 44.5020729,51.0933082 C37.3236963,61.1427667 30.2787566,68.1707817 23.367254,72.177353 C16.4557513,76.1839244 12.6666667,83.4603347 12,94.0065841 Z" id="Path-117" fill="#1D1D1D"></path>
                <path d="M6.33333333,59.7187964 C13.6349826,50.2391019 23.5238715,45.4992546 36,45.4992546 C48.4761285,45.4992546 57.6983507,50.2391019 63.6666667,59.7187964" id="Path-115" stroke="#343333"></path>
                <path d="M55.6289574,33 L64,43.9356738 L64,63 C59.6918474,55.685843 54.6918474,51.6549576 49,50.9073438 C49,50.9073438 51.2096525,44.9382292 55.6289574,33 Z" id="Path-128" fill-opacity="0.05" fill="#000000"></path>
                <g id="Flower-Copy" transform="translate(5.000000, 31.000000)">
                    <path d="M38,19 C37.5231884,25.0210324 34.149445,30.7431606 27.8787699,36.1663847 C18.4727571,44.3012208 10.518399,48.8911813 10.518399,62.9506938 C10.518399,62.9506938 9.01226601,62.9671292 6,63 C5.96563485,55.9088696 9.07706442,49.3228693 15.3342887,43.2419991 C24.7201251,34.1206939 31.8540846,36.056928 36.7109113,19 C36.7109113,19 37.1406075,19 38,19 Z" id="Path-125" fill="url(#linearGradient-1)"></path>
                    <ellipse id="Oval" fill="url(#linearGradient-2)" transform="translate(34.129630, 8.050000) rotate(-45.000000) translate(-34.129630, -8.050000) " cx="34.1296296" cy="8.05" rx="3.15839447" ry="7.36944926"></ellipse>
                    <ellipse id="Oval-Copy-4" fill="url(#linearGradient-3)" transform="translate(47.500000, 22.050000) rotate(-45.000000) translate(-47.500000, -22.050000) " cx="47.5" cy="22.05" rx="3.15839447" ry="7.36944926"></ellipse>
                    <ellipse id="Oval-Copy-3" fill="url(#linearGradient-2)" transform="translate(33.777778, 21.700000) rotate(-135.000000) translate(-33.777778, -21.700000) " cx="33.7777778" cy="21.7" rx="3.15839447" ry="7.36944926"></ellipse>
                    <ellipse id="Oval-Copy-5" fill="url(#linearGradient-4)" transform="translate(47.851852, 8.400000) rotate(-135.000000) translate(-47.851852, -8.400000) " cx="47.8518519" cy="8.4" rx="3.15839447" ry="7.36944926"></ellipse>
                    <path d="M43.8681251,0 C46.9744363,0 49.4969674,7.08248849 42.6014896,9.51256307 C42.1530359,9.6706052 41.4452404,10.4555943 40.8423141,11.5189099 L40.8421053,13 C40.7402352,12.7186033 40.6249219,12.4439357 40.5004525,12.1801012 C40.3750781,12.4439357 40.2597648,12.7186033 40.1578947,13 L40.1576859,11.5189099 C39.5547596,10.4555943 38.8469641,9.6706052 38.3985104,9.51256307 C31.5030326,7.08248849 34.0255637,0 37.1318749,0 C38.8392892,0 39.9622713,0.640695485 40.5008214,1.92208646 C41.0377287,0.640695485 42.1607108,0 43.8681251,0 Z" id="Combined-Shape-Copy" fill="url(#linearGradient-5)"></path>
                    <path d="M43.8681251,18 C46.9744363,18 49.4969674,25.0824885 42.6014896,27.5125631 C42.1530359,27.6706052 41.4452404,28.4555943 40.8423141,29.5189099 L40.8421053,31 C40.7402352,30.7186033 40.6249219,30.4439357 40.5004525,30.1801012 C40.3750781,30.4439357 40.2597648,30.7186033 40.1578947,31 L40.1576859,29.5189099 C39.5547596,28.4555943 38.8469641,27.6706052 38.3985104,27.5125631 C31.5030326,25.0824885 34.0255637,18 37.1318749,18 C38.8392892,18 39.9622713,18.6406955 40.5008214,19.9220865 C41.0377287,18.6406955 42.1607108,18 43.8681251,18 Z" id="Combined-Shape-Copy-2" fill="url(#linearGradient-5)" transform="translate(40.500000, 24.500000) rotate(-180.000000) translate(-40.500000, -24.500000) "></path>
                    <path d="M53.8681251,10 C56.9744363,10 59.4969674,17.0824885 52.6014896,19.5125631 C52.1530359,19.6706052 51.4452404,20.4555943 50.8423141,21.5189099 L50.8421053,23 C50.7402352,22.7186033 50.6249219,22.4439357 50.5004525,22.1801012 C50.3750781,22.4439357 50.2597648,22.7186033 50.1578947,23 L50.1576859,21.5189099 C49.5547596,20.4555943 48.8469641,19.6706052 48.3985104,19.5125631 C41.5030326,17.0824885 44.0255637,10 47.1318749,10 C48.8392892,10 49.9622713,10.6406955 50.5008214,11.9220865 C51.0377287,10.6406955 52.1607108,10 53.8681251,10 Z" id="Combined-Shape-Copy-4" fill="url(#linearGradient-5)" transform="translate(50.500000, 16.500000) rotate(-270.000000) translate(-50.500000, -16.500000) "></path>
                    <path d="M33.8681251,10 C36.9744363,10 39.4969674,17.0824885 32.6014896,19.5125631 C32.1530359,19.6706052 31.4452404,20.4555943 30.8423141,21.5189099 L30.8421053,23 C30.7402352,22.7186033 30.6249219,22.4439357 30.5004525,22.1801012 C30.3750781,22.4439357 30.2597648,22.7186033 30.1578947,23 L30.1576859,21.5189099 C29.5547596,20.4555943 28.8469641,19.6706052 28.3985104,19.5125631 C21.5030326,17.0824885 24.0255637,10 27.1318749,10 C28.8392892,10 29.9622713,10.6406955 30.5008214,11.9220865 C31.0377287,10.6406955 32.1607108,10 33.8681251,10 Z" id="Combined-Shape-Copy-3" fill="url(#linearGradient-5)" transform="translate(30.500000, 16.500000) rotate(-90.000000) translate(-30.500000, -16.500000) "></path>
                    <circle id="Oval" fill="#FF4A4A" cx="41" cy="15" r="9"></circle>
                    <circle id="Oval" fill="#FFFFFF" cx="41" cy="15" r="4"></circle>
                    <path d="M18.2865993,43.322572 C15.4293455,38.6601389 13.0505958,36.330173 11.15035,36.3326742 C8.29998125,36.336426 3.24368876,35.4980213 1.41653797,33.6092799 C1.41653797,33.6092799 1.62134774,41.8080959 7.9945683,43.3361189 C12.243382,44.3548009 15.674059,44.3502853 18.2865993,43.322572 Z" id="Path-81" fill="url(#linearGradient-6)" transform="translate(9.851569, 38.853019) rotate(15.000000) translate(-9.851569, -38.853019) "></path>
                    <path d="M32.9364169,46.2712227 C30.4241449,42.2193059 28.3371992,40.1916228 26.67558,40.1881736 C24.1831512,40.1829998 19.7593079,39.4409483 18.1560025,37.7975457 C18.1560025,37.7975457 18.3593813,44.9085284 23.9368252,46.2525413 C27.6551211,47.1485498 30.654985,47.154777 32.9364169,46.2712227 Z" id="Path-81-Copy" fill="url(#linearGradient-7)" transform="translate(25.546210, 42.363398) scale(-1, 1) rotate(-26.000000) translate(-25.546210, -42.363398) "></path>
                </g>
                <path d="M29.0161133,6.4974065 L57.6666667,6.4974065 C60.9803752,6.4974065 63.6666667,9.24750017 63.6666667,12.6399126 L63.6666667,87.7149877 C63.6666667,91.1074002 60.9803752,93.8574939 57.6666667,93.8574939 L12.3333333,93.8574939 C9.01962483,93.8574939 6.33333333,91.1074002 6.33333333,87.7149877 L6.33333333,36.277324" id="Rectangle" stroke="#343333"></path>
                <rect id="Rectangle" fill="#FFFFFF" x="46" y="4" width="19" height="17"></rect>
                <g id="Icon_Espadas" transform="translate(47.666667, 5.327327)" fill="#343333">
                    <path d="M8.24364559,13.0423819 C7.43214384,11.3870373 5.6075368,10.0910356 4.89150571,9.87556405 C-3.18384924,7.44548946 0.364914047,0.27027027 4.00274258,0.27027027 C6.65807139,0.27027027 8.10643256,1.4001077 8.34782609,3.65978256 L8.34782609,3.65978256 C8.57835396,1.4001077 9.9615212,0.27027027 12.4973278,0.27027027 C15.9714097,0.27027027 18.792595,7.35275876 11.0807295,9.78283334 C10.3658467,10.008099 9.06169707,11.5070881 8.34782609,13.2702703 Z" id="Combined-Shape" transform="translate(8.000000, 6.770270) scale(1, -1) translate(-8.000000, -6.770270) "></path>
                    <path d="M8.25328175,13.2702703 C6.70030104,15.9369369 5.06754556,17.2702703 3.35501531,17.2702703 C0.786219942,17.2702703 13,17.2702703 13,17.2702703 C11.8884078,17.2702703 10.3061684,15.9369369 8.25328175,13.2702703 Z" id="Path-7"></path>
                </g>
            </g>
        </g>
    </g>
</svg>